<mxfile host="65bd71144e">
    <diagram id="1qj85eq2ZZIM6YTv-p7B" name="Page-1">
        <mxGraphModel dx="288" dy="790" grid="1" gridSize="10" guides="1" tooltips="1" connect="1" arrows="1" fold="1" page="1" pageScale="1" pageWidth="850" pageHeight="1100" math="0" shadow="0">
            <root>
                <mxCell id="0"/>
                <mxCell id="1" parent="0"/>
                <mxCell id="2" value="v" style="shape=image;verticalLabelPosition=bottom;labelBackgroundColor=#ffffff;verticalAlign=top;aspect=fixed;imageAspect=0;image=data:image/png,iVBORw0KGgoAAAANSUhEUgAABasAAAKbCAYAAAD7WtbfAAAAAXNSR0IArs4c6QAAAARnQU1BAACxjwv8YQUAAAAJcEhZcwAADsMAAA7DAcdvqGQAAP+lSURBVHhe7N0FXBTpG8DxHwvq2XqKesbZAdh6Z//tIIwzMLDP7o6zuz27u8UWuxUD6xRPvTMwMRAQacGN/2yQAvZZz/c+6+3OzE6x8847z7zzvGY6BUIIIYQQQgghhBBCCCHEZ6Qy/V8IIYQQQgghhBBCCCGE+GwkWC2EEEIIIYQQQgghhBDis5NgtRBCCCGEEEIIIYQQQojPToLVQgghhBBCCCGEEEIIIT47CVYLIYQQQgghhBBCCCGE+OwkWC2EEEIIIYQQQgghhBDis5NgtRBCCCGEEEIIIYQQQojPToLVQgghhBBCCCGEEEIIIT47CVYLIYQQQgghhBBCCCGE+OwkWC2EEEIIIYQQQgghhBDis5NgtRBCCCGEEEIIIYQQQojPToLVQgghhBBCCCGEEEIIIT47CVYLIYQQQgghhBBCCCGE+OwkWC2EEEIIIYQQQgghhBDis5NgtRBCCCGEEEIIIYQQQojPToLVQgghhBBCCCGEEEIIIT47CVYLIYQQQgghhBBCCCGE+OwkWC2EEEIIIYQQQgghhBDis5NgtRBCCCGEEEIIIYQQQojPToLVQgghhBBCCCGEEEIIIT47CVYLIYQQQgghhBBCCCGE+OwkWC2EEEIIIYQQQgghhBDis5NgtRBCCCGEEEIIIYQQQojPToLVQgghhBBCCCGEEEIIIT47CVYLIYQQQgghhBBCCCGE+OwkWC2EEEIIIYQQQgghhBDis5NgtRBCCCGEEEIIIYQQQojPToLVQgghhBBCCCGEEEIIIT47CVYLIYQQQgghhBBCCCGE+OwkWC2EEEIIIYQQQgghhBDis5NgtRBCCCGEEEIIIYQQQojPToLVQgghhBBCCCGEEEIIIT47CVYLIYQQQgghhBBCCCGE+OwkWC2EEEIIIYQQQgghhBDis5NgtRBCCCGEEEIIIYQQQojPToLVQgghhBBCCCGEEEIIIT47CVYLIYQQQgghhBBCCCGE+OwkWC2EEEIIIYQQQgghhBDis5NgtRBCCCGEEEIIIYQQQojPToLVQgghhBBCCCGEEEIIIT47CVYLIYQQQgghhBBCCCGE+OwkWC2EEEIIIYQQQgghhBDis5NgtRBCCCGEEEIIIYQQQojPToLVQgghhBBCCCGEEEIIIT47CVYLIYQQQgghhBBCCCGE+OwkWC2EEEIIIYQQQgghhBDis5NgtRBCCCGEEEIIIYQQQojPToLVQgghhBBCCCGEEEIIIT47CVYLIYQQQgghhBBCCCGE+OwkWC2EEEIIIYQQQgghhBDis5NgtRBCCCGEEEIIIYQQQojPToLVQgghhBBCCCGEEEIIIT47CVYLIYQQQgghhBBCCCGE+OwkWC2EEEIIIYQQQgghhBDis5NgtRBCCCGEEEIIIYQQQojPToLVQgghhBBCCCGEEEIIIT47CVYLIYQQQgghhBBCCCGE+OwkWC2EEEIIIYQQQgghhBDis5NgtRBCCCGEEEIIIYQQQojPToLVQgghhBBCCCGEEEIIIT47CVYLIYQQQgghhBBCCCGE+OwkWC2EEEIIIYQQQgghhBDiszPTKUzvhRD/iSA8jmxjx+G/uOOrJkWmPJSwa0SdXzOTxDSFEEIIIYQQQgghhBDfGwlWi29QGJfWjGe9601u3ntOWJy/cDPMzC34IUVaMmb+mZw2pahRrxZFMyQ2jf9EAtxZ1q8f21U1+a3UD9w9sIFNZx7xyiw5+Zr/yYpR1ckgzzsIIYQQQgghhBBCiO+QBKvFNyyIq7Pb4jTtPMGGz0nJVbM1ze1Lkjedlqe3rvLX0R3sPHGPYOUoMEv6M5W7TmZCl1Kk+xQBY60Xu3v/Rt9LNVl5cASl9M2ow26xrmsLRh3yQmNRnAGHnOmQw9w4vRBCCCGEEEIIIYQQ3xFpwym+YSko2KweJSIaS6vSU75NL1rWqUKZctX4rXUvxqx0Yf2IqmRUjgRd6AOOTOtAz6X/Em76yscUdmkZs3Y/wcKqMAUj8n0kyUuz6XPoV6sYJe1/o1wmCVQLIYQQQgghhBBCiO+TBKvFty35j6RJamb6EJcUWLecxJDaGYwHgy6As3Oms+uZ1jD24wnn6r6D3FObkTxVKixMQw1SlaT9gq1smNkcmx9Mw4QQQgghhBBCCCGE+M5IsFp848yU/95AlY7KdSuR3nQ06PzdOHQ6yPjhownk5o1HaJR35mZy2AkhhBBCCCGEEEIIEZtEzYRQJMqYkR8jj4aX+D8P5KO2rdb4ExD0sVtrCyGEEEIIIYQQQgjx7ZAOFsW37eV++pbqzA5/5WeuykbLdYcYXjoiiXWUkIP9qNJhCz76o8HMkoZLXJlYNSKxdDxCHnBm1w4OnrvBY79XJLHMRbHKdalfvQCpIgPfGu4d24jrvWecXjqHgw+1pCzZgp61c6EyS0T2/zWm4msdKobw4PRuXA6c5cajF7z6wZJcxSpTp0E18qeO4/6S2odr+zexfm8Ytab0orz5Y86sXcKms89IUbI53dqWJkP0r73VekfR+HtwZt8u3JPVppOy3ubhT7m4bR3bTt7A+1VKcpVrSKvGpcn0+m6NEvyAs/t3c8TtXx76veQHy+zkLlgWW4dK5EplmiaGd9wHQgghhBBCCCGEEOKrJ1EfIbSe7HY+iq/pto1F7ro0KJtwoDrIfTldHRwZf+QF6ayKUygH3Ny9kLEda2Pbai4XXkS0otbx0u8Jjx49JTBcvwAd2hBfHns+Ul5P8AuNda8oyJ2VnWrTdOwRXqSzpljh7HBjN4tGd6RujdbMO/8issV3mNclts/oS5OK/6Ne18lsOHAVrzAPnHs0os2o5ezct5t147owbk+A6RvvsN5hj7m4bS7D29Wmwq/VaT1wNi7X/FE/PcYUJweaKZ83uBzg8L4tLB7WgsYDXHgaZ8NxDU+PTKN1rUaMOx5GnuqNadncAauQEywa0gb76s2ZfcY3Ziv2d9gHQgghhBBCCCGEEOLbIS2rxbftTS2rA26wbWIfRq2/TpB+krSl6bdyKR0KJzNN8DrNw410rT+RoPbrWdyhAElNw4POT6Bxs0XceKUiU91ZbPvTHsuI20EaD+Y3qMW0yxoyOC7l6OTKvBYO1zzEuVMDJge1Z+2y9uSPmjETGzqx5N9XqDLVYcbOP7HLAL6XDnD81h2Ozp/B3ruvIPH/6ND1R7wTVaFyUlcW/LmF6yFZcVq+l1EVkr3beoff4szxRwTcWsWo6Ud5pjUnl2MvyntdRFexEfZVfiWn2S12ThjApH2eqM1z0nbjPv4oGb15tRafg8No2s2FtF1WsbxnUZKbxqC+zBTbhiy8pcHMsjYz9s3APp2ys95pH8i9NiGEEEIIIYQQQohviUR7xHfkJU8uH2afyzY2LJnB2F7NqVXRgf7rrhOkSkmu6j2Yt2NFgoFqtL7snTSF45YtGNw6KuCrl6JEO1qV14djtTzdsxjn2/ruFN+WFt/dk5l6LD1OQ1pFBWn1UpSgXZvyhkCv9ulelmy8jUY5dNMVq0V9x470qF8AC/10ry5xTtuckV1qY9dmMttcD+NyYAfDKyjb867r/UNeytSsRM12TSmXRt9FpYbHF+9TfOxiRrS1o2SO9KTLXoZWo7pQLoV+9EPOunqg1s/QROu3nwlDN/Aga2MGdowWqNazyEdh65SGzi91z6/x9z39N991HwghhBBCCCGEEEKIb4kEq8X3QxvI1d2rWLNuFYtnzGLF9lPc9tOQsnQPVhw9zb7Fvan2c8LpP7RPduN82I9UWVPhc/4Up09Fe525TnjKNMaD6tU/nDv33PCdt6J9wp6Nh3mROiupfM7HnO+pM1wPS4ExVfMr/j17nueReTDM+DFtGkPQl0QlcGxbIjIobJ46B1a50qDPiP3e661KScoU+jHmZK3ejBrZDGHxSKp01lhl1g/T8OzJk2gBZA33nJeyz8uMbJVqUOgH0+BIyag6YDZDOrWhw7CxtCmW+AP2gRBCCCGEEEIIIYT4FkgaEPFtizMNiAWPd/Wlaa/tPNI36LXIToPZzkywzfDGuzdBO7tSocdeLApUoGT21yKw0ViQvfZgBjlkNX58UxqQIBe6l+3BPvMCVPj159dThERj8XNtBg1yIIupX8YX61tRdvAJwhNXZdJfS2igb+kcy3uvd/hZxlR3YuV9yNNpEzsHFSNGP4qa+yxqVI3Jf2lIXW8+p2fUNK679jErnSoz5oyO8mNPs6x5+jffGfuAfSCEEEIIIYQQQgghvn4SrBbftnhzVgdxcZoTbWdfIVj5ZJamLIPWL+N3q4RCpBpuza5P7WnXKdB7F5t75jem33gbbwhWa27NoaHtNP4p0Iud23uS761n/DbB6g9Y77cIVi92rMaki7GC1WGuDK3Umg1PLKg46RxLG6c2TJ6QD9kHQgghhBBCCCGEEOLr98bGjkJ8m1JQoucshtYwtqbWvTjNtO7jOe6bUG4JDcHBIejQ4v04esqLD6cJCiZUB1rvJzyJnvj5o/h06x0vbSBBwfp9qcXP2/utlvlp94EQQgghhBBCCCGE+NJJsFp8v/TpPyZPo2V+Yxvn8NtrGDhgA3fjDZSakyJ5MszQ4nPRjevhpsEfgXmK5CQ1A63PBdw+5owNPt16x0uVkhTJ9MWLmjtX3AkwDo1HMP7+6k+8D4QQQgghhBBCCCHEl06C1eK7pkpTnv6zBlAurb6LQi0+h8fSe9pZAo2jYzHnp9zZSa5MqrmznTWHfZVvxE19fRmztnubPr2ZeeZcZDfM+C47Vx0m3gbe6ussn7Ed73fqXPDTrXe8EuUmb05jHo+gU1txeRh/2+qwc3MYu+H+J94HQgghhBBCCCGEEOJLJ8Fq8c2LkZQ9jhTtSfK3ZurERmRPpP8UytVFvRm8+T5xNbBOWrIcxfU5obVe7Bo7EpeHcUwV7oHzjCNoc6c1DTCKWLIu5hoZJf2FsiUMM8bLZRyjdz6MY/nh3Nkwg6Pa3KSNduRGbVIc8zV5//VW1tY02zdmt48+XpWRCpUKG/NXB7sxb+QGPOJqLB10iUWzPShYK8cH7QMhhBBCCCGEEEII8fWTcI/4toUHEvwyItoaQlCQ8W1MKixrjuDPHiVIqW9grXnCvmGdmXDc57UWyKoMtjjZZcFcea95tIvBTdsxfasbHn76SKyW4DtHmN+9PbNe1qS+dbQeAnXBhIYY3ij/D3m9ZbPKEtvmdmQ2zpjdA5rSYepWzt72wzDn4DscndudDjPDqNHQOloHicoyQ14a48SG7Yu7ufF7r7c2hJBQ/TyV9TbkvY5F2a7gUMMbwl6GRAsum5Oj4e/YZdIXMfoW66No2Wo8Wy8+Qj87bdgL7p5ezbCWndmVsxX1sytr9t77QAghhBBCCCGEEEJ8C8x0CtN7Ib45Lw4PpG57Zx4ZYrgW5G2/ns1DSpLcMDYWjSc7ejoyYJepE8Kkuak7ZBpDmxYhrT6AaqL1PsSIJl1ZH72psHlSUiXXEhwQhjZdBYauX0KrfIlNI5XvPF1Lu6pDORGsTJq3E867B1IkarSR1pvDw5rQfe0dQ3DWyJykqZKhDQ4kTJuO8iPWsah1PqK+GsD+XlXptt0HnVl66s47zDTbVKZxMb3Peqv/nUlDhxlcVUPiov3YsaUreaPvi6fraV/9D44HKrPK0ZpV+0ZQ6gfTSEOQeiQtuq3mliGgbaRKnJRE2lDC1GakKNKFxav68Utq08j32gdCCCGEEEIIIYQQ4ltgPlJhei/ENyIM9/XjmTl3LlMXHOJRZNRTy/NL+9h39jo3boaQuYw1ltGfLVClokC5grw8uZuLz9Sg9uPGkU1s3HWG66FZKV8yqyGthVnyXPyvqg26O3/x9/0AY2tinZqwMDPS2PzGH3Mn0dwqmX6oIb/y1glTmDJlGSefvTIM0j3/m5Nnb3HvXhiZSxUgfcQ6mCUnV8WqWOvucOnKAwKMM0YdFo5ZGhvqDZ3LxJZWGOes4d7emUyaNJkl+x8QarjlFMLt08e5fseD+9qclMiTOsajE++23v+ybcJYxk/fyKUXhinRPP2LY243eRCeiV9/8mD1lFnM+XMlrk+NO1j34iqurv/y2CInFW0slSFmJMtVkZolkvLk7yvc8Q03tMzWadRozNJSqOlo5k9vR5GIQLXeO+0DIYQQQgghhBBCCPEtkZbVQrw3NS9uneOM+z38VZbktimMTd6MJPsIyXXUL25x/rQ79/1VpM9tQ6GCecn4MWZs8OnWO17aEB5dOsWF2968SpkDm6JFyJc5uSEtSXw+7T4QQgghhBBCCCGEEF8aCVYLIYQQQgghhBBCCCGE+OykmaIQQgghhBBCCCGEEEKIz06C1UIIIYQQQgghhBBCCCE+O0kDIoQQQgghhBBCCCGE+KJpfY4xZ9hCjtz1I0wbFc40s8hJ45lzaZU3oZ6xXhfuPp/Og7bzWGMaYGZOMstc5MlTnkkjm5gGiv+aBKuFEEIIIYQQQgghhBBfAQ1+V9YzvOso9j5Um4apyNxkKXsmViKFacibvWBvz+r02OGDMTCaiHytl7F6eHnSSR6Kz0p2vxBCCCGEEEIIIYQQ4itgTtrCzRjeuSxJTUNAy+Pdy9nhqTV9fjPNnU2s2h8RqFaY56ByvdKfNFAdcnEbu25FBNhFfCRYLYQQQgghhBBCCCGE+EqoSJXjZ360sCRTRgvjoMDTrF7tTpjx0xuEcn7VOi6n+okMEZFRs1Sk+dHM9OET0Hqzb/ESLnpH5BwR8ZFgtRBCCCGEEEIIIYQQ4qthpjJHZf4zdZtXJLUhxqzGY/NSDvq+uXW19tluVm5/RjGnRhQwxbqVOZr+/ylo8T06jTlH/KNacot4SbBaCCGEEEIIIYQQQgjxlTEjTa221P3Z2LGizvcgKzbcJuG2y2purl/JiUQ1aFk/838SGA28vJR+gzfzQDKAvBUJVgshhBBCCCGEEEIIIb4+SUrSwqkEPxg+hHNl3QpOBhk+xC3oBCs33CSHY2uqpHr31tRhz9zZs3giQ3p2omOH7gwcNZtNp+4R5yLDPDm5oCdNWk7A9ZkGdMHcPryWVStXsmrVWo7fiS+sHsYz990snTCYPp3a07lbf8bMdub0vYQ2TKH24dru+QztNoOTocrn8MecWT5amUc3hi9x49nbp/T+rCRYLYQQQgghhBBCiK+O1msPU6cd5C2e+v8OqPG9upv5Q4ex7ro03xTfE3NyOraihqUx8Kx9tIsV2zyJu1jQ4rl1BXuDy9DCqRCJTUPfitaXcwu7ULd2f3Y+TUPBcpUonS8Jd/fMYbBTTWo1ncjBhzGPPa2/J57qPNg6/o+fDBFYLeFBgQQGBBDoH0io+vWkIFrfsyzu7MBv/XbwNG1BylYqQ94f7rJv9kBa1qhO8wkHlHmaJjYJ87rE9hl9aVLxf9TrOpkNB67iFeaBc49GtBm1nJ37drNuXBfG7QkwfePLJsFqIYQQQgghhBBCfGXU3Fg3j6WLFrDZ4zvusEztw1WXOQxsXInKtbsxbd1Rbr6QDtzEdyZNNVo3yocx/XQgZ1auwT2unhbD3Vm3+iypHdpQO/M7hES13hwe4UT7uV7Yzd/KgmGdaOrYhDb9prLeZQm/F0zE0zML6dG0Lzs9o44/VYbSNOnWnc5NfzV25GiWEuu6nejavbvy6kStfJEJsw20zw4xqtnvzPOyZ862RQzp5ETDJm3pM3Uj25e2o2Cip7gt7Ebzvjt4FLkYLUGPvdBmzo1lYrUpJ/YrPFbO4XzhQUwf0QjrVMrCzVOSJnXM5X2pJFgtxNdGKSRPze5B69b9WH7RP567hW+mfXaSuT1a0rbfMi76S1MEIcS3Tk1oUCjhpk9CCCGE+MoFn2TNpn94FebOpvUXiCsu9T1Q3/2L856vCA/0J1R6bhPfrcQUdGpB2ZTGT2qPzSzf7/tavMTvwDK2PLSmcetyJDcNezMN9zcOYvCa2/zUZAgdi6cwDTcyz1CB/jN68qsyw1eeLowcuoGH73O/SHMf50GDWHf7JxoP6UyxGIsxx7LCQKb1LKWs9ys8dw5n2IaHptzcKtIVq0V9x470qF/AGLB/dYlz2uaM7FIbuzaT2eZ6GJcDOxheIZnhG186CVYL8ZXReGxg6kwXTh7bwpRpO/B+rzizBo+NU5i905UTmycxY4f3ewe9hRBvprm3lh52NbGt8SGv2gzf+4YcZSJeYa4jsK01jvMvTQOEEEII8RXT8mzXGvY80V/FaLi/Yw0H/YxjPrWQi9vYdevLSbNhkbcGbTr3Zlyvmvz47ul3hfhmqLLUo5VDFmOgU+fLoeUbifHQhcaDzSsOo6vUisZ53qGFsf8xFsw+xnNVLqraFSSJaXB0Fnma0c4+o7JsHQGui1lx4d1vnwUcm8fcY76oclXDtlCcSyG3U3tsMypbqAvg1KLlXIyxGDN+TJtG+VeRqASObUtEBuTNU+fAKlcajN1QfvkkWC3EV8Y8Q0EKZtVnVkpKriJWpHmvo9icjDYFyWKYTW4KW6WRwkCIT0jz/AH/3riJx1M1lla/UrGGLXYODjjUVl52Vpjfv8mtm8rr9nN+LGVnHF7bHrta1ShXOBM8u6OMv8EtzxdyY+m9hHJ2z3HMKttS0tjzihBCCCG+ZupbbFrrSqCpJbHO9zDrt943tTL8hLTe7Fu8hIven3xJ7yxxpoz8+LVEooT4JJJTrk1TIuK84e7rWOkabPygCD27ig3umaj7uy3p3iEAEnB8Gwf0N8YS5yRf3viyXCenTPXypNVHijWenDxy/R2f6AzgxNb9PNUvJld+8sS7mLJUq/CjISCt8TzB0WvRl6LC3NzMGKzGXHlvePNVkviUEF+b1JUZtesIew4eZdPAX+K8q2cQcpHtLreI755/qipj2HF0P/uObaH/L/HORQjxEehCgniZ9n8M2byLVTPHMKhfL7r30OcpU14dq5ErojJiloYi9Tubcpj1oHuf/gydupLdh1fTqWhSggICJFj9PkLPsf+EOf+zLRl/mSne3RvOM0IIIcSnEnJ2DZtvZKN0aX1LRr1QLq7fwJVPmu9Li+/Racw54m/KCfuFsbAgkemtEN8rizyNaVklrTFgq33ErmXbeKS/gNI+Y/eyHfiUbE7z4u9yRRDGtfPuhhtjZklTkCyBAHASG2vyGhpsa3hy/wGvDEPfUtg1LrgHKmWLGUmTJzPl3o5LEqyt8xjHa55w/8E7LeWrIcFqIb5CqhRZyJc3I0lNn1+nxWfPYpad906gdYGKFFnykSdj/HMRQnwkQeHkbDEIp3zvd7yp0pWma986pAoK+PQthr5BoW57OWFekVolJFT98bzNeUYIIYT4BPStm1ftwq9Ua8YPaUwBU4RWfWcr644GGD98AoGXl9Jv8GYeyF1aIb5cqvTUalufHKagctDpVay9HIb633Wscf2BGq0bkP2dWhxr8fXxMzQY0r0M4WUCd6pUaS1JE61FtLGF81vS+uDjZ1gKL0NeGpYXNxVp06clajHvtJSvhgSrhfgGaX2PMn3WUfylgw0hvgxpimJbNW8Cd8jfLGnxmlTNkeQbrY58SiG47XUlcSVb3qkRhUiQnGfEJ6e+zpYx/ene/DccasaVx78mdrXsqFunIc3b9WHsnI0cu+EX4+aJ1teVBf1+x9GuVqzv1qJe0y5M2+tpmD7g9EL6tfwN+9eWY5xu+v7HsS4aQ7m0Zji9W9TFLmLamvY07jgXt2B9y8sZdGtaJ9b8alG70wpuvfPdnXCuzGuDQ+R8lO22/Y1WXfszesPfpmmE+L5oPDaz/ngSajSvw882jWlaztSjmvYZB9bs5HH8UZ44BPPAbSsLxw2kd6cOdO45hImz13HcI1rQO8yTkwt60qTlBFyfKQexLpjbh9eyauVKVq1ay/E7yjCtL5d3rjYOM71Wb3DlQeQxr+Hu0bWsjj5+7THuxlkmaAn0cGXTnHEMHdCPfl070rlLP0bNWM+Zh99rN5JCvL0kxVvS/FdTR4Lq22xeuo2dyzdyM1cjWlVNbRz+1lQkS5HUeA0W/ogHngmdyCNSb5iTIVvWd7v2M0tG8qTGK73wR/dJcDEW5sZgrnlGsmX7kCvML5cEq4X41gRcZlnvP9git/yF+GIkKe1Ek4IfWJFIXp62rYpFu4su3krIGfa7JqaibXFJAfKxyHlG/BcsrGkwbAqzVy6i/y9q7urz+hty+weRvkxtmnXoRtdOrahbIQfaf/ayYuog2tlWxL7TfM7og0kKVboKdJq6iPkDSsE90/eV152wkvRbOI++tlkNHQ2lKtuRqUvm0L3Iq6jlKC/PVLWZuGwefWpmjnXRlJRizUfz56Kx1Eh8V5n2HpTszcx5XSmdXEW6yr2Ys2YlE5vn4eWdiPnd4J8DS1hx4h07yn1xiBXLj/NvxHrdNaP0kMUsnzuF4U0KmSYS4nsSxoW1zlzL3oDmlVIpB3pmHJrXQt/fmF7wmXU4X3+785Pm6VGmt7ClyZjjhOWphmMrJ+ytQzixYCi/16pBy5lu+GpB6++JpzoPto7/4yfDcrSEBwUSGBBAoH8goWqdsh4pyGJdhAKWgZxcOIbRI0YyesJW/o18Qt+MdHmKYZUxhNOLjeNHjVO2I3baEq0XxyY0obrdYI6ktKf3+KlMnf0ng39LzaVFf9DSvimz/woxTSyEiJP5z/zWxtZULuh4vn80I3YGU1Y5xq3f+ZIsEfmt8xhT7Kg9uHjeN95Wz9pAb3xDlTeqjJSpWPDdrtsS58c6r/ExEbXHRS7qC584aQn09kXfZ7wqYxn+Z/NtXh2aj1SY3gvxXdP438Ft5xq23EhDSav0qDQ+XD+0jY2rl7NiwwEu3g0ldc48ZFIuQhIU9owr+9ezYtkq1m3YygHXS9zxsyBDjp9jPBISW+jDk2xZsZK1q9ayed8ZbnqFEObnwb/P05Arc/IYrSk1/rc5uX01u+5moET+tKYLqDAeuS5hRI8/WH7R+JiKefLUJAu+xxX3K1z3S4l1zohp9TT433JlxxoX7mUoSb608W1XGM/c97Nh+XLWrN3I9n2uXPJ4QaKM2cmW0AZp/PE4tYO1O++SoWR+0qrCeXphC4tnL2DVhp2cuPaCVHkLkDXFOz2DI8S3R32TvYv3ckt/saL6kRKOTpT76R2Pi/csd9Q+19i3YiZzTiamUpns6B6fZs2f01jkfBKvHwtSJFvMskcv+IEbu9asYNUapazacZSzf98jJE0OclmqubF5KouuZqFcwR8NZY3W9xK7Nx/A7bI77u761xX+DUyLVfbUxrJIc4fj6104cely5PjXy6ooIQ/OsGPVMlasWsemncp8rz9Fkz43OdPH3+I85Ph8xp3OR5cBVckaR+VUvz27161Utmcdm7cfwu3KLZ5p0pM954/G4La+pZTLFg64RayjO1f+DSStVXZSGzeCu0fXs+vEpajx+vLNJodS7unHR6P24drelcyadYrElUvzs+4xZ1b9yZ8LN3Hq6Y/YFM1K8ogNeZdp9UIecGbbKpYvX836jTs4eOY6Xsp25MqVniRx7ByNvwend6zGJeI8Ev6Ui5sXMW/hCjbuPK78HVKRxyorMYvodz3PCPERqJKTOcV9dm69bGzJn6gUPdaMpUmR/OQrUJBi5WrQoHEV0t46ykkPX3xvn2L34afkqVmVPCn0P34VyX4uTKp/N3Hglv7STvndZqtKuxalY3auZJ6KXEVTcN35IHcMDRdVpPtfe3rZ5oi/ZVSi5Hi7ruTQy7pMnNeBgtEzPamSkrHQr/zw1xqO3DcFznSB3PfLTO26yvrEV2jFoJQvq4Yzdv+jyNzw5rkbMWxQDVPATIjvj9Z3N5OH7iJdh4m0L57KcM5JkjUj/gc2c95HH1l+zkNNURpXz5lgoEjrfZARTbuyybwlS9aPpG6x3GTLloN8JatRMGgvW84+4MHZ4zzN2wDbYvko+GspSmR5zJ61p/EiPVX/mM2AhmX5tVRJ8hgKEwuS/5iRLHmLkz/oMBvdnqH7oQD27WuR21CImJEktSWZ8xQjr/8hnM96o02Ul1od7ckXmWhay7MtfWk10ZUAq/bMHl/XWHcxS0Tq3MVIcW0t+6/e5+qL3DSpbUXsPqO13m5sXH8Wb10qCtdvRaVvtMWlEBHUD4+xZrs3hVo2pISxYh4pSfYsBB7axDlvfbmgRvtTQ0aMqUv22AVD2FV2LD7Eff19blVmyreKPS8zUliGcXHTUR6Ev+JZUEbs6xcnTRzn4eATK5nu8i/aIh0Y16cs6aNNo/O7wOY1p3iqS0nB31pR+edYx6dZCixfXmTz0fuEv3pGUAYH6pVIE0e9OpiTK6ax618thTtMoFe59DGmCf17O8sO30djnpPqHetinVBB+AWLY/cK8R15+YgLW+cyvF1t/leqGi0HzGDbJV9ePTvOlCa21O8wlBkrtnNg3zZWTetNEzsnpp/0iedOmhbfswvpZl+HgdufkLZQOSqWyU+SO3uYO7A5dtWaMumAZxwdUSnfOzkJJ8fxXExRiobdetLWLidem4fQvm0Ppu57YPyO1ocr2+cy7HcHKvxag7aDZuNyzd/w+KqBNoCHDzXksXOkQmbjoa0NCzbe8de/XqoNHYFofdzZMWcIHezLUrZGa4bM2sl1/7ifMdH6nmVxZwd+67eDp2kLUrZSGfL+cJd9swfSskZ1mk84gGeMDQrj8YVtzBvannplSlGrxSDm7LiO/6unHJ/UnDqNBzJ3/S4OHtrP1oXDaNVwILv03d0KId7T+5Q7YXj9tY1ZfRypUqE2PSav4+BVL8Jub6RXw1aMWbaDA7vXMqHLGPb6m76ip37E4SktsKs/iuOvClCrVTe6ta9DsR8uM6tJJcqVKk+9/stxvRuVV1uVPCtWRQtgGeDK4tEjDa2IJm/5J2p9zNKTu6gVmYJPsdQwfgQTnK/F0XN2EFeWd6ZuozEcfZEOq+KFyM5Ndi8YQxcHpTycc54XcRYlwZza68oPlWtRNHazas1Tjk1tiUPDMZwIy0vVxq1pZm9F6ImFDGtjSy2nmbjpWzR8hJZSYV6X2D6jL00q/o96XSez4cBVvMI8cO7RiDajlrNz327WjevCuD0B7zRthCD35XR1cGT8kReksypOoRxwc/dCxnasjW2ruVyI2Dlhj7m4zXjOq/BrdVoPNJ5H1E+PMcXJgWbK5w0uBzi8bwuLh7Wg8QAXQ4/kkd7yPCPEx2aeJg0pEwruprCmxdTR1Df9LsPvbGL4aBf016cGqnRUa1idDKYrH/UtN07re/WPRWVpS1P7iFbUSvn6z1WUn3z8Qtw4eTGM/PVbUD6up4pVqcj+849YWGYio+maNOj0StZcfsvH+EPPs3rdJVL9lCHyos0sVVrSvlWgW4hvkYb7W9Zy3EK5DqlrfDLCIHFBHJuVJrnhg5ane9ey59nrx3gkrR8Hxg3D+X4WGv/RiSLGL5pYkLewtbHM0flxzf2ecfBbU5E2bep4b6Lrx6dOmzKe8a+4evaS4cacWdKkmDICmPxA5iyWhrIg1OMm9z5pR5JCfCWCggjWBBOk7/0wNgsrmrasaLo5nJjCTVtTJsaxbqQNCCQk8utxz0uVtSE9WtsY+gwLPb+E6S6x04MptJ7scj7Ci2RFaD+sDfljx6JTJjce09rnPLjzwvR9LX5/u3HNUFdXkaVhL1rZGJbChSVT2R1HTiOtpwubjviRrEhHhrQtEOuGupbgkJfG+rguRNk9CZSDX7iIeo8Q36lQXiXLR6liP6EKNxZKurArzPq9H7u1JXHsOZiB3ZpSvWAGw2Mfap9zzO/Sk1W3YoectXgfGkGLtnN55jCfTYuH0cGpEY1/78tkZxcWtS9IoqduLO7alP7bjfkRI708x9whywhrMIkJv9eghLUNv9q2Z9K6+bTIFb3o0ZEogw3lS2Ujsf5Rs9hUlpRu1pWuyjJ+MVyNmZHSpg4dunena/dudLDNZyzIdInIYFOBX7MlJq7ZRNA+O8SoZr8zz8ueOdsWMaSTEw2btKXP1I1sX9qOgome4rawG8377uBRtA0KDk+OTbmipFcqW8ZC8jmnJgxkVXAtRm04ytmLx1g9rKahlYBaKWhnLPkrjsCUEOLN3rPc0QbxxEtD5tyWUWXJKw9WzzlH4UEzGOaoXKApRYh5yjSkjmjpo1EqX/2b0X1lIHUXbGRmr4ZULFGIgiUqUb/3HJYN+YVXPoExyza9HyzJXbgUtp3742gVq8amp0pFVptfqNGhD/ULxDHeQMPDjX3oONOfxiu3MHdYN9r83p0hC7ewpH0BEqm9ODm9B6P2epsqfdEEneLAyWRUsi0aMwWI1ptDw5zoujKY+ouc+bOXI9XKluZ/dToyaVIL8pi/wuvUTHqN2oOvNgmWeQrzq10n+jW2iqOFpYpU2awpWas9vRvErjDqaQl67IU2c24sE0cEc1/hsXIO5wsPYvqIRlinMuxw0qRWvcO0xiVpHm6kX7tZ+DdZgfOCYXT9vS1dhy1k07L25E+kxst1Or1G7DUG7XTBhCezoVxRS2W2xrlrn59i0sCVhNiOZu2x85w9vo4htfQ59tQ8cvmTZX9FK6Hf9jwjxMdmZpZA4Mck9f9oaJ/dFLzS4Xt4Q4yLvGRl61DNFMwm7BIH9sWqjxkko3RDB3KaImDq6wfY7/H6VBGCTu7jREBR6jTIH89v3wyVSoXq53o0q2gKXqk92LL0gCG1QMKUMn73MnY+K07TRtHKljfuCCG+YWF/sX6DO1nqt6BSjBtEKrLWbU510x0pXYAr6zbeiqORkJHmrjPL9nph9nMlqhd+PUlYsur9mTmsE606DWV0u2KmoW/PTCmz3k8iClZzoFjOvJSr+guWpiLLSEXSpD8Yi4BX4XL9JATBXHG7jL/6ARfPxtUoUEXG2m2ok80csx+r0rJx7qgbXJGUc+35C3hEfFl9n4tn7scxryQU6z6DEfbZSKz1Yu/wzozf/5DIW89aX87P7s/0C5lxnDKHbiVej4qr0lhRIKt+DV5yZlZvJq/Zxqa5A+i58A4p9Bdfej8Uo+vMUdhlS4zWaw8jOo3lQLQ89Vrfc8ztP5ULmZswcU53ir+2mCCuXb1jXH/1ba5cesfUY1+QGMWfEN+dH/JQplZ17Nu3p5ahS1gtvvs3c9dhITs2zWd07w607zee+Tt2Mb9VAcOjVrqAM8yZ5hLjIkNzfyN/DFyLx09NGdS5GClMww3MLSk/cAbdSyklyStPdg0finO0Zjrh149xylNDWGhozIum1OXo2qMaaUwf9UECq7KVqNm2Ew7GZ8nei8rSmjKVa9G6c21ixMKj09zHedAg1t3+icZDOlMs5gZhWWEg03qWIjmv8Nw5nGEbHprWPQl5y9agom07mlRIY6hMaR5d4EGJsSwc3RbbX3KQLl12yrQZRacK+plq8Dxzkjvx1SSFEPF673JHlY6itg1p2KkXv5kCxK8uu6FtMZpOdexpNXknx47sZu/OkZQ39Eui4d7aIYzY/ohsTYfRtWQqw3eimJPVvg76RcVL9SNpUydw4aZKQ5p4nonX+u5h6uRjpG8xhJYFoj9jn4Li7VtTTr9c7VP2LdrI7VgxJX0g6XSyytSK0axai9/+8YzYcJ8sTQbToWjMFbfIVwQrY3Mq/K5e4V5k+fS+LaVUpCtWi/qOHelR3xRwenWJc9rmjOxSG7s2k9nmehiXAzsYrpSLbz+t8sdRKsZ7J03huGULBrcuYGjtESFFiXa0Km/YOTzdsxhn/c75IS9lairnkXZNKZdGv6YaHl+8T/GxixnR1o6SOdKTLnsZWo3qQjlDEf2Qs64e8V7sC/FlSUyePBHBasWrB3jci3wEQvn9/0KdWhHjw7i02yXOjs0SF/4NByvTnbpX19i17e94gkIBnNh1lOBittgqF8IJMktLjd/r8bNhMh3PDy0zHpMJUd9gw4oTJKrRit+yvGH+QnwnXhxczQ6v4jRpVvj1FB+pK9O8fm7TjZ1wrjuv5bw+d+xrtHi5HuNqmHKGzpqLnHFdD1lkoVzbgQwb1JoyEcmw/xMqMtQcgfPRAyzpWCTqRnuoJ+e3zmPJ4bhusgnxfdH6nWHF6MH0bFqb9ss8lGMiGLfxjajfth8jZx+I1qmpIlkpWjiVxLpBW2pGz8mhnGN3TBlK/3b1qD94P89N7XfQd8w+sTH12vRl+ITNpmEmiXPTcKYzSwbVxsr8Ois61qBq7VZ0bt+M2uVrMehsAQau38Bou3g6VkxcnOadqhietNJ4n2HJ0AFMc81C51FNMISiTBLnbsT0TcsYUMcKi+vL6VK9EvVadqRTUzsq1hrAufyDWbtxjFL3iL4U5Xpt758MbteEoS4+xgYvOh92/dGEzgNGM3f/g6+u7JBgtRB65j+S1hAoUZGm5h9M71jclIvUxNySSoPG0jyvvkDQ8eLYFvZGPloWwPG5czjuqyJXdVsKvn5zXqnw5KZpBztDgn9dwEmWLLsQeRdOF/aScJ2G+87jmH7kaYygQNrydamd35TbNYLZj6R51w5s42D2Y1rim03AsXnMPeaLKlc1bAvFuUHkdmqPrXGDOLVoORdjPNFqRsqUKQzrbZ61Bk1rZYtZYKvSYW2V2TBM8+wJTyQSIsQ7+rByx8AsLWkNAUtIVKIJrSNbAJiTOoc1OdOYak3Bp1m66CT+5vmoVS/ahVN0P2QiY1yJ26J5v0ZGWp7u3sgRv9RkTeXDhVOnOB3t5XY9nBSm5b769ywXYjRVDOLUvlMkq2pL4ehXtJq7bF6yFy+zn6lYo/Dr25OsGv3mDKVDm078MfZ3ikX77vu3lNIz48e0xpt4yg7HsW0J0+PKyh5PnQOrXGmigmxvOa32yW6cD/uRKmsqfM7H3Denz1wnPKUpz92rfzh37rn+nZEqJSlTGEposlZvRo1YOS1V6ayxymwooXn25IlcGIuvhJawsHDjBZqeKgWpU0YP8iamSF07U+5Y5bC4uptd/8ZVAdGg1kbMRYPHrq1cNKa6jsnvCLuPh1HCvtZb5Y9OUrIlTUuYMsyGXWH98pNKKRW/oBMrcL6Zk4ZtqhL7FqEQ3yXNfbatPcRzHrC5R0Ma1Pst1qsxow/5Gc+d+sk9XVi9L670ja+4c9PYctLMwgKLtzh+P5ewp+dxntiJevadWHo9FUVsLKPVFYT4PqnSlqH18AnMXH+Ey3fvcvue8rp9np3LpjKyew3TjeEI5uTuuIEdQ0rGrPNb5Kdu/7FMWbKTUzdM84h43b7AruXTGD24oWniaCwyUbbTLHa6nWLHiin0alydyvZtGLHuMAfXjaBBwVixmxjMyd54PjtdljFtyjTmbtivfKc3ZWJ0oGFkkakcHWbt5uTpXSyd2gfH6lWwazuK1YePsHpkQ2xi5efWzzuHbW8mLNnDeY+obblxaQ/zJw+na82fv7qy4wsumoX4b0XEICyS/BD3gZy0KI3rFzL2Aht2lYuXTGEf/+Ns3/9EqQglJkf+vK/f5TdJXrY65X7UL0SDp+tRrpua6SSxLktJSxW6wCss7eBAo/6LOf7A2AxAlb46rRrmiRnoVVZU9UEBEyMzM1XkNscUwImt+w15ShPnyk+e+DeIahV+NFQINZ4nOBqrK+uEgzpmpE5lagcaHq5UGYUQ7+QDyx0DlQUqlek4VZnHW4EJO7ebI4+1mKWyomB8T3Uo5Ym5eULH/PsK4S+3K4TqNDw4uY7Vq1bFfK07SVjBalSvWYPqVa1IbUrnZBDgyv5TKahiG7P1ldbLlePG5lTkjLs5FZnLt2XAiIG0KpvxI1aUjPvIuJeU/Z1gjfHtpg25eJa/Q3VoH7iyIfa+WbWOU2E2VNXvm5rVsEoT/VaFMu+E/lxmaYgqoqWEFl+LQC5cuBF501+VsSSlYyWMtLCqg721qdW0vnPbHa+3mg7/eyf7bkIi01e1j/azzTV2WFmLz8HdnNaWwrZGVD7pBJnnomHrmlgajj0tj3ctY4fn62E0A60n25fvJahsC5oWiq+EF+L7Eu6+no0Xf6Rap560dnKiWRwvp459aFUmlfH8qXvB8bVbuPfaHVctgUFByr/Ku+c+eH+Jd2QD/mH7uFbYOQziaOLaTN62kwVDm/NLpjibDAgh/mtJMmBTyYGGzZvjWK86JXMYO3t9M3PSWVWmbqP61Cydy5B6MSFJMthQ0aERzVo0pk71X8ihTwf4nfh+tlSID2ZOluJFyawPGuhC8PYydm4Vdu08V/RJ+M2SkiJZPIEcvSQ2WBtaZoPm8T0eRlz/p67GgAmtsNY/dq725e9N4/m9ejWaj9rMNf94LmI+pbBrXHAPRKdU85ImTxYzUB5DEqytTYF0zRPuP3jHgMZHCLgL8b364HLnram5e/mqIe2RKnVafvyvaw36ssUzVCl+s1Drj7nMX7gw/te8P7A35IEzCjy5l9OpqlAjVqDnlcct7uv3g5k5Fom+5mqQhif3PQnVn5ts/2B2XPsk8jWXQQ5ZTd97O1JEi69N0IWFLNzva2xZbZaash3bU8bUkDmSRW7sHYqabmBpuLdvB3/FeOQkjEs79vGwQBu6Vk9rDHhpvTm89TB+hvEmyrCDu90wK2tP1eiPFb9BmmptaJDPVGYHnmb1aveYT7yYhLuvZe3ZVNi3qUtEmm0hvm8BHFu9jYdWTejd2ZEGjRrG82pKz+51icjME3bJmQ0RDYwiqUiZIrkhEKL2cOdKVH/FcQr2f8MEH1m4xxb61qvPwJ2JaLlyB/P72JPvtVaUQgjxbZNST4h3YG5piaGRosLCwlgL0vr44KePKeteEhKaQHBZlZb0aaIFTSIDASosqwxn/dZZtC+fxfh4Sthj3Jb3x9GhMyuv/MdJ8bU++Bg3iJchLw2tDuKmIm36tNFaLEpkQ4j/yoeXO29Lg6+vn6Ec0KnVEX3y/Xc0QQTru+fWevPk8bs0fQrgxN4zpK5iS+xGidrAQAwdY2v98Hn2NSe40BAcHKKU1Fq8H0uqDvEd0T7i8rHr+JjiT9qgB5xZM4RW7RZyTT9MlYZiHWcytXkOXn8owZyf7R0oaUrwrvHcz87TIcYPeqFuuBzwoqB9Y1o1rI6xrzYd/ie2sV//yJmJ9vE+dp+zoJxdFeJ4ejd+iQvRrGVZUx8Dajw2L+Xgaz0t+nFw2WYeWjelpSEpvxBC83A7aw6+pLyTI3kSuEevl7RUCxpGnPw1d9mx+hAvjJ9MEpErX05jg5ug02zbGdH3Thz0HeGPXm/68O50Os27nZ/V/7C4z1B23DGjdNfRtLCJ0SOJEEJ8NyRYLcS70OlMLXbSkClzSsMgVfLk/GAIAIXz6EHCnV6Ym5KimWfMRpZYFa3keR0YuEa5aJrfjUo/G5sChT08wPiOw9nnnUAw6mMzS0bypMaIVvij+3gmtEEW5sZCxDwj2WLlPBVCfDofq9x5MzMSWVgYYtxaX08exdlR0SdknpLkyZSla3246HY9nk7O4uB/nANn0lDZtuBrKVJUKZV56neJ2oO/39ycioAvNqe+OSmSJ1P+Nlp8LrrFTPEixLdMF8jNrSNpXqkkvxYvQpGiFWkxdB1XQn8kX8VmDFnlwppBFYmvwbPqJ1tqlzXW4dB6cWSnK4HGTwSfdOGIX1HsHHKQstxv1Ixonhl8hu07Izon0vBw7x4uJ6uIfeXIbrDfkorM9drikMW4cjrfg6zYoO8cKormtjOrDmmp2LrxG4NyQnwfwrm2YR0XUtvTzP4t0u6Y56ZR84oY+23W4XtwLTuidW6vPw4zVqiIsVueYM7OGYXz7bhOokFcWjiHuwVrmT7rRaTo0hGZ2v41KsxUpulCX+BnuEMenY7wcLXxmlITxstoi9bcO8Lhay+VWaQi68/p3rytCfiv2xcIIcTH9CHlnxDfJK02/sCw2usJhrhximKUKm7MGZYovzV5DdEQNXcunjc8Lh8nbSDePvoeelRkKFuRgqYIivbpKY5cDjZ+IDm5bfuyZNcWxtTOaQiyaJ7sZt1eb+Po/0Li/FjnNeZzVHtc5GL8G0Sgty+GLcpYhv/ZxA4JCSE+lQ8td96eBVmy/WSsLIRexvWUv2Ho+1Mu7rQJhdZjMf+JXDmSKxd8Gu5uX8WReDdUzT9LZ7DD1PGt//F9nElTlVpxbHCi3HnJYSjigji9ZScxrl9jCOP87DFsfD3Z5bu3lPokzPkpd3aSK1fDmjvbWXPYN94nYdTXlzFr+394HhHiUzIvgOMsZ/adOYvr0QPs3ruPPcdOceHKefasHEeb8lnj7gg2gsqSarXLkzoikHV0J8cMzS4DOO5yjJBfHaiVxRx+KMlvDrlN6dDCubxzO7f0N68099iz5zIpK9lR4X16PkxejpZNI3Lph3Nl3XJORlQDCeXcqvVcyVSPNrXSy4WaEAqt7wGWbvQge70mvN3DBiosa9SlgvEgh5DzrI+Vcsc8Z0Pa2mcyHGNa78OMdmrNxM0Xeax/Wk0bxos7p1kzpCXdXHLSokF245cUZimTY2jTo33OgzsvTOddLX5/u3HtRdRZOEWmTMZgudqdY4efRTs/B/HPhj8Ysv6OcZjmCQ89o+6K6169MtYvtL78dfqqUiJEUXudZf8545NUOrUynSEaHcSdW4/0bwy0wUHoH0hDF0ZotIdGhBDiayN1ICFi0BEcGBjPBb+ae+cu46VV8ZOtI9VMjWlUmatjVyql4e55yNmduDyIJ4QR8hfuN5XKSJLCNGlROvJCSvv0DGs2X4hRGSGVNU2nzqFDQf0lkpbn3r7G4SYRd8p18dwyj8g1qo1vAr3IcabW4hFUmalmX5oUhg06x84dES2JYgvh0qWbyl5JQqGmLSgVKy+kLtr8E/am8UJ8ByIPg1jHYzw+tNwxirakeBeqImPpUsbWfTpfDi1azlV97PtdqVSRHcO+9PMzpuGIThdOuCnHiDrsZbROV5NSslwJ9NemWi8Xxo/cycM4WjqHe2xk1hEduQ1JtV9wfO9Z0lWriXUcwXlVxgpUNDanIthtDmM2eMTZYjvorwXMvWNDjZwRiQTev6VUhKgiOd4dHultpk1ashzF9U8Ia73YNXYkLnHvHJxnHEGbO61pgJ7yOzPNNmo58Yhn/FudZ4T4pMxJkjojP+fNT74cmUmdYIQ6prRV6lI5nfFHrHvhyq4D3mj8DrPreDilHWqY0n9YYF2vDjYR/TH+48J293DUt3ex/9qPVLYvbyib3p0FeZq0okpa4/K1j3axYqunoe6pfaa83+FDiRYtKRY737YQ3yOtD8emTGe/j1KVSfz2B7n2lRqt6Tylv4bz2DCFNTeihatV6ag+eCzN8hlzAr3yOsOSfg35n40VhawKUrKKE6N2aGkwvi9lo92UUqWxooChf4yXnJnVm8lrtrFp7gB6LrxDimg9pSUpWZ2KGZXPugCOjGxGu8GTmDqqN23sa9HbtRjdmuUzpilS/8uqvl34Y9hUdt1WY5GzFMV/0s9Hza3l3ek0bjW79m5jxdR+tB94kHSFcxm+p/U6xfrFy5gxYCBr/omoj2h44n6Np4Zo9gtuXrunzEUIIb5OUSWqEEKhI/jqX1yP3Q+Hnv8pVm/5B61lVXp0r4TpAVLlKMpKg16tsdHXdULPs2zKLh6/Fu3W8sjFmaN+ySjccRitC0R/rlPD0/3r2WdqERgpSW6KWv+Iyiwp2XNnNg1UaAMJDNYHB3SEGvKVxmKW0pTGQ4vf/btE3OTX+v3N2atRGdu0QYEYZ/PSmBM2koosDXvRyrhBXFgyld2vbxBaTxc2HfEjWZGODGlbwNTyKIKOkJBQw4WXLtR0hz8GZT8r6254FxZKSDxxNiG+Cy8DCYoIbOpCCAx67YB53QeXOwptMCGhxmXpj9PXYq8mFgUa4FjaGBh/6T6PHr1XcSVa6yHCPTn85wz2JphTOgUZfzL2zq92P8qR6OVd0HU2Dh7MxjvGYdonD4lqZKTC0rY5dvpWjkpZ+dhlIM3bTWWbmwd++n2mbMPdI/Po2W4GL2s2wEq/iS+Os/9sOqrUsnktBYiBeU7q/25PJn0NSLkIPjLSibbjNnPxkb7M0hL24g5nVg2hTWcXcrZqQPaIWLXifVtKGWmVsvalscxW/s5B8e1wg7ebVpXBFie7LIYLV82jXQxu2o7pW93wMO4cgu8cYX739sx6WZP61tH+/toQU67zeM4jumCCDXdQdYS9DHn9YvctzzNCfLFSVaB21YymC6FAzrjs5Z99uzijqoBDdcvICyTzXHWoU9IUNda3qN5yCneXfdxU6oL2ZZMZh78HVXpbWjfIaQxW6Ze/ai3uYWpurF2F6w81adkgu2mcEN8v9Y2NDG5Uh24b7irnITVX57Wmaac/WHA0+vk3FvVtdk7oTasGQ9nnF3V20wW4MaVpfToOmM5e0xNTKuU4Hr5mGQPs85Ey4oDThhMapiNt4WZMdF5Fn19jPT6RuDjNO1Uho3JK1XifYcnQAUxzzULnUU1i1BdIXZW+49tSRN8xYuhdTqxfwIL159FVHsuymY5kN9wEsyB1ngrYOTjQqGt3HPQtA34oRdcxHSiWVpnZqyecWjyc3r2nciikPIPnjKTpb5UpqK/7qe+yZ946npQdwKA62Qhz38DYPs1pPfWs4alXZQJlf7WlRZ/ZHI2Wb18IIb4aOiGETqe+rZtXN48ud/Ycutw5CukaTTur89OYxukFXtOt6VBWV6BQPd2kE9666KOMwnQeG7vqKuU1fr/eqP26By9No5Spfc7O0DkVK6SzG7xb9/CVabDJq0sTdbVy5dL92mSG7oyX2jRU+Zb3Id3g/+XRWdeaqDsfbBqo0DxYqWtprSxHWVer2jN1N2LNT78u50dX1uXTb0uuX3ROY9fotm2Yq+vfrJtu/b2I+Wt0D1c21xXWT5M9n67ezH91sWcTdttZ1718PmV8Tl3R2qN0+6M2SKfxOaub1aS4rkjNP3R7Hry2AspG/aObZW/an3nr6ebejNouA80T3frWhYzjc1XSjToTNW8hvi8anfeuHrqyOY3HdO7seXQOUy7rQkxjE/b+5Y7Bi726PiVzGpabp2Qv3b4XpuFxCPt3qa5FUeO0+le+QhV1jVp30vXo0k7XpHIFXeOJ83QDyudWxuXW1Zzwl7Jmr/M/0E9XzrSdBSu11A2ZMEk3umdLXZ1y1XTd15/RLWmS1zh/ZVvs2g/UjZiyU3fbsN7KPjr4h656PuN3I9ehQGFd0Xz6ZebU/dJ8ue6GaaHPt3bUlawxSece1zZH0DzTHR5aQ1cw2vxyZ8+lsyqQX5df/z5HQd1vU87q/E2TR3pxQDegVC7j9AUq69oMmqibMrKXrrVdOV3NLut1boua6AoY5qWUmzXb6wYPnaJzuRWxIv66fT1L6vIY5l9S12fPa3OP5u2n1Tw7qBtaRV9W65dreuWy0hUrlN9wHshTvIVuRcTOMXn1zwxd3dzGaa3qztG9XkSv07UtaByfr+JInVuoaUSktznPCPHxqG/O0tUz/WZz522n2xKtXvS+Xp4eoaucK2Ke1XV1a1jpSvXapwswjTfS6J5taKsrop9GeeUp6qCrWz6vrvKIM7q3q7mE6dyGV9BZNVioux/r0FDfX6ZzsjItP0cJpRzcrJQv+XT2U668Vifz39BGZ2Vah/xxzEsI8SE0uuCHF3UHt23Qrd+4W3f62iNdUILHmFrnc/2IbrvzFt2+Mx66gNcvDCOpn/+jO7Z1nW791oM69ydRpUbITVfd/nMPdfEVZWHe/+pO7d6i277ntO7G8+glgkbn988R3c5t+3WXHsn1kxDi22Wm/8cUtxbi+6XxYH6DWky7rCV9ud8o5XOUcxZFKV88OynDHuF+8jy+OerRc1gvfrOKL0GhmqenljBx/CL2XfPDIlMhfimSiVcPr3E7OAd23f6gZwMb9DfYo1Nfnsxvv+8kROXHE93PlCpTjBwpA7h29ASe2RoxYtpgauo7L1RfZ8uEpew4vJ8z94JNLeESkaFYTRp1HEjvWlkNQ/Q09zfSzXEoB72M7eEsLEvRaeZcepRNh/baZiYt3c6R/ae5b2harUiUgaK1GtNhQE9qRHQmpFA/PcWy8eNZvOc6fhaZKPhrYTK9esi12yHksO/GoN71sYmxQWpubJ3MQue9HHDzNN3Zhx+y/kq1KnVoNagGIevmscP1BAdO3CGiAamFZRGq2TdnzsiGxgFCfOu0jzm2aDH7L7tz8tglnkRPraFKSa6ylfm1wC/U69GckgnmRH2Pckdzj30z57Pt4EGO/eNnSvNjTlrrKlQrVZjKbTpT4+fYbfq0+F9axYiB09lzMypVUpJMpWg8aDR9bf2YXsOJlfchT6dN7BxU7PVWzdpnHJvQkb5LL+NvmsEPWSrQduxEelRUsdbpf4w5n4zcZW2p28CR+jWLkSnyMXg1j47MYtjwxbh6mloc61mkxaZeX8YPd8LGsJ/82NaxKkvyrGBH/8KxnviIReuN26JRjJq3j1sBUa3CzdMWptEfExjYyDrqCZpIWp4dmUDn3stwj9oIyrcby/he/0O1xonKIy+QLE9ZatVrQMOGNSmWyYJ7e2excMtBDh39Bz/ToszTWlGlemkKVm1Np5o/m1pRat5h2ihqzyPMHjqCpceVcjdq55DWpi59Jg2naUHTj0j9L9smLWDz3v2cVfaj0Q9k+bU6Veq2oX+NYDbM3c5J1wO4egSa9rMFlkWqY9u8G8OVfRIhofNMrNOcEB9Mc2s2DW2n87f+55a4GpMvL6b++zdsNgq/xCS7Riy+bTrQVJlwXHKY8VVizdjfhZ6VerI7opWmeS5+V+o5g0vE+exGLOGcHVGNNteas29jB2IWrQEc7FeDrpu9DGWqRdKkqBKVZsSBJTQ2PPoRJWBjW0oPPGpIWWRRcjAHXpuXEEIIIcS3Q4LVQuhFC1ZnabGaAyML8uyqO3/feEhQ4vTkLFya4rlSveUjmWHKd904f92TF7oUZMxVhFIlchAtjVk8wvC58RcXrtzhhbkluayLUqhABoyZ1N6dxvcfXF2v4ZckK0XL/UrOVO8fPgh7dg23c9d55KclRaZcFC5VghwfMD8hxMf2vuXOO9IGcO+CG+73g0iS2ZqSvxQgvT5eE36WMdXfEKw20OD3ryvHLz0BS2tKVyhCJkMKylBun3TlRY7ylMyaQARK/YJb507z9z1/zCxzY1O4IHkyJosKjmoecWazK9qyjSgX7cZbQrQhnlw+dYHb3q9ImcOGIkXykzl5wt/V+P1rvMmAJdZlKlDYuBGE3jqJ64sclP8lKx8aR3t3al7cOscZ93v4qyzJbVMYm7wZSfYJi+qPeZ4RIiH6YHUD2+lcjQhWX1pM/fdLGB2NmuvT61B/1j/KO1BlbcHKQ6Mp81qu6GCODqhKR2dTUDlvZ5z3DqBwgnfDIoThNqI6beMMVitrcPVP6v82i+uGRP0qsjitYM+4Cq/lwg7Y2IbSA49JsFoIIYQQ3wUJVguhFztYPaZswj3JCyGEiPLWwWohhHh34Rcn4OC4iDv6RtCJSjPMdS2tYrU+fh+a2/NobDeFy+Hm5Gi/gT1DSsZZdoW5jcLOaQX3NRZY9djBtj7WCT+5ESmMQ33L0u26E1td+hA9dbyB1otNHWrwx6EAdEmK0nfXZjrnjR2F1uK5uCnVx50zdD5rYdU97nkJIYQQQnwjpAmMEEIIIT5YxK1vuQUuhPi4wnlw/i8i+3BV3+biWd/IdEQfwjynA/bFk4BFHmxrF433JluSkr9hl9tCHymmpn2+twxUK4LdOevuj/rBec691umqQpUR+7Z1yWZuxo9VWuOYO47m0lpvzl+8bWj9rae+fx63+3HMSwghhBDiGyHBaiH0dMGEhBjeEBocZBgkhBDiLele8jJMH6XWERYaFpVTWggh3pf6BjumDKVfm7o0m3ohsh8MdD7sGVCbBu36Mmz8Zq5/SNzWPCu2DqVIZWVL7YSaKlvYUKdOQVIUtsU2z5tC1Vr8Ti9j7KDuNHdoxwp9TuxgNyY2rEv7vsOZu/+Bqa8Ao2SlWtH0F2t++70W6aJdmalvbGfa0L50rFuXIfueR5WrIW5MdqxDuz5DmbT5ummgEEIIIf5r2mcnmdujJW37LeNiRH8270yL98nZ9GrRmgFLL0b27fO9kzQgQii0XhvoUH0wxwKU65Eifdm1tRt5JBegEEK8Fe3TVbSuOILTYfBDmeHsW9uGrHI7XAjxFdD6X8H1RgYq/JopwVY82mcXOHr/Zyr/kkFa+wghhBDfPQ23Zten9rQrqElMmdEnWNky47vXETS3mPubHX9eUUOSsow4sZoWGaWmIXtAfNe0XidZOXEIXVtP5ESAcZjafS7tm/dj7LStXAszDhNCCPE6jcd+FkzQl6HTcDOVly/d/qR9pxH8uekywcZBQgjxxVKlLkzFNwSq9VQZSlJVAtVCCCGEMDAno01BsuhziCXNTWGrNO9XRzDPiE2hrIZUZElzFcYqtdQ09D55y+pHnp48fOhp+iTE2/kp809kz57d9OkTUgfj5xeCOq6jwCwJqSxTSUeL4o3OurlJnl7xzn759RfMzb/yRzjCAvANCEMbx+/fLEkKfkydVAI73wBPpR7nqdTnhHgXmbNk5ueffzZ9El+ra1evERgYaPokxNspYFWANGnSmD6Jr5E+THTW7azpkxBvr1TpUpiZmZk+feu0BD26zVOLbOTJmNQ07HUhF7dxJFVtHPLGk0pMG8Tj208xz5aHBGbzXfnkweq5s2fz57Tppk9CvJ3WbdswdPhw0ychvmx5cuQ0vRPi7V2++jcpUqQwfRLiy6Wvx+nrc0K8i3bt2zNoyB+mT+Jr5digIX9dvGj6JMTbWbpiBRUrVTR9El+jsLAwbPIXMH0S4u1dv3mDxInj67L4O6T1ZmuX1vzdcisjykpTyLf1nwWrs2TNQs1atUxDhYjbObezXL16VYLV4qsSEaxu2+53w/+FSMiyJUsN/5dgtfhaRASrc+TMSZWqVUxDhYjb6VOn+feffyRY/Y2ICFY3dWpG0qTS3EskLKKOI8Hqr1/0YLVc44i3EXH8S7A6Oi2+h/+gUeeT/G/FYUZKsPqt/WfB6rnz51PTVoLVImH6dApOTZpKsFp8VfTBaitrK1z27DENESJ+TR0bc/7cOQlWi69GRLB60dIlVKla1TRUiLidPnWKlk7NJVj9jYgIVv/9z3UJVos3mjp5MgvmzZdg9TcgIlhdtFhRNm/bZhoqRPwa1PsN98uXJVgdTeDlxfToMAlXn0w0XyPB6nchqSSFEEIIIYQQQgghhBCfmYaAO6fYPPtPtt1QG4f4XOfg2lmM7tWJrr1HMnf7JbyNoxIU9sydPYsnMqRnJzp26M7AUbPZdOoeQabxcQvl4cn1zB4zkO7tO9Bz8FRW7jzKsT17ufhMa5omggb/W8fZOHM2u+5oTMMUYZ6cXNCTJi0n4PpMGa4L5vbhtaxauZJVq9ZyPPq0ehp/bh/fwOzZLtyNNSqGsGdc2b2ESYN60aWdsm79RzN34ynuJbxByuw9OLlxJnNd7ihrrAh/ysWN0xnavSMdO/Vj0mo3noYbJv1iSLBaCCGEEEIIIYQQQgjxWYQ9Os+2OUPp6FCOslWbM+jPLbj7vuLZsUk41apL5yF/smr7fvZvW8mfvRxxaDaNUz6xg8cmWl/OLexC3dr92fk0DQXLVaJ0viTc3TOHwU41qdV0IgcfxhHtVr53amJTmo2/QIpfHenS83dsc3qxZejvtOs+hQOm72h93NkxZwgd7MtStkZrhszayXX/qCiz1t8TT3UebB3/x0+GqKuW8KBAAgMCCPQPJFStT3Chxdd9O/OGtKNumVLYthrMnB3XiTabaJRpzy6km30dBm5/QtpC5ahYJj9J7uxh7sDm2FVryqQDnsTYorDHXNw2l+HtalPh1+q0Hjgbl2v+qJ8eY4qTA82UzxtcDnB43xYWD2tB4wEuPI1nd34OEqwWQgghhBBCCCGEEEJ8HiGvSJ6/NEV/UhFuSlb88spMOvTfhbZkY7r/MYguTWtQMEMiZYwa33Nz6d5jBbdjx5y13hwe4UT7uV7Yzd/KgmGdaOrYhDb9prLeZQm/F0zE0zML6dG0Lzs9Y0aGw87NYfiyMH6bNIk2NUtgVbAUtTpMYc38luS0ME2kp0tEBpsK/JotMYa4cyyqDKVp0q07nZv+SgZ91NUsJdZ1O9G1e3fl1Yla+Ywz0yXKgE35UmRNrCb+/MxavA+NoEXbuTxzmM+mxcPo4NSIxr/3ZbKzC4vaFyTRUzcWd21K/+2expbTerpgwpPZUK6oJbwyzl37/BSTBq4kxHY0a4+d5+zxdQyplRULZX8+cvmTZX99Oc2rJVgthBBCCCGEEEIIIYT4LJLkLUuN6g783sGWn82VAVofDm6+g/2CXWxYMJaeHTrSZ8JCtuxaSMsCPygT6Ag4M5s/XXyIahCs4f7GQQxec5ufmgyhY/GY/QOZZ6hA/xk9+TU5vPJ0YeTQDTyMjO6Gc/2oK56aMEJDYwaxU5XrTrdqqTEzfVZZWlOmci1ad65NruhB7HeiIr11WSratqFjndzENxvN/Y38MXAtHj81ZVDnYsTYInNLyg+cQfdShg1i1/ChOEds0A95KVOzEjXbNaVcGv2aa3h88T7Fxy5mRFs7SuZIT7rsZWg1qgvl9DPVPOSsq0fM1tmfkQSrhfhGqH2vsWfuUEasuf4FFDBavE/OpleL1gxYehH/L+hxEiGE+FaEPb7AlmkDGb/9YVQrCiGEEEIIIb5S5ml/JJU+tqpKQ40/ZtC+ROoYgUvzDJXpP64lefXRXd0Ljm/eS2Qqaf9jLJh9jOeqXFS1K0hc3Rla5GlGO/uMyjx1BLguZsWFMNMYHWEvw9Fp7rFp7FSOPY0eVUlL+Xp1yZcqZgjV7Me0pDa9f39mpE0T31wCOD53Dsd9VeSqbkvBODcoN0072JFRWTVdwEmWLLtAxBYZqFKSMoV+vc3JWr0ZNbLFDIur0lljlVk/TMOzJ0++mGsKCVYL8VVT4/u3C3P7N6Fqhdr0mLKeYzdefP4CRuOB8+RZ7HI9ztbJ09npLdFqIYT4OMJ4fM6Zad3qUrlyIwbO3orbncAEHh0UQgghxPcnhIvbXLj1pTSTFOJtmZmZWjBbkOQHfRPr1yUt2ph6hfXpQJSa8dULXDZFZwOOb+PAEy0kzkm+vImNA1+TnDLVy5PW0NjYk5NHrmNMfpEE63K/YqnSEXRlCZ3sGzBw0XEehOrHqUhXvTX1DRHyKGZmKv3qfiAzVKqIbY7F/zjb9z9BS2Jy5M+r/Bu35GWrU+5Hwwbh6XqU6zGyeSjzTmgdzdKQytRcOzz8lfHNF0CC1UJ8zdT3uHjOk1fhAfiHfkGhCvOM2BTKaihMk+YqjFVqKWqEEOJj0Ppf5tRf/liYhxP8hfXaLYQQQogvg9Z7D0uXXMBHHr0S3yLzrBQrkhl9KFsX8gyvAH3juDCunXcnUAdmSVOQLO44t0ESG2tjy2w0PLn/gIgQbapqAxnbypoUZvon16+wZXxrbKs2Y8yma5/lafGwa+e5YtwgUiSLGSiPIYkN1qZAuubxPR6+Y8z5wwPuH59EkIT4mlnkocbvnek1oRfV031JJUwqKo1x4dCBgxzaOpCS+pRScQm5yHaXW19MXiQhhPjSqVKXolGn9vQc141KhmckhRBCCCGi0fpybOpsjvnLc1fiW2WOZYYfTa2RE5HIXB/a1OLr42fIX617GcLLBH7+qrSWpInWTDmyRq2ypPIIZzbP7ki5rMacG2GPz7CyfwPqdV7O30GGQf8ZrY8PfsYNIiQ0gWi5Ki3p49ygr5cEq4X4FiTORKYfE7h1+DmoUpA5Xx4yJjV9fo0Wnz2LWXbe+4vJiySEEF+NxOlIJ0+tCPGWwnh8YTN/DhjLjqielIQQ4hsUgPuSPgzd/EAaBIlvmk5rjEabpcnET4Y0FiqSpUhqjNOGP+KBZ0Lne3PMDeETczJkyxqrc8Pk5HEYxMr9u5nbrTI/GxrehfFw/zi6DNuLz3/YwlqVPDk/GDeIRw88E4ybmFsYrwvMM2YjSwKNsL8WcpUjxDfBAnNjyqavhtb3KNNnHUVu+AshxPt4Q/45IQS8fMT5jVPoWed/VGvYn7lbz3BX/zitEOKrEPzAjW3zxzG4Zyc6dezF0HGz2XDUg0DTeH0L4ss7V7Nq5crI1+oNrjyIjOhouHt0Laujj197jLtxRXzUPlzbPZ+h3WZwUp+jNvwxZ5aPpk+nbgxf4hbVgZveu0xrEMKD05uYO7IfPdq3o3P3wUxZdoAb8eUV0Pjj4bqR2bNdTOsaztMLzvw5uDud23ViwIQ1nH36ei6wME9XFvVsTOsJJ3imfE8XdIsja9+w3UJ8sbRo4g0Mq/F66m1oRZ28eGmKGQLKichvnUf5Vz/ag4vnfQ3j46IN9MZXf+yqMlKmYkFTLmgtT08dxj3Y8EGZcW5q9lvGji1jsc+pn0LDkz1r2fsf9seVKL81xtTbau5cPI9v/BuEt89L5Y2KDGUrUjBaI+uvlQSrhRD/vYDLLOv9B1seyP1+IYQQQnwKWvzdT3HJPxGq8ODIfJRCiK+A5inHprbEoeEYToTlpWrj1jSztyL0xEKGtbGlltNM3PRRG1UKslgXoYBlICcXjmH0iJGMnrCVfyMPeDPS5SmGVcYQTi82jh81zplr0eK8YV6X2D6jL00q/o96XSez4cBVvMI8cO7RiDajlrNz327WjevCuD0B7zRtpCB3VnaqTdOxR3iRzppihbPDjd0sGt2RujVaM+/8C1NATf8EyDbmDW1PvTKlqNViEHN2XMf/1VOOT2pOncYDmbt+FwcP7WfrwmG0ajiQXU+jR660BDx8iDqPLY0qZjYGerThBAcGEBgQQEBgKK/kXp34muiCCQyMJzqrvsv5S15oVT9h61iNNIaBKn6q7kCplPrWHCGc37Ez2o2rmEIuXuamGpIUbkrz0sZ0H/pjyOvMKracN/SoGCmljROT53SioL61suY5PtGbVusiDipdPJ2dR3ScqMPUEDxOkbOJNRdV5urYlUppmEfI2Z24xLtBf+Fu3CCatChNxBYZKetmmm3UcuLxpvH/IQlWi29P2DOu7F7CpEG96NKuAz37j2buxlPce0N+IbXPNfbMG0LPP10x3iA/zcrRyjy6DmXZmWemSsSbaPA85Rzj7r3xtYYD/0TcolNoPDnjvCpq/Oq9XItWpzEIeaBMM5vR/brR6feO9Bw0iRX7/8XQd8AHCHvmzp7FExnSsxMdO3Rn4KjZbDp1j7dJv/TG1g3Rafy5fXxDtBYBemE8cl1Ab8eWTDrxTNlbOoJvH2a9YT+sYv3RO8owLb4Xd7Imct9FvFaz67IxB5WB1odLO6JaUqxed5x70lpAiLcUzAO3rSwcN5DenTrQuecQJs5ex3GP2AVRLO9VvmoJenAOl0UTWepqmv9LTy5uX8qUAd3o1mcUC/d5KGsUTch9jq+YxNCeHencdTAzNl9OoCVBEA/O7WTxhCWc9DcOCvO8wM4lkxjctQv9R87nwO0Yc1dmf4yVk/6gd8eO9Bj0J1svx9/yQk8b4MHJjXOZ8McABvTuRucOXek/fAYbTnsqpVr8NP76781krou+bFOEP+XixukM7d6Rjp36MWm1G3E0jHqNvuzdOns0g5Tvde42kHGzt3L5v3wGUYivkorUpRzp0KEXY7pX5r9I8R5ycRu7bsmNeCE+iNabQ8Oc6LoymPqLnPmzlyPVypbmf3U6MmlSC/KYv8Lr1Ex6jdqj1A2SYJmnML/adaJfY6tYj/LrqUiVzZqStdrTu0GBOMYrdZTHXmgz58YysdoUp3mFx8o5nC88iOkjGmGdSgXmKUmTWvUO05qWpHmIc+/2zPZvwrIt8xnSvS1tug9j/tal/F4gEWovV2Z0H8E+U1Ps4PDk2JQrSnplvob5655zasJAVgXXYtSGo5y9eIzVw2qSVZm92tOFGUv+IqoaocKyTDO6dO9Kk18yGAI9ZqlsqN2pO127K69OtuR7fQcI8eXSBXPtr2tx1rUDTq5m2z9a0ldVrkkqpTINVY6CrA3p0doGfSbS0PNLmO7y+PU6vtaTXc5HeJGsCO2HtSF/9ONC48XBDXtfezoiSZ6iWP2owixZdnJFy7GhDQokWH+w6l4SHPJ6pNcsZXKS6usf2uc8uBNxY0qL399uXHsRsRClHAoMMhzzutAgYsxGlZUGvVpjY9wglk3ZxePXN4hHLs4c9UtG4Y7DaF0g1oGuDTHlu9YRGhxiKruiUfZzsCE+ryPsZcgXkz5IgtXiG6LF9+xCutnXYeD2J6QtVI6KZfKT5M4e5g5sjl21pkw64Bnr4AvD669tzOrjSJUKtekxeR0Hr3oRdnsjvRq2YsyyHRzYvZYJXcaw1xQESZgZKTNkRHN5LVP0d/b1r1HzOPYiPVnSRcvTYZaKLHky8nzfDMaOW4W7UiVJG+32V5D7cro6ODL+yAvSWRWnUA64uXshYzvWxrbVXC5EFmzvQOvLuYVdqFu7PzufpqFguUqUzpeEu3vmMNipJrWaTuTgw3iKprdt3aD/G7hvZ96QdtQtU0pZ18HGFgERQWRtAA8fashj50iFzMbiRxsWbLjbb3i91Ff8VCRLl5ygc2uYGrEPx2/kVmobZT8kjyq0VCnJZpWN53unMWbMcs69SoXhJqoQIkGap0eZ3sKWJmOOE5anGo6tnLC3DuHEgqH8XqsGLWe6xREYfvfyNdzTjY1/Dqa9Q1nKVGxM7/HLOHEvjJCbm+hfx44mvcay0Hk3+7auYErn+nRY+I9SImt5cXEJnWvU4PeRC9iw4wAHd29gTr+mNBtxJNp6hfPIbQMzB/1OvTK/UtWxJ5OWHed+eAg3nftRz9aRPmMXsGn3XratmEzX+r+z+B+lqqt9wV+LO2BXow1j5q/HZf8B9myYxYAmjRl1JK6AtRavIxNpVtWeP46kwK7veCb/OYtpQ+uR5tJihjrZ0XzmJUJMUxuEPebitrkMb1ebCr9Wp/XA2bhc80f99BhTnBxopnze4HKAw/u2sHhYCxoPcCFGw6jo1I84opS99vVGcPhlLqq06kaH+oXhzDSa1+yulOVyh06It5E4XXo+eYp3rTf7Fi/horccl0K8Py1++8czYsN9sjQZTIeiyU3DjSzyFcHKUOHX4Xf1CvciKx4q0qZNbWrBGBcVqdMaWyfGpCJdsVrUd+xIj/qmYParS5zTNmdkl9rYtZnMNtfDuBzYwfAKKd5h2mTKSKXutHsyU4+lx2lIK/JH78cnRQnatSmPfuu0T/eyZONtNCQhb9kaVLRtR5MKaQzrqnl0gQcllPrS6LbY/pKDdOmyU6bNKDop66KMxfPMSe58KZElIT46Dfc2TmT+uYggr1HQ9TUM/GMTLwp1YOqEhmSL0XVXEop1n8EI+2wk1nqxd3hnxu9/GBXw1vpyfnZ/pl/IjOOUOXQrEbOM0R+3zw9MoM9sN6JO58qxfHI/554nIr9TW6obm3ErtDw9/xf39cegUgf4++K91wK9qjRWFMiqX8GXnJnVm8lrtrFp7gB6LrxDipSmion2Kef/um/4rtb7b/6KKtgMkhTvxvRR9mRLrFyX7BlG17EHeBi1Qfiem83AKRf4qclkZvUobihXolPf+5t//fQhai0+Vy+/1tpc6+PO36Y40KsbV7iqzybyBZBgtfhGaPE+NIIWbefyzGE+mxYPo4NTIxr/3pfJzi4sal+QRE/dWNy1Kf23R0tMrw3iiZeGzLktSaw23WN65cHqOecoPGgGwxyt0Zch5inTkDparDl+SkUob0VaT5pBh8Km6HOigti1roVNhmiJg1Sp+Ll4JUrlSclP9YYyqsUvZDZNrnm4kX7tZuHfZAXOC5TC6Pe2dB22kE3L2pM/kRov1+n0GrGXd0qVpBSeh0c40X6uF3bzt7JgWCeaOjahTb+prHdZwu8FE/H0zEJ6NO3LztgdESjfffvWDUrVMVEGbMqXImtki4NoVJaUbtaVrsrf4ZcM+uLHjJQ2deigv9vfvRsdbPMZKn5Jc1Sl08x5dP9FX9HT35G0plKt4mSP3sOtciJKn68MhbMlJaPDQEa2KEY6KdGESJDW+yAjmnVmVXAD5jvPpEfj6pQpUxGHjlOY0DIP5q+8OD2jO2P2+Jq+ofd+5at5olTkKGNHVevUaEyFwcubqxkw8gRZ2s1m+8nznNw1jabWKTDTBXBuwRy27Z9C93Hu5O8+j83Hz3Bs51y6lLFUStaXeKyfzIq/Iypv5likzEFp+2pYpdY/o6H3klur+jHGNQu/z3bh+IUz7JjeDKsUZugCzrFo9hYOTOnKRHcruszbymE3V7bN60ZpS6XgeOnBxknLuBqrhql9tpWRfRZxwS8fjfs1p0g6fQmlItnP1enRvhIpCeTSkgXsf2Gc3kAXTHgyG8oVtVTOJ8Y10z4/xaSBKwmxHc3aY+c5e3wdQ2rpO3NR88jlT5b9FUfzao0nLv2b023xM6rO2sBs5X2NkoUoVsWJIavWMaqcBf4JNesWQkQxi3gM91NRLhaPTmPOEf/X6z5CiLenucvmJXvxMvuZijUKx3qUXZGsGv3mDKVDm078MfZ3ikW7NDD7oI4czPgxrTFATKISOLYtERnwMU+dA6tcaZSaR4S3nFb7hD0bD/MidVZS+Zzn9KlT0V5nuB6WwnQT7RX/nj3P88hrO+X6KGUKQ6DGPGsNmtbKFrNFuCod1laZDcM0z57wJFbdRYhvhio9ZWr8xIFONajXth8jR41kcMffsHVaSFCtiaxfNZDy6eMIACTOTcOZziwZVBsr8+us6FiDqrVb0bl9M2qXr8WgswUYuH4Do+1id6yoMLMgdebkeCxshYN9K3oOHsHQro2o1+soGVrNYH7fX9BHKNTXNjOuT0taTTplejo0nL9nt6RJ9+kciN6Rc+LiNO9UhYzKgjTeZ1gydADTlGuVzqOakN1czfVNY+jfogVTT5meAg2/wtwWjeg5bb/xs0FicjnOYP3ygThYW/DPso7YVqxDm44daG5XAfv+58g3eD3rxtoZnrqIpP6XbeN60ardgshrnPDLc2jXtAej1l4ixPsky0b2o53TBE6YHpXX3FtDr8ZdGL3punHAZyShHfFN0NzfyB8D1+LxU1MGdS6GoTPYCOaWlB84g+6llGrEK092DR+Kc0QBopzsi9o2pGGnXvxmelzi1WU3tC1G06mOPa0m7+TYkd3s3TmS8sa46dtJbE3LzrVIr6/FvPqHy5di5j0yCHFj9/HkODQrF7W+Wl/2TprCccsWDG5dwPD4SoQUJdrRqry+KqTl6Z7FON+OFVSOl4b7GwcxeM1tfmoyhI7FY+wdzDNUoP+Mnvxq2D0ujBy6gajy9V1bN6hIb12WirZt6Fgn9+uF/7uwyEvTrnXRN8DWPT/L8Qsx2i4ahZzh0JnUOLSoKoFqId5E68eBccNwvp+Fxn90okiMw9mCvIWtjU8n6Py45n7POFjxvuWreUZrSpWuQKPuDSlsKAyUsuhBajotmk0vx4rYZE1PpoL1GTqknvE49zvEwu1ZGbJGGd+4KkWzZyJrYTt6TetJef1C1R6cdXtkCoabk9GmNKUqONKlYRFjWaO5x4PUnZk/uzcNK9mQJX0mbOoPZ/Bv+ryNShl1eAE7swxlxZzeOFYtRvZMWSlk15vJvcobtkntcZazj2KWq6/+PsslfS+wZkn5wdgVd6QkWbJgqB+HeHDzbrRg8w95KVOzEjXbNaVcGv13NDy+eJ/iYxczoq0dJXOkJ132MrQa1YVy+gVrHnLW1SNWSww1t1b0Z/j2B2SoP5he5dPGrLBZZKdev5YU+qBCVgjxsQReXkq/wZuRrjiE+DBaL1eOXw1TrtGykjNnXCc5CzKXb8uAEQNpVTbjRwxmqDA3j7ipZa68N7yJx1tOG/IX5/4ORaec50+tX8XqVTFf60+FYVO9BtVr1qCqVWrCo93pSjjwbkbqVKbaWHi45OMX37Ak5Ko/FZejWxjbpjIF81pRusFgVh07xurh9SkQlf3jdRaZKNtpFjvdTrFjxRTl2qI6le3bMGLdYQ6uG0GDgqnjKD8sKDJgD+dOHuPMpZPKMprwv4L5KVF3AEsOH2P9sFpkMxVLFjYNGTJ9DYev3eH2vbvG162zbJ7dhxoxmnqbk73xfHa6LGPalGnM3bBfWX5vyhiCFxZYNxrGlLVHcb9rmofy+ufcNmb2rWn8eiQLMpXrxIzdZzixawWT+jSmWhV7Wo9ay8GjaxneyOb1J8gsCvDbkBmsPflP1Dre+4fjzrMY4VSMZJblaTtyKssOX+FW5PhbnNkxT5mftWkmn8/HK9+/MxrPg0zr3IJ2g9ZyNWYqTPGfC+D43Dkc91WRq7otBV+7Ba+wyE3TDnZkVH7xuoCTLFl2IWbuI7O0pDUEFfQ3yJvQOvJxEHNS57AmZ5oEayxxSl2lOXVyKt/TPuXgtqPEziLid2gzxzLUoX6hqCYB2ie7cT7sR6qsqfA5H/3uu/I6c53wlGmMB+2rfzh37rnhO2/kf4wFs4/xXJWLqnYFX2+hoLDI04x29voKn44A18WsuGDaO+/dusFM2Z+pTe/fX4ryLXG0UWaqfcSuVXtea00eeHwHx9PYUa9I9BbX4mujfXaSuT1a0rbfMi7G1yu6+GCau84s2+uF2c+VqB7x5Ec0yar3Z+awTrTqNJTR7YqZhn54+WqeLj1pDUWoOfmr1cE6RrRbqYYWLY614RDWkal4RfLFujGoylCYgoZmAjqee3tHttw2MiedZVrlX/3bAlStaxMzmK6UWkWK2xh7+Nb+RLGK+Q2tIaKoyFC4EIbUc7rneMd6fD9RoerYFctJ3vJVMD4NEkWVNKkxBx1q/bXi61QpSZlC/x1zslZvplRcY150q9JZY5VZP0zDsydPYmyX1u8A8xecI1CVk1qNypDSNDw682w2FPhO7tJpQv147HGdS2fPcumf+3gHx44IavC6dZv3yZAlvjXBPDizmbmjB9CzY0d6DhjD3K2X8Il5aJto8b3kErOPjFUbOBnt+VjNHeXidFX08Ws5fifazMI8ObmgJ01aTsD1mTJcF8ztw2tjTqv14a9ofWxEzcsFd7+oH63W5xIukctaxYZjUTcNhfhevPK4xX199NXMHItEX/c5TvPkPp4hyvk6Sy0GzV3I/IXxv2YPcSDLu1xuflArciG+Luaps1G4gj0NmzWmbo1fyZn6HQ6WJBmwqeRAw+bNcaxXnZI5Ur1dEDSJJfnK2tLAqRm/1ShF/gzRmxG+K+V6xaoydRvVp2bpXIYn999fEjIUrIi9oxNOjetS7ZccHzi/L9dn3SzNvbX0sKuJbY0PedVm+N636RruYwrnr2XjWbT3JMc2jGXm7ujP/4r/nP9xtu9/olxyJCZH/rzGoEQckpetTrkf9Sd2DZ6uR7kePbigskClMp30VebGwMeHSlIMx4aFlPXR4XvYmT3Rk5JqH7Fn83kKNKiPPp4dIeTiWf4O1aF94MqGWHffV69ax6kwG6rW1N+Br4ZVmrd7/jvg+DYOPFGWnTgn+fLGu3coU708aQ27R7nwOnLd0FnH+7duMDPszw+uRlnkw7HF/0hlpiPg2GqcY3Ra5MeRHafI6lCHvHGt2rdEudA9PqMLzWvbYhe9/KtpR5cVt2IF795CuDsL2thFK0dr4VCvBT36j2Lj33FF3T4lDR4bpzB7pysnNk9ixg5v5VgWH58WL9djGA/nXMR9OGehXNuBDBvUmjL6yLPexyhfzSwSbqFknpo0pic0QoOD4vj7m+uLZYUOdZipw6FozJSZJzR7i9RpTC3GQwgOjuPXFfF93SvCozdrUqgy1GD41iPsXd6RqPh+KI/ObWXBosPEzpoUk1IGJlQImqUhqmFUzHZR/ke2c8Rbi1nKQhS3imevm/1AkiQfXMp+uULucWzZWHo2qUrpwiWoUrc1fYaMZHC7OlQsZEWx8vXoOGQ+u9yfEeCxgZFdFxNXNhXx/VA/Osz0FrVoOOIwL3NWo2W3TtQrAm5Tm2HXfTuvp3hXkSKLNUUKWBJ4YhHjDP1kTGTb9ai6hlm6PBSxykTIycXG8cPHs+lq1A9N6++JpzoPto7/4ydDsaklPCjQ2A+HfyCh+hRzquT8mCKIC6snG/vhUF4TN9wkjU1hsiePqjmpUmYlf7bn7J82ivHLzhKeKq7bVEJ827SBgQTpT9VaP3z0N4C+YpqgYJTLOrTekqpDiHcSrToeu94vvh+fN1j9/AH/3riJx1M1lla/UrGGLXYODjjUVl52Vpjfv8mtm8rr9nN+LGVnHF7bHrta1ShXOBM8u6OMv8Etz5gJ1z89C7IVLkh65WLfLEUBihZ4l/wQ4mMLu3aeK4FKMWaWlBTJEohaJrHB2hTV1Dy+x8NP/syUObnqO1JGf60RdIbNWzwig4qa29vYdqs0De2iB3g1PLnvSajyvSy2fzA7jrvuUa+5DHLIavpeQsK4dt4d4+5JQbIEIjpJbKxNQV/9ejwwPFL2+Vs3qMjg0BL7LMqyw6/ivDIiJ5RS8Xu2H5eL+bB3yJFgoOqboEpPxV7zWLlqEk55QrmrLxf1rxv/cGjxMk6+4/26F4eWs+LYP8Z5KK97ZmUYvGQls6aMoHG0lv7/DX06h4Jk0S82aW4KW5meHhAf2Svu3DR23GFmYYHFW+7k/6R8NUtkeJxWT6tN+Gyue58qayILjLPXKvM3DInHG+Yd9pQLGyfRRamndFl8nZTFbLD8wMIn7mB2GFfOuhs6bVSlTUe6BJbxbTasCuHmtlE0r1aLdqPXciVxZXov3s+Zy+c4emgv+065c+mvQ6wc3YgcTzYztF5pSlYbysEHfgR83XEN8QE0D3cyyKkLS59V58+Nc+nbogYlChWjstMwlq8fQ1kL/5hP1JkkyZCbQso1RscBjljFUcSpUmfF+peatOvbkNid6+upMpSmSbfudG76K8auOFJiXbcTXQ19cXSiVj79l5KSo2pnps/vQUnDJYO+v47K1CyRnZhdcViSr0xhsv6QEftBo2lePJ1phBDfD1XKlBju4ag9+PtKgHFgfIL9CfiCg8DmKZIbnsDS+lzALcZdfCFEQnQhwcbOy3WhhPzX7VLFF+OzxgR0yi/vZdr/MWTzLlbNHMOgfr3o3kNfuVNeHauRK6ICZ5aGIvU7myp+Pejepz9Dp65k9+HVdCqalKCAgP84WK0iU70Z7D26j31HN9C18H8d3IkuhIvbXIjR4PQ7o/XxwfAUpe4lIaEJ/BJUaUkf/argP7jIV2Wyx7FaemVR4VzduonLhnpKOJc37eBF9cZUjpEpQ0NwcAg65dfs/TjmI+HvT4uvj5/h+NC9DOFlArEYVVrLGBdN+t3zRbRuSFaGFo0LkljZise7VrHby7BCPN6zk6uFa2OrT3b7nTBPW5imIztRNtpTSNpHu1mxzdPwN34rmjtsXrEfn8jfgjk5qtSlVFydU3wsIRfZ7nIrVk7eKKmqjGHH0f3sO7aF/r/ElWdCfDgtgUHGVsva5z7RerdO2Jdcvv53Avh32zja1KjN4MOJcZi2jW2Lh+L0S6Y40yp9uDC8fYw34XXhYYS9R3z+q6X25MDoZjTtswI334zYjd/KrlVDaVYpL2mjBQqTpMlO4SpODF7mwqbpDcn9gzJQE8gLSSOUsDeUxV8t9S1WDRjKjgcZ+G1wL8qljXk+s8j+G31bFiaOWHMkVdofSZVAuaVKY3pC4wNY5HWic90sylWEDj+3Y8TdFcdB3FLXwalqOrlxK75LiXLnJYehU/sgTm/ZGa0fndjCOD97DBvvvT6BTqf5SNdRH8Y8cy6yJ1cKDs1ddq46bOiIPk7q6yyfsf3dOs8X4pulxff6PzzVV1Z0AXjcePhFHM/iv/d560FB4eRsMQinfO+X/0WVrjRd+9YhVVDAZ/gBm5MqW35yW37ewIrWew9Ll1yIJxff90GVPDnGfq/CefTAM8HfgrmpOaF5xmzGHKWfXCoqNanNz+b6espONrkGKb97VzbtTYK94y+xAh3mpEieDDOlgPa56BbzMfr3piJZiqTGuFH4Ix4k+Mx6RAch5mTIZuwZ98to3WBBnsYtqKhcReoCXFm37l/USqVvt4sHv9SpgeV3djWnSp2DbOkssMyU0XThHciZlWtwf7usMISeW836S6n4KTL/rhkplYv0D7wGT4Dye96zmGXnY+cajk7/KHY+8mT8kFxgImEqUqZIbjjpqz3cefPhbJzgyy5f/wPhHmzt9RsN+7mQqM1Kti3qjV3+t8x1994sSJzYuAO1Pne5870kYta+4MykjvRd5o4/KSndfwnTm1kRs1vf2JKR97cJLBpZnfQE8EKSVifgbcrir5EWvwNzWXQ2EFUuOxqUjau3JXOy2hRIuCNms4+QuuyNUlCulaMhR7/2kQtrdsdOexWA645jpLWrx2dtByPEZ6TKWIGKhYxXSMFucxizwcOQmjC2oL8WMPeODTUi8ymqMItIQRj6Aj9Da5vodISHq43PUGnCeBnHTHWRN4fffJf4raZN+gtlS+jzfWnxchnH6J0P47hZGM6dDTM4qs1N9PtsusgFvGld4hkfUaBptW+xNUJ8CZTj5ORyJg/pzO8TjitXuHpqrsxtS6u+o/lz67U4n5AS365Pe731JmmKYls1b4ItHd4kafGaVM2R5D+oYH6BtL4cmzqbY/7f9ykoUX5rjKmY1dy5eD7+u9baQLx9XipvVGQoW5GC/9GFQJISjvxmnUhZ/jMOOO/j5j5nXLP9Rv3Xnjc156fc2THcgL+znTWHfWNdxERRX1/GrO3epk8JSUR+6zzKvwq1BxfPxz9PbaA3vqHKG1VGylTUt2T+OK0bPgZVBjta1M2q/OVecd15Jccuu7D3cXlqV01rmuI7YqbCXHll+82J/6U2lnxqj80s3x//3zaS1pu9y7fjXbwZDaL9/j5l+an1Pcr0WUf5zoupL0AicuXLaTzfBp1mm3LBFO/R+vIcc0evN7z90svXT0vNvwv7Mnz7HczKdGVkS+tYnTd+KonJledn498q7ArHjn4Pedy1PN7xB32XXkd/GkpctBPDW79t/dCcbA3/oH3JVwT4f1th2I/p2y2L/Tm6/QjeWjNSFixOgXjKHrOkP/AlpHi3yNeE5v9LhZkugOOrN3A7euTK7wg7T2XDrm6+D7o2EuKrZp6T+r/bk0kfpdD6cGSkE23Hbebio1DlTKEl7MUdzqwaQpvOLuRs1YDs0VJlpciUyfiEhNqdY4efRTt3BvHPhj8Ysv6OcZjmCQ89Y4eNtQSHvDQGdnUhBL0W7I7uLadVWWLb3I7M+nXUPGL3gKZ0mLqVs7f9DAF4bfAdjs7tToeZYdRoaB3tuNcREqLfXuVdaBAhr5XbOsPTuIZ3YaGEvHbqMyNFCn0DKGUZzx9wN+JGrtaPq27XjO+F+OKoSFesHm17jmX5QTfOnDtnfJ3Ywp8DO9Oiap5P9ESj+FJ91mB1ktJONCn4gdWx5OVp26pYvJ0+fbsCcF/Sh6GbH8Rxh/b7ospcHbtSKQ0n5JCzO3GJ1ot7DCF/4X5T2VtJCtOkRelYhV20WsDHvpCzyEd9x9IkV2YccGwRAxZdpnCDOmSLVrmKkLRkOYobbsB7sWvsSFwexvHXDffAecYRtLnfJlCr4qfqDpQyPLsawvkdO4l391y8jHH3NKV5aePeef/WDcpujNyPce/QiFyr2qgJE5CMUi0ao18V7ZNdTBy4mReV61Dhv4kcfZHM0taiTb2fMexxnS+Hlm/k9hviNOob61h1PBHVWzfgP8meEnCZZb3/YMuD772U+hKoyFihouEYUo5mzs4ZhfPtOI9mLi2cw92CtQyfPlb5GnGUx324R13kxVsamEbEOT5a66M456+NGh+fOKfQ3OfIoWu8VPZdqqw/J9wqM05R6/PGYi7GeAvyVa1EDkP1KJBTy5ZyMY50AdG9Un/yThg+rYBjzJ6yn2eGn0JKyjVpSJ53qR6a/0yd2gV4Kf1dx+1bLovD3Dl/Wd+bhYo06dMZz4lx+i9aTr8FVQbsWjkYzsHhVzey6lRkTxw827+Ti/kcsM8R/1YI8e1Tka7mIEY75cPwvN0rL9wW96dxuYIUtLKmSNGqtBixE02j8fQuF/NJiiQlq1NR30G0LoAjI5vRbvAkpo7qTRv7WvR2LUa3ZvmMZYT6X1b17cIfw6ayK/KOURDXrt4xXlerb3PlUkKJct9+2pSV+jKiSS5jrCL8ESfm9MWp2i+UKFyYQoWr0n7qRbJ2HYKj/jHcCOq7XL3uZ6gaaL2vcTl23Uvrw5W/PY3Lf3VTeR+7valSHloVIIt+li9PM6fXRNZtc2b+gO4svvMdXzyJL55F8rSkz2CJZRyv9KljXl2Ib99nDVZ/Gmp8r+5mwR/dmemqb58TzuPTyxnbsxM9hi7FzXglFEUbwB1XZ+aNG8Kgfn3o0bED3fuOYNb6M3jqG4nFKwzvq4dY9+d0tt2Iu/If8uAMm2ePYkDXDnTo2J0hk5Zx4N+E82sHP3Bj2/xxDFbWt1PHXgwdN5sNRz1Mj0EYhXm6sqhnY1pPOIE+jbAu6BZH1q5k1cqVrF57jLvxBazCnnFl9xImDepFl3Yd6Nl/NHM3nuLeG5LWq32usWfeEHr+6Wpo8RT++DQrRyvz6DqUZWeeKeP/wmWVcfnRX2tcLhtznRpo8f1rJ2sixq9ax/GP1QpXlZUGvVpjo6/RhJ5n2ZRdPH5tJ2t55OLMUb9kFO44jNaxe8nRBhOi765Zob+DneDN9HemInNtRyqlUy6Twm5x3f9/NKxlGefBp8pgi5NdFkNFSvNoF4ObtmP6Vjc8/Az33wm+c4T53dsz62VN6ltH2wZl/YMNt911vAyNGdVQZW1Ij9Y2hgpf6PklTHd5/PpvUOvJLucjvEhWhPbD2pA/Ytbv3bpBS1BgkKGSFWeLALOUJNf3OKJM53f/LlE3/P/m7NW4ow3meRxxqpRaudgM4d7dxFSvV9pYif1uJaFEKyeK63O1KsLd17FKn2YmXkG4Lt/IzZyNaFU11XtctIfxzH03SycMpk+n9nTu1p8xs505HWcBEsYj1wX0dmzJpBPP0Ci/hODbh1lvOP5Xsf7onVitejX43zrOxpmz2XUn4XIh7Jk7exZPZIhSRnbs0J2Bo2az6dQ9ZesSosz/tivO0eYf/vQCm6b9Qc+O7enSbyJr3Z7GeSPmW2KesyFt7TMZyh6t92HlQrA1Ezdf5LE+F7U2jBd3TrNmSEu6ueSkRYPsxi99jPI1LJhQw2lSKZ9C9Hn5Y9GFRpZfocr412evlG+G8ln5fvDrf+kw5TvG2YdGluMx6DtpMXz9JSEhr81dmX2Qobd+w/ejz14XzivDjJXz18XTXNWfACOovTi37yxP9D8nnRq1xrjcII/bPI74CWtDTHm+le0y9EcQi06/XYY3hL00bYNJ4iIt6FA1neE4fXVzBYOG7OB+rGvRsIc3uRegn78Gn0ePv+JHI/WtqlewO+KH9UMJqlXL8I4VVBXpqjhRJ4+yx7S+XN65OkZ9ZPUG12g3ajXcPbqW1dHHx1N3elP9J8avSe3Dtd3zGdptBieNE3Nm+WilvOzG8CVupkB8NCEPOOM8m9H9utHp9470HDSJFfv/xfAnjYPG34OTG2cy18VUfoY/5eLG6Qzt3pGOnfoxabUbT18rxN61LP4KvfTGx5CrXEd4WNjrx9kXKFmZljjqHz/RPmb3yl0Yu+J4zN4df1O4jh0/fYNXZ0K8E5UlVUatYfEge/Kmiri40BIeqhzjaQvTZPJGVvb7ldeS/qSuSt/xbSmSWjmIQu9yYv0CFqw/j67yWJbNdCS74WlRC1LnqYCdgwONunbHQTlv3Nv7J4PbNWGoi4+xDNH5sOuPJnQeoFwr738QrZzUvMO0Jsq2VB21krndK5LVmFdNoSE0IBBNKhvqj13J7Nb5TA3v1NzYOp4+zduz8KqpVhB+mXltmtFr+FouhXhzaskoBrRxYuIxU3RAc4913RvTbeRm42eTxMVbKvUIfcpADd5nFjO8/xROZu7K8Cam+p0QQnzhvp3qUJgXl7bNoH+jSlSq3Y2p6w5w7WkYHht70LjlaFbs2M+eNePoPmYPEak6tV5HmdS4KrUHHSaFfR/GTp3OjD+HUjfNJZYMdqJ2s5nKScE0sUnwjX0sHNEFx//9QgWH9gyfvY0rz2OfloK4srwzdRuN4eiLdFgVL0R2brJ7wRi6ONSg7ZzzvJZWUfOUY1Nb4tBwDCfC8lK1cWua2VsRemIhw9rYUstpJm6G56+1BDx8iDqPLY0qZjb+AbXhBAcGEBgQQEBgKK9eq6krF9pnF9LNvg4Dtz8hbaFyVCyTnyR39jB3YHPsqjVl0gHT3dlIYXj9tY1ZfRypUqE2PSav4+BVL8Jub6RXw1aMWbaDA7vXMqHLGParfyR50HnWTRrJ6BH613icb6bBunAOY75jAxUpshUgm+9e/hw5lpVur0j1oT3VRJOkeDemj7InW2ItXnuG0XXsAR5GXrkr239uNgOnXOCnJpOZ1aP46zkwA69y7a5xD6hvu+Me/e7Ax5CmKo3t9J3qmPNzbUfKx3tTOxX/6zcSx9zGKku453Hm9WlKzZJFKV7YmuJVfmf6hax0HtrYkAc7gubJFa4boyb4/3uN+zH+mEko1n0GI+yzkVjrxd7hnRm//2FUYEO5sD8/u78y38w4TplDtxLR9857tm7QPuX8X/cNvymt99/8dS/mrwtVGqysshqC8i9Pz6LvhLVs3ziPQd0WcTdlSuM0sekfpWtV19Ai3SK3LXWKy91V81yNaFnT0hh41j5i17LtPIon0KF9uI2Ve4Mo3dLpnVM0aH3PsrizA7/128HTtAUpW6kMeX+4y77ZA2lZozrNJxwgxtOU2gAePtSQx86RCqYm3NqwYEMZZXi9NOYM1Pq4s2POEDrYl6VsjdYMmbWT6/E9xq/8Ts8t7ELd2v3Z+TQNBctVonS+JNzdM4fBTjWp1XQiB2M9iRD2+ALb5wylo4My/+ot+cMwfzVPj06ipX0TBs9ez+79hziweSEjmjdksMvTmMGnb40qHdUHj6WZqZ+IV15nWNKvIf+zsaKQVUFKVnFi1A4tDcb3JXra1w8tX0MuXzF1Aqxc5F29EuPmq174jb+5YYgma/C69rfhJmx0Gq+/+cdUvgX88ze3YgTkQnB3v208fykXbNdeK7zDuXH1hjFYrZxnr/+tD9hFpyzz7+s8Ncw+gH+u3Iy6aWGRi19L/GQ4z6pvLadX+3GscdnL9mVT6d92IIfSF8HwMIlSrp5au4Tl0wcyeNU/kfNX3/ubf/0Mv3R8rl5+7akW/e//b9Nv9tWNK1yNfoNclZl6o8fhmEd/N+oV97f1peFvHRk1ay179u9k9YwBtOm+hvuGeerw2zOGNt0GM2Hjla8vaK315uj+c8Ze3xUWOQtRKEbnw29HlakUpfU5a1QpyGJdhAKWgZxcOMZYL5mwlX8jG5+bkS5PMawyhnB6sXH8qHHOXIv8w799/Wevv776eYntM/rSpOL/qNd1MhsOXMUrzAPnHo1oM2o5O/ftZt24LozbE5UoPsh9OV0dHBl/5AXprIpTKAfc3L2QsR1rK+e5uVyIqCSGPebitrkMb1ebCr9Wp/XA2bhc80f99BhTnBxopnze4HKAw/u2sHhYCxoPcOFp9ELsLcvir1qixCQy1IeU4+zOHb6KtOUWeXFsUZFUZjoCXdew4V81mrsu7Pb4ldo14m7MIMR3R6n3l+40h91ux3Be/Cfjx09m9rrdHD25lbGNrIn7akFFhipDcD62m6V/jmfsn4vZeuwwK/pVIrOFitTlujJz01FcD61kXLc6FMukv5YwJ4dtbyYs2cN5j7vcvmd83bi0h/mTh9O1pukpRoN3mTYai6xU7ruCQ277WT1vCmMnTGOB8z6On9rJZCebaNtiQf76fzB9gytXTfPWv66e3MiM0U4US2ZJuXYjmLzyMJfvRo3/9/x25oxsaJqHiXl2HOfvVuosfzJp+nzWHjjM6j5l3uMpMSGE+Dy+meJKG/RYucDNQi7LxKhNNe9XHiuZd7YIA2cOp6FNSmVjzUmZJrUxH5T2GduH9WHJ+RfkbdIPp6LpDMNVyX6mWs/2VFQu1AP/WsqifTFbeSZKnYuyjq2wt04RT1BDw8ONfeg405/GK7cwd1g32vzenSELt7CkfQESqb04Ob0Ho/ZGy0GpXKgdGuZE15XB1F/kzJ+9HKlWtjT/q9ORSZNakMf8FV6nZtJr1B58tSosyzSjS/euNPnF2PLILJUNtTt1p2t35dXJlnwxGrVp8T40ghZt5/LMYT6bFg+jg1MjGv/el8nOLixqX5BET91Y3LUp/bdH6zxLG8QTLw2Zc1uSOGqHsnrOOQoPmsEwR6WSoCzcPGUaUqfKQZUuM5jd8xeS6aczS4V15VoUz54mRnqWJJb5KF0kG0kzOtB/TAuKfdSzZWJyOc5g/fKBOFhb8M+yjthWrEObjh1oblcB+/7nyDd4PevG2pE1+v7R3GPf9IF0bPIHu7yN26nzdmFo0w4MHjWHA/E98v7OkvJrk/oUSGbDb42KJZhvSWVZjREr59O1UlZTx2YKTSgBARpS2TRg9Mo5tMpn2rNh7mwc3ZdWzady1hToUF+dx+/N+jL3yFPjAL3EuWk405klg2pjZX6dFR1rULV2Kzq3b0bt8rUYdLYAA9dvYLSdsWPFGN6pdYOa65vG0L9FC6ZGPNoafoW5LRrRc9p+42eDxBRr2ZEqGZWlabxxWzyUQVNPkLnrSByjJ5+LJemvTahb4AcKONThtZTf36U0VG3bkLymfRF0eiVrLscVqgrnytrVnEtdm9Z1TTe53pL22SFGNfudeV72zNm2iCGdnGjYpC19pm5k+9J2FEz0FLeF3WjedwePIg4X/QVGs650VcqVXwwdOZqR0qYOHfRlVPdudLA15ePUJSKDTQV+zRZVbsdJKSMPj3D6P3t3ARbF1sYB/M+CrYgXvd6reA1M7O5OjGsrJhY26rWx85qf1+5usUUMLFRUVFCxOxADAZUW2N35ZmYHCQFBQUD/v+dZ3TkzuzM77Lx75p0z58BqmSeartiHlRP7o1MHC/QcOR877Naid4k0eHtpFYZ0GoFDkQcRDQxFxuI1UDqHGL7k99fig9MsjNschCbTd+CkiwtObZ+IRlJQUL/C4QVrcf0nb16tylEfk7aux+hmhZHl8+EciuAQAdlKdcZs280YXil6W6Vvi6+ap0exaLz4t/pnN97IP3gC3tuPR6c+47DshAdCPU5i5aSh6Np3jdwFkST40jxYWo7Cv7a3EOp7BVumjURPMb45h8e3e6vQr9NQTNt4EW724m9R/w4YuVu5W0R4jyMTOqKfzRKcfBmKVydXYOrQzhiw+oFyMTYYznO7odeoGdhzKxR+VzZjxkhL9JjnDN3bS31UW6Hr0KnY5PxRfM90qGw9HX3KZRNrD2F447QWU4YMx/9OBKHG+KWY1LkV6pSUEv9qPLdfjp1vqmHk+BbII9zH/pnDYNlnJSIaRi1Fn07ib/+26wjycsL6KSPRp8ssnPvcMGorhnUciGm77+oKRKqcjTFt2zqMbCr9rTT4cNcBWxZMwJD+Y7DumjF6LJ6EWtkMkCVfZbTqNxiDhtlgdMdScf6+pEihbrgRaURhgzz5kfe74ns65ChYCpWa9sfIjsW+/E0TI6BhHjNUaGKFf9oW/XJ+Quo/abQIeO0JbS5T5EgbnvgNwxPxd/pqqbFYMLk9zAzlhWGUVbcmzctdGNlnMXwtNsJ25UQM6t0Lgyauwu71ViiSRg3P8wswbPJReElfaiEQoWK9oXqZz0EM2vcXMGfMJgSZT8M2x6u4fHY7xjeRfrvVeGX3H9ZfixTE4huLU7O0BVDwL92nCL15Bo7yjvsOghaa73yLrxPr8s0s0cJE/JuE3cWejWdw49ARvKnREnV/waE4iOKiymiCcg1boUPn9jCvZoZcmWI/Twinn60oarfuBIvWDVBKTkjrZChUA40qmujOV5OBgVEhVG3aDhad2qBBpSLImVGKy0lI3xhF67VC2zZNULlAUg8OTUSUyIQktnTxYsE0bz7h2JGjSkk8BdkJ1iXyya81LdBAmHMtRJkRN/XDxUJLU+l1+YUyrf4TXALCZ3wUnt15InxQK9PBJ4XRFfKLyxUSLFa/FDRKsSzEVZhV11ScZyo0+veaENOaPzmNF2rmF9eTv4Yw5eInpVQQNN6HhCHlCgnN59/+4nWadzuF3ma6z1T07yXCA3lbNML7I8OEavlNhYYzrgoR76QIPCr8U1raznxC4bozBZfPb6oWnixtJRQRywtVnyhE2oQo1M+3C33K5RcK1/9XcI1pmbDHwpoOxeX3L1jSUtjuHr6DFOqHwtLmBZX5rYSFETtU+PjsjvD08w4V+TsK46sVEJctINQef14IVIojBAqOo6sLTWa6xrhPJc6XLsnrmj51qlLyLT4JnrcchcO7tgpbdx4QTlx5JvhF+QMnE8074dqZa4JXvLclTPjw8IJwZPc2YcdeB+HK/bdCYGJ8jk+ewu0zdsLuLVuEXfsdhKvPfKN+/+OgCXwpuDrsF3ZtsxWOXLgjvAqI9n1JILX3XeHM/t3CviOXhKe+8diK9weEQRXbCauffd96E5v0nW1ubq5MJbGQS8LUGoWFDqteiEehSOMhbO9eUt4GKe5VHHhI8I6+K9/bCUPKFxXaLHkgfqskvoJtj8LKawpGvFd06ufCjp7lhYJiDJ7lEmMAER6v6iiUkt4nXymh51b3qO+jfiwsbynFjwJCrQkXvoxvirAbc4QmUtyOMdarhefbewkV85kKjcXYEeNWPFotdJJja36hrOVWIXoY++QwQny9NL+o0HDkIcFdtxMUGuHt9h5CaekzmDYTFt6NMjNJWLTvIO97f39/pSQ5aITAl67Cif07hR277IWLd14J8TucU2h8TUohXsIDJ3th3/6jwsUH75VjSEfz4Z5w5sB+4fi1V7F+v7+f+LdyvyacPrRXOHDssvDQS1mTxlt4fPdlDL+1iW/B/P/J39lTJ08qJYlH82q90KWgdHzqjuGKIxwSaV9qhHebughFxfctWGqYcDxYKf5MI7zZYCHPNy02QLALUorDJaT+I5Y9XNxCrpOZ5isptF3gIkRUP58Jd5980MVG8W9mN6i8UNT8f8LtLyuJwq4euvqYacGWwlJdJVEn2EEYWVZXFyxeb6RgFzWICZq324VexaX9V1D4e8HdKN9RWTxjcWK54OQkb+usGTOVkqQUIlyf1UC378U6fZMZl2M8JkKcpwr1CojLmDYS5t2IIc57bxUsC+new3KLl/jtiEr9YpXQQT6/KCz02eWrlEZQP14utJXm568mTHSKzx5WCw+WtBKKSdtdrK7QqHoNYbxj9C9hytC+TVv57xkUlDK3j1KWeXPmyN8XxzOOSgmlVp8+fZL/lm1btVJKiOLWpmUr+TsTEhJbtoco/n66C2x62X6DkdwaNQ3KWfTE5x4N9LMin1kBGIVfjE1bEvWblUW+QjVQr1K0W+5U6ZFe7k8XUIfG3MxO/zdjGH2x97R4a78Lpz9khYmhN1wuXMDFSA/nu6HIrLwo7P5luEjdemieYc/ao/DU+wu1G8XQIipjA4xcOgF9e/bHuBm9UTZBt+/74eyypTjro0KBhuYoEVNzKwNTdOrbFLqxKJywdr1L1FuI9bIhm26HIk15C/SI2KHIms8M+T/vUFHm6ujWsTjSivvh1aHNOBq9g0a/czjkmA1NWpeK0uI68aXD7yVqo1mHLujSsSUaVMwnt4JKdqocKFunLLLHe1sMYFSoGszbdYZFm4aoWCQnEuUCfLrfUbxOc7Tr2hUdWjVEhXzxv9L+La0b4qJvXAx1WrVDa/MqyC+1PouTBi/27YRr0ZZoGrkPlF+dKjf+7qkbrEk8ivH+5HrYPol8R4AGT2w34bS2DrpbFExQKzo/x+VY5ugDVYEGMFcG2ozKAKZdrGCuDGZzYfUGuH5DHwR6v2VDrHf9+zpi5RJHvFcVQP2mJWJsNWpQsDP6NMspfo8F+J1fg40uUTdCL0sWZJb2j74JGnRujDxRdoIKxmbF8KdUpnmHt3J3E78CFTKalEODVh1h0aEpqprlQvwO5xQaX5NS2uwoXL0pWrdqgqqFs0U5hlRGRVGnZSs0Kpsrxu9m4hD/VnnKom6LNmjZuBIKZVfWpDKGabHkayGWWMSzYYR8vrNCT6x/fdFR1zfTCx/J91skpP4jbvdv2YzEf0VpyqNDr/Kfu8PRz5oPxQoYybeGa9/Yw/bUBxiaGML7atQ64sVLdxGaxUj3exx2D1euvJee6aiyIIsuiMGkYWc0ihrExK+CGYrlkoMY3r15E3GX3C8hLUp174e60rggCMOjjaMx6cCLaN3hhMDjwTNdf+AaL7x6HcMPVaY/8EdW6T3UuHnmdJQ+xgPu7sSEsTvxTC7T4s3L6F3nSb8zmaAbiuM93J9Kd2ZItPhwyxl3YuybRB8FO3ZFbWmdQc/wPE0jtKzya4/EQURERBTupzvFVBmooJLPFsRqoCqOM2/V72g0ZS9OnlgPq9IRp5jBHlewf/kanHn5laq+SlyP8jRCEK4530SwoIG703Zs2bw56mO7E0JKNEDDxo3QsH4xZA0VoPU8j7O3xUqzygT580c9+dAxQK4avTB68hhYVpOSMQngexYHjr8Rq8ppka9IoVgTxJmqNUT136SdpoHH+TOIdDeutEPFj6rsUHF/xp3LMEAhi26oaagHwe8stu56FKUy/+H0QVzM0wx/R+2nhCh+fM9h9ZaXqNOjFXL/dJHr+2Sq0QMWpcK7hrmJHeudoHTCIga1K9i63Q05W/dCk/hfKRH54dy+43L/p2kLFEHB2AMIGtT8TU7SaDzO4UxEx6/xpqenEh/KRDR+Z/fDQepDIm1+FJb6o41RJlRtWAPZdBsBp9N3ow6WKL55LG8v0zMyVPoLDEUs1yeJKInoGRpGGt9CQFhInKNb/zgJqv+ooK8fHmfEZWNZOMj1Mm4Fi3U/9/PYGb2OuHk7LoQUR32pjti4AYoZRU6oiu8ddxCDoTIWRmjo5865fxmqXG0wZWZHmMpdvL/AgRGt0a7fZCzdZg+Hg5uxeLQlhm7VjaMB4QOOTROnx87E7puR9nH6imhQR7noeWoKuvYch7lzp2FE9+ZoNsQJZYZ0RmH576rGg00jYD1mEhYcevK5nqsyKoaiJtICn3Bp8T+Yu3U/di8bjaGrniJzLFf0VDmaonvLPOI3xgAFmrZE2aS74kVERESUqjDlIwvB26u7MLd/C/zdby3uGZaB2e9xn5bESPMGLzyCxfOU3GgybhlWrFoV+2P5ODQTK7VhTx7hhXReoSdWVdMk7p8j5M5V3PQXxPfOgMwZ40gQpysOM6XTW83r53j5Hec5qt+boVsLqU/cUNzZtRkXwzNm2nfiCYMLCrVojji6JCZSBOH21jGwbCv1P7sYOw/sxNwBNjiRtz/61451dMpfl0FBdOxRX5eshRavD6/HAQ+pJZcW7+zW45B3eXTtXi5hLT9D7sDFzV88bddDhkwZo7QmjSodzMyUFttSDHRPzERJCO5cdYMujGVGxjhiR7riZkrf3Rq8eeGOhG1FXFkgIkpKqiymyC/3pywR4Ovp+XmwxZ+LFJs8EAx95DYfhyUx1Q0/P5ZhbHMT5XXx8z2NyFM/FXI2mYHN60fDvHAW6Gs+4N7xzVg4fjAGjVmD68a9sHBybfxmkAV5q7SGlbU1htiMRftSkX8VDVFv1L/oWSar+G7BeH52B1Yv34GrQl1M27wQ7fPpfgUNspqiRtPmaNpxIAb9bRrx25i2HLr2rwfdUByXsHbCaPzvfG4MmGoRR703Ayp2ao2i6Yuh2d9mcfzOEhEREf1afvlktf+9/ZjVvTFajjmFtC3mY6/daozrWhE5v6V1gyYAgUECpMHA3ryO302YWn9/BMg5pQ/wfpe4N25qvb3xQXpv4ROCgqUnsVBlQ3ajSC0Wv+uEJyOqdO+I4uLbaV/ZYcthT/lWSO2rI7C7XRrNzRM2uBv9okIuY9vi3bjgegWndvyHCcNssOZeYQyeENdJ369MBeMmPdE6v7Jz/C9i61Y3hKjvY8fmc0jfWJyX0B2n9Ya3LoDgU9An+TiOmQrZsmeLdOdGYmZMtPDx/iCvW/gUhE+fuwr4kipbDiRaGCOiHyddSVStpLs7Q6K+74abKaRxdeLSIDAwSIyoWni9/tW66vgR9JGz2gAsOeaMU/vXYeGC/7Dc1gHON85jw5hGyF+0K5adEeftXIDhnWvDNOuXv4mq3+vCZu8Z2G1YgBmzFmDVwTM4sWUEaucygCprDQxYaotTl05iw+xBaFHuj2gXgPWRt+MKHLJbj//N+x+W7TyOE9v/QdWvDCbu/+AhvEo0Q/OCTFUTERERhfuF84aheLr3H7RpPQqH0/TAhkOrMaxZEXy129y46GdBpozi6ZbWG67O0W5Dj4Uqi/gaaZ3qJ7h1009XGJtAX/hF7yQvDqpMmZBePvsLxSt3jzhPjPQNdB9cP2ce5P7O+rJBIQt0rWMIPcEfTlt24IFag+eHD+Npxb/R8HPrKaI4pCmJBk0KIZP0/TXIglzl2mLi+iXoqtwBQDFIXw5du1VS+q9V4/HudThwcAN2PzJF2571Yu8TOjZ6GZFJ6bs/9NULeMQVQAz0dT8m+jmRJ1pfqt9HhYyZM+iSWKGv4B7nRoTfeq+P3/OYsIUaUaqRCTXbNUUeJXeo9XLE0QsBuomfij4yZ8ooxjMtvF2do3a5RolHlREmZeuheZtWaFSpEIylrkGkYmNTFDWJRw/v+tlQpG5rWHRqjfqlIyWkMxRE9cYVkTvOt9CHcbG6aNm+DRpXKfD1/vw1L3BglwuKtGwGDsVBREREFOGXzRyq763GyPEH8EyvKgZM7w6zxOhZQP9PFMiXSTwR0eDZgc04LQ2gGCM17q1biIPvtEhjWgj50khlAbi49xBi7yo7BFeXTMeu5/Fvi5OmiBl0Xbyq8dT1KmLdHK0/vLylZkwq/F6tNkpEap34TVQ5YG75N0zEb1fYXVtsPnMDdvavUb1lPWRTFiGKkyo76k+zx/kLZ3DW9RrO7ZuP7mWlW3Mpdvr4q00PNJEGOxQJPscxY8IhBFbrjs7FvyF1m7YIzArJwQnqJ65wjT2AwN/LB3IEyVkVtaTbKhJNGhQxKyj+K1I/getVH7mVdUy0/l7wCRafqHKiau0SSTyIKxElpgyVrdC/TjbdhSmtJ44s34KHCbg4L/t0Bwf2XVMmohIETQpoyayPP03zyhdhNU8PYOup2OOZ+u56LD7gpUzRz8r37EpsfVkX3VubsH5DREREFEnKrht9vuVbiHj6NULEkrG/RoMXp07i7idxBxiaIM9XbtGLvwyoUF03ArzW0w7/TjmElzGcbIU+2YXFpwWY/qaCKmdN1C6pa7cR6LwU03c+ibFFdsC1lVj2tDgahd/mL9E1ehRXpo3xs6pyNUTTylnkxYIuH4KdeyynakHX4CadFaYrBYtuVaLd1hjpneP9RwAyVumG9tKAb9o3sP93DPZ9rIsWtdjXMCWEAQxz5UPurGwjG0Vcx2HWerDsWFSX3IUawSE50LxXC/wRQ4j76uGsyoUGzaogsxxAruDQQfdYkj1BuH79obi2dCjZqRsqK63YwoX3o6qNFJu/8Hle9Fivwp8Nm6NyFnkjcPXgIcQaxlxvyMmtdKU6oWuVaP04ie+ve9+v/5Z8bT4RJQF9E7SbNg0tlTszglyXwWaxK/zlqXjQvMWppXsQaFZcKZCooKdSBj0M/ogPcp9rkQkIDVXrjnlNCD59UfmKFA3iERgiQlzsC2eoUB3lpKqQ1hOHZ0yBXcyVRNguPA2taeTL+2LsUt42rlAqi2V+vGIxJZ2gW9g+uhs6dLDChMU7cHDnHAy2cUDefgPB6vEPFOKJa/sXYsLUPXiaxFewtO+csGxId/QauR6uvrFdmorDp9dw3b0ANjMOxNGYiYiI6OeUcpPVn/wREH7iIATBPyB+lWttQDCC5UUFBAcGxNJqRUBYmO4EQevjiku3peZ44dTwvHwcV+U+p8Xl1BpdvT/gCR6/+lpNQYUc5l3RNLeUUNbgtd0YdO0zH/udn+CD9Fm0gXh2ejmG9lmIT43boph0TqafH216N9Mlk7TeOD2lC3rN3APXV8HitmsR8vEpLm0ej54D7JDfsm2k/nr1kDmzdDup+LL37nj2Ufmk2g+47XxH91xlgrbDeqB4BvF58FWsn3cYr7/YIVq8srPFmQ8ZUarfRPQoGi0xKG5zkG6HQggO0PWvHR/6BdGhWx1kFTcw6NlzpGncEpWl7SBKBlqtFnduK8dFaif4wz9Qi0D/gBhyEgYo1sUStQx1WYm0pTujezXp8lk0Wj/xPSJeHfN7qZC73TBY6gIIXNbOh/2XAQRaDzvsPv0BGUv3w/heRaN2v6GXRelKRIsPL54hIkzdwuXbH3UTIm2AP+TNET7p+v2PRGXSDkN6FIcujK3FArvXX8Z1rQcO257Gx4ylYTWxJ4pEC2NCUCDkbvtjeH+JEBAkfkLpSQiCg2NIHhGlAt5eXnjz5o0ylfqocjfH9JXjUPdP6QAOhNvSvug79wxef6W7DK3PVayx/gcOBXvDomjUC1WZ//gDcjhUu8Hx1LtIsSMA93aOw/gdT3Vlmjd46RHt2E9Q/UeMyUGfdHFUrLMGxLKw6ndzdGmaG3It8dVh2HTqgwX7nPFEV0lE4NPTWGFthcWfGqONWaRApg1Sxh6R6rZSv9fRCIEI1AUxhHwKEmuy0cQzFlPSCXHeiqW7nXDtyknsXDAOI8auwv3CQzCuU175+/Ct/Hz98OLFC2UqJVLj4f5ZGDuoG9qaN4F5o8aRHk3Qoo0lho6ejj13I31rtW9xZul4jOrXCa2afPmaVh37YoTNEpx+G+dBGUWwhzNs51qjTc1a6PDPIuw+/wR+Xzut+y4aPNk1D0sOnce5PXOw8KBXpPgTt5BXV7B7njVa16qLjqOWYP+lZ4jnaTD9Yh4+eIDQ0K/8SKZaWvicWYjBnf5Gs8ZRY0CL/hvxKMHHbyhuLu+J5pHiSVPz1rAcNArTdt5SliHSefL4CYKCfs7hvlOTFJqs1sL7ojMehNdbtF5wu3xfl0z4ioDbt/FMfp0aj2/cEE9HYmKA/JXL40/p06sfYdPgvpi12Q7H9q/HghG9YeNgjJIFpKqjFu+ctmPduv9gM3oL7senlmFYG8OndkQB+XwpFK8cl2GURQNUKV0aZYuVRsNe8+FqMgg2Fn8plVMVjBuPxbQuheVkDMI84bxmFDpWL4ESxcxQukx9dJt8CJr2/+Kf6obyK3RUMCpWFHJe/NNFLB02G9v322LFaGuseRrRRCNducFYMLUZ8qTVwvPIRAya4YCXIcpM6UfgyhKMmeeCPy3mYvGQcnKr8Cj8b+OObodC/dgNbvFu5qRC9qY98LfUCaWBKcxblovWYpvox1Gr1WjZvDnatGyFvbv34NOn1Dt6V+BNZ9z0VeOlizOi51YkqpzN0aNlHujr/YZ6lh1gGsNZsNbrClwfh79YDXeXS3CP4b2QviwGLZqKpnnSQut5BJP7z4BDRACB1ucKlo2aD5dcFpi91BrlogcQlRGKFTORY92ni4sxYtY2HNi1HGMHr8azLFl0y4hx6O3Va3ghrV+M9bdcn0dLtKRDWeuFmNwsD9JqPXF00gD8e/wlIsKYD64uGYUFLrnQYd5SDC4ffSPUeH7rHj5IJ3ri+9+5Hr2FuPh7c/OmchdMGB663Yp4b6JU5OHDh6hdvQb6W/XFubNnIaTCFrQZivfEir2rMaBaTvF4f4+ry63QzLwnpq4/jYfeIeLRGk4D/5cuOLxkBCy6LoF/h//wbytdrIksXYWGqC11jST44fSUzuhjMwfzp/6Dns2a4J/zZTG4c2Hda9T3sXnEQIybOB+Hw2Njguo/Abhz+6kudqkf4+b12PrcNkStkVPQwVTXUVGox1ksH94JjSuUQblSZihXr7cYy0wwYELHKH0Yq5/fwn1dEIP37Rtf3GGi9XbDLaWVdtiDm7gd/ScuXrGYklKaUg3RuJDUVaBYLc6SG2XbTsaapd3wveMqvvV8i/q166BHt+5wOHYcGk2SZmC/gQEKt7bB7GWbsHpsJQhPH+KRGKukh3vaupi4fgMWzZ2IdpEvzqj+QN3BMzFv1SYs6VcIAY/DX/MIPrk7Y97G1fjfLGvUi+m2sRip8ebhY/iLB0Dw55ZQSU0fOYuXQG7pUM9gilLFjOJ30q31hZvTNfgaqBAaGKYUEsVs9cpVqFGlKubMmg13d3el9GehgnHdYVi6dRNmdy2IT59jxwPcc1iLjecSOLbFx5PYuOEs7ivx59EzPVQZvwYbls3DJIuSykJEOvv27kG1SpUxZeIkuX5NySNlJau1r+G4cips+rdD6xGH4Pn5rESNe8u7oWXXoZgwYytcYhiHUPP8KBaOtkLncXbwls/PBHjbjUOXvmMwfYnDFxX7dFUGY0rfssgmVlzC3jhh3aShGDnvBIJqjsPiqZ3Rqm4JOXmsfmaPlTteo+qYcWgePvpPZHr6UKl0rRh1VMjeYCo2rLBGLZP0uttPRZpgP/hrDFG83XQxKPZA4cgdqqpyoN7UrVgzthkKGYavQ4vQ4BAI2UrBYu4ubBpZSTzFiSptue7oWz+nWA3UwOvSGkwaNQ9OuQaJATevsoQkLQp0WIgdG8aguVgRvLe+H8xr/42e/fqia9OaaDbqCgrb7MD2GU1hErnCrHmOYwvGoJ/FOBz20p3wCl52mNCpL2ymLoVDbPfiR5ahIjq2Lor0xZqhReRKKFEyuenmhjGjRsk/PjOmTcOjR4+UOSmc9gMurZ+G8dad0bL3BjwRD7/AS7PQsWVvjJq4JNrxmBGVLDujglkb9DTPHinIq/HwgFghG26FNn/bwOF9RCIr6NJsWLTohVETZmPfHSVRo0hr2h4Ldq/H6L+LweDuBgxsWAetuvdD/05NUbvJaFwpYoNtu6bDPMaBFdOirLhsvZziPI0XnNdMwNj555Br0BR0yKsP9Z09mDm8OyznXECgvHwobi3pDgvrBXCIfM9rWlO0W2SLtWNboJj+XWzs1wj1W1higFVntKjRBGMvF8WYHTsxrWnUgRXV9/dh9tCu6Lfiti6JJL6/29Ke6DpkMnZcC4K30zpMG9kT3f89q1zY1ODF1iHoNGAq9kZu5UWUSkh3kZw8cQK9LHugXq3a4onsSrnFdWpikKsuRmw/Bfu1o9G+Wn6k8XDElmm90bSCGUqUqoJ6dWujZvkyqNluBo4HlsfIdWsxvM4fXySqZVnrY8S/vVA6qxgJg5/h3I6VYp3uKoS6M7B+UQfklftMMkDWgjXRtHlztB9kjeb5PRJQ/9Hg+dH/YNPHAhPsvJWW1d44PM4CA0ZPw7LjX3afpMrRAJM3rcCgOibKINgiTTD8/DQwLN4W0zYthWV4JVF9H/tnDoNln5W4rYSk0BtL0afTEEzddh1BXk5YP2Uk+nSZhXNKMl3zfCuGdRyIabvv6gpkccdiSnqq7OLf/chFnHU8j8vXnbD7f5YoI30vE4nT+fMY2L8/alWrjkX/LcTrV6+UOSmFCsZV/0atz+dSBijUsBXKGcW1D9Iij3kLVDEKP1DSoVzzViiU4Ds1DVCgXlf0HjEL1vWzfj43S2qG9abj4JnjOOa4F6MqxrPJjiorKnXsjz7/zMSgeoY/bFsp9Xr//j3WrFol/+b37G4Jh+MOCAv7iS506GdDyS5T0K96pANf+wr2Gw7gVbxvrtDgme0mOCi/6RL9fHXRskrk86TEFgTX/XZ4xNOJVCsgIABbt2xB00aN0bFdexw6cDBVN3hLjfSEJG56s2zJEvz3vwVYtmIFGps3UUpTilD4PLiKK3e8oPrDDJUqFUa28EyH9iMeOJ7D/bA8qFinLHJFq2Oo7y9Eu+aLcBtFMfCAHYaXiCFRo/6IR1cu4tZzX+jlMEXxUiVQMGfGOIOiNsgDNy644LFXGLLkK47SpYsgV6Y4TiQ0Prh/9jzufEwPkzLVULGAYRzvH4J3t51x9a4HPgqZkbNAaVQun+/ro5V/sw84NKAJtpXZhe398sV8IhnNZWdndLHohB69emLCpElKKdH3kW6RMytcRJmKqlChQjBv1lR8NJOff4uC+fKjmFkx2B05opT8nELe3YHzlbt49UGLzH8UQKnK5ZHP8OsBRONzD+fP38GHdCYoU70S8sfjNbEKeYc7l67gnsdHaDPnRIEylVEuX1xxL+Xp1KEjrl65ghu3byFzZnZWSonj4oUL6N6lqzIVQU9PDxUrVUJTMcY1btIEOX7PocyJP7keJ9bnVq9bi3r16yulP4bGzx233O7D460XfPzDYJDpN/xpKtaPSpnCOPKF/zhoPtyHk+N1vEEOmFWtiVJ/6Cp1wY+ccP5jPtSoaIKMcsmPpMbHR1dwye05fFU5YFq8FIoXyomMSRjMEjUWxyH8u9jHygpjx49TSikpSC2+pBPpmJQpWwbmTZuJD3Pkyp1bKU24Dm3b4ZqrK27du4sMGRKcKY6geYLlbZpggZuUvUmDatMuYGP3HHH/foe64N/GFlj/TCMGs+xot9YJs+t/672aoXCdaY7Oa56KFbf+2HVkDMrEM4b8eKG4PKUhum90h17xIdh/8B9d95GpwPy5c7Fy+Qqs27gRtevUVkopKYz8ZzgO7N+vTEXIYpgFDRo2En/3m6J6jRpIm/bbvughISEoXqSoHEv2xLCeHycElybWR89jGhh/eAtPKYQYFISV7WGMKRePeBDsjGnm3XEsJBu83+i6BDMobwMH275R7mJKTFqvPRjc4xa67ZuKqt8aslKhtq1aw+3GDdx9+OCbv3cpwbw5c7BqxUplKoL0G1i3Xj05d1Cnbt3v+02kr0pN5/dJIC2Mi1SHeZtWaFwtUqJaojJCkXp/o2XjLxPVMkHQ3Y6qnxO55f4VY2BghELVmqJN505o3bASCn8lUS1RZTRBuYat0KFze5hXM4s7US3RN0bReq3QVqz8VY4zUS1Jh99L1EazDl3QpWNLNKiYlIlqsU76Yj9sXYri72bhXZ4QpTxS6+rFCxfBXKzUNWnQUHy+kLf7xCLd78VRu3l7dO7WEX83rBivRLVE37gY6rRqh9bmVb4/OZLudxSv0xztunZFh1YNUSGVJaqJfjSpTcKVy5cxZdIkVKtcGZ07WmDL5s149+6dskTKpm/4F8rUbITm7bvAslcPsf7yN+pViH+iWqKfrShqt+4Ei9YNPieqJRkK1UCjZElUSwxgVKgazNt1hkWbhqhYJGkT1ZJEjcWU4t24fgOzZs5Ereo15ATC2tVr8MrDQ5mbPMIH+pREfh47ZZBUmfjsO5sa6+unnu+9dKGR6Fv4+/lj/969sOrVG5UrVMCo4SNw+tQpOfmcOulBpVJB9VcrdK6t3B2hfoK96xzg89XW1Vp42a/HoXfl0Kl9pLF1kvLw0vrAcf4SOPomaZtQSgbBwcE4Ym8P64GDUKlcefl/aZr9WycN1lS/VWgYpBtsDAqWRumsuiKKzBfnV2zBy7qWaGnCrxmlDo8fP5YT11IrpTo1asr9VDmePsNbfojopxCeuJ46abLcHVLLZs2xYP7/cM31mtyFCBH9nKSWbrP//Re1xbqNdHF+9r+z5LsZpTE9iOjnJSeu9+1D3959UKFMWfTrY4Ud27bh9evXyhKpiF42NOrdSmkNLeD9yfWwfRy9s61o1A+wc+M5pGlkidbyYF9JzQ9ua4djwh53pQtC+llJieujR45gyKDB8rFl2bUbNqxbj+fPnilL0Pf6xbsBiafgx3DYchgvcjVCx6ZmkBqjhJwciZp97ZFv1CHsGFDol285HHRrG6bP2Y/n6Qujev1KyPFiNxbbGmDg/vXokoD+EMO7AenSrRtGjx2jlBJ9n7DQMFQoW1aZSjjpNqYSJUqgfMWKKF+hvPiogGzZsilzf51uQChxhHcDcvHKZWTK9MWwtkTfRPr9lE5Gv1XmLFlQrlxZOb6Vr1ARpcuU/nx7Y3J2A0KpT3g3IJY9emD4qJFKKSUF6SJ725atlKmEy5gxo3isl1GO+/IoW67cF91TJWY3ICvaNsH/bui6Aak+/QI2dPtaNyCumNW4I9bJ3YDkQLt15zG73rd3A3JjdjN0XPk4ohsQAz/cO2YL+ws38cRHhd+LVEPT9i1R2SSWdai9cef4buw4GoIm84ahhv5rXNq2Frsvv0PmCl0xuFcV/P75A2ng+8gJx47cRKYWA9FcHrw/BoHucD56CCevPMArX8DIpAgqNW+DPw51Ro8NL77SDYgWvvdPYv8hR7g98cKn9NmRp2AFNOnYAuV+j+v2kyC4X7SHncNlPHj1EWHpc6BA2br4u20DFPnOvtTDuwFZtnIlatSsoZRSUhg/1gaH7eyUqYT766+/dMd+Ren4r4CCBQtGadGfcroBCcXlyQ3Q805XHNveAA5dm2H2FakhkQq5Oq3HkVm1EVunegGnx8C8/0202n0QVvf7o8qYM+K7AQYVbOCw62vdgITgndtJ8fzOCXdeeCPYwAi5ilRE/RZNUS3fl2sM8TiPTfP+xYpD9+EviCHLqAp6DGkCqat+PYO8qGFRB/ljWl/IO9w8eQhHz9/GC+8gpMlmgsIV6qNZs+qIYTWfqb3vwMF2O46HNMHsf2pC//VF7Fhri8uemVGh6xD0qPr7D2+ZGt4NiMv160iTVh4YJFVa9N9/WL92nTKVcH/++SfKKTmD8uUroGixotDXj39OjHSYrP4qLby29kSdCefEcJUeBVpPxLxRNeG5sBvG3P8ba3cMR/lfPtcQAsfRtWBl+043uJBELxtqTLHFWsuCEbfbxEN4spoopStgWkD+8SlW3AzTJk9hspriLTxZTZSSGRgYwKx4cTmB9fzZc5w5fRqr1q5B/QYNlCWIYhZb/+mU8km32hcpWkSu30j/FylaTG6R/TMmq7evL4/TYyZiw6W3cvIqnJ5hUbSbtgJTW+VDeLo3xPM6ju7Yip27j8L1VTCEtPUx54oNNGO7Y9Kx17oWlOK5T7MljvivyjPY7bSF/dGTuHD3HUJUBdF3jz1Gl42ePFbj9amFGDd5BzxLWKBr67ooncMPt+zXYfm2WwjJEIr3H0JgEFuyWvMWZ+Zaw2ZHIOqOHIOOJbS4f3AZ5m92hW+6HMj7VzZxL4v0VMhSdwJsx1aXX4YAN2waORyr3QujqXlF5MIrXLHbjZMP/aGfsyaGLF2M/hWNvjnJFZ6sptQna9asKFe+vJycLmBqipKlSsl3mqaoZPWuvjA8Pgzmgw5CHi8xSy1MPboBXWK6k1vrga2WTfE//bGwX98ZmXf3ineyWutzGesmTMDGx/nRtG1tFDEKgbvLEew95ApP/IEqPadi9qhGMPl8XGrhdWkndrt446PrLmx0fA3BsBza966D3NKmpSmIhn3MUTjKcayFz+U1mDx+A57kb4bWdYoi6yd3uB7ZjcOunsAfVWA5bR5GNIo8gHwIPK8dwa6tO7DnqAteBwtIW38eLtpoMK77BDi81rXn1svWHAsdl6DZD+4BIDxZTVFJjZPKlC0rXxA2FY+tMuXKIk+ePMpcig2T1fGgfroX4wZNx6F7vnJlRC99TpRu1hdjbXqgQvYffb0qJRID7cmp6Dp0Cx4F6iNz7pJo2HciJnQri4RenA9PVufMmRN/5c2rlBJ9H+n2dlcXF2Xq+0gncsWKFZOvlEpXTM3MzNCofgMmqynewpPV0gkBr7JTYvHz9cWDBw+Uqe+TPn16uWW1HOfKlce5c+eweeNGtqymeAlPVv/xxx/I89dfSiklheCgINy+fVuZ+j7hd5GVk1qCifWbIkWLwsTEBBbtO/x8yeq/6qBe1gfwyG0O8yp5kcbrPq5dOIOzN5TEddoC6LZuHybXlDI94nnOdQecffQUZ1YsxNFnYeL8Wug76Dd4pamHuhnOY+V/e3E3yARdNhzF5KLPcfm2O+7smol5xzyg0Y8pWa2Bx8FRsBx9BOk6r8W2iTWQ7fOOUOPF7sHoPOY4PLWIJVkdinvLO6PTPDfktT6IvcPNdMksrS8uzeiAXusfIkwvC0q27Ixqf6qQ3qwVrFsUFlf7Erb922JugBW2rbdCkfA/Z8BVzG7XBWvvh0H1x99YeOg/NI1oIp4g4cnqwoULI6uRkVL665LGh5B+n03y5JF/WxPT0ydP4OPjo0x9H+ncW24FKh770t0WBQqYIl36dCmvZbWUYNa4YX6Ldlj5QIolBijYzxYHbcoiemQIvT4HLTvaofya45hROxP8dsUvWa19dxJTuw3DoUx9sH7zMJT93LpZA6/zs2HVfy1uB6aBSct52LagJaL2LqLB02Xt0HTeDWhNumHTqWmxDLCohdfJybAcehCZrTZh/bCyEa3DNV5wmt0Lg9bcRmAaE7SYtwPzW5no7uTX+uDG8TN4/PQMVi48gudyOOqPAb+9Q5p69ZDBaTkW7rmLYJOuWHtsOmr84EE5wpPV0ndJOmdOCfz8/PDO0xM5cuSId0x6+fIl3r55o0x9H+lu7PBjS0pYmxYsiN9++02ZS3FhsjreQvDRwwPvgtPB2CQXjDOkjIMvJVH7voaHfyaxYps1Qa2pIwtPVvfo1RMTJk1SSom+T2hoKMwKF1GmEkY6eZN+YCpWkroAqSD/yETvuoHdgFBChCerb9y+9cXt1kTf6ntas2YxzIKq1aqhQgVdV0dSi+o0aSJu32Q3IJQQ4d/FPlZWGDt+nFJKSUEaEFoaZ+NbSF2AVK5SBRUqVhAfFVGiZEmkS/dlViVpugHRQxaToshr9LULtsHwfPQEXtK4cImYrNZkMkPXBaswrrHJ59bT0H6E69L+6PffZXwUz44Nig6E7aFRKPV5AQ0eLWmNFv+7BbVeFpQZsgGb/ikPqUao8X2Ohz5GKFzA6HPXkGq3uWjRdgUeCV8mq9WP1qNH2xm4YmiBNUf+RW1DZUa4SPsqxmS13xH8U2cw7D7mQpctpzC1esQ+0b7bAau643A2UIU/u2zEyZk1lSSeFj6HhsJ8xBN02n8A/5SInDzXwntXH9QfcwaBSINSIw5jt3Xhb+rmMjxZvW7jRtSuU1sp/XVNsBmHnTt2YN/BAyhVurRSmjhG/jMcB74xiSzdIVqlalVdEq18BZjkMVHmREiR3YDICWYtXm/riabjzyFAnKtn3Az/OSxGc+PI+ZkPsLduhDEve2DfnkFyi+Z4Jas1L7DTqi0mns2G3raHMbZ89HijxpPVXdHm38sI1DNErRmHsaZLnkjHSvyS1ZoXO9C/zXicy2aFHfY2KPfFap5gbZeWmH05EHqGtTHNfh06Sf2JhNM8wrJWTfHfLbU4vwwGb9iKofLt/hr4Pn+A90ZFkP+r8TXxhSer7z58IJ9DpwS7d9nCZswYTJo6Bd0tLZXSuM2bMwerVqxUphImt0luuU4tHVfS72v+AgWUOZRQzLjGWzoYmZiicCETJqpjYZA1F/J9R6KaKKX4/fffYdGpE1asXgWXG9exZfs2DBk2DNVr1GAfw0T0UyhUuDD69u+PHba75L4Fl69ciV59esstqiInqono55E3b1707N0Lm7Zukes3a9avQ78BA+SEVUyJ6qSjQvZSjdHs7xZxP5rXgmnmiD50E4v+n7XQqm6kRLVEZYTyg+ZjZJ2skNaofngAu69IWfJwevgtm5E8D2nKo0MvXaJaop81H4pFSlRL9H7LhhjvwNd+wImlK3HFT4X8TdujavREtUTfBGZFjWM9UQ+974KbvoK4EgMYGETdPyrjSqgo9zWghdfNG3APH39O+wZHdp3Cx6wmMPS+Kl9Uinhcwt2QzModsWG4f/kq3nPM3Z+KlDisVae2nLA7c/4cHE6dwrQZM9CyVasYE9Upmwq5WvVCc7l/DUDwOYGNO58g8lCLmse22HxSi9o9OqJgApITfo7LsczRB6oCDWBeMqaYaADTLlYwzymuW/DDhdUb4Bo5TMSLH84uW4qzPioUaGiOEjGuxhSd+jaFbjVOWLveBVFWo5cN2Yx0x36a8hbo8blfWn1kzWeWLInqX5XUgrxylcoYM84GR0844KyTE2bPnYv2HTswUf2dYvsNJCL6pUi3BklXW3futsWFy86YMetfNGzUSG55RET0MyhUqBCG/jMMx0+exFGH4/JAxhUrVWJ3NEQ/MWkQtf4DB+CQvT1OnXXE+IkT5YvvydvqTYVcVTujd9++sIrr0asZiksj2/8o+ib4u1tjOUEE7TvcvPpUVy5TibFST5eshr74XH4SKz09lfhQJiLzPY1Dp72g1cuCEuWKRk2Yf6aHDOnTKev6kqBWQy3dG63xwquXwbrCcPo5kD28T5E0BhGNiIKu4cqtYAial7iwYzO2bI762HEhBMUbNkLDxo1Qv1hWhCbpvdf0I0gXnuvUrYu5/5uPyy5XsX7jRvlc56foKzdTdXTvVEo5fkJxc/sGOAXKE6JgXNm8Azf/aIWeTbInIOHlh3P7juOtVuoJqAgKxhYiM1VDg5q/ycenxuMcztyJ3Ot9PPiexYHjb6AVtz5fkUKxxABpNQ1R/Td5LfA4fwZ3I69GZQCVSokQKjEe6Z7RDyINRFqlahX5gs+lq1ewbedO+TdLqmdT4mGymoh+Wb8ZG6NLt67iD8wOOUEttTaQboWVfoCIiH4G0q2+g4cMwRGH43KLD+uhQ2Fa0FSZS0Q/I6mvaat+/XDA7hBOnzuLkaNHw6y4mTL3Z6KB+5YBaFynLurH8GgydA/eJbCFcMbylVFS7u1EC2/Pd3JZYgq5cQVuUlJNlQ3G2eNIMcVRF01XrAJKZZXmB+O60yX464p1NN7w+Sh9aBX+KFEGuZRVaN68gEcQoJ+7CcYuW4UVq2J/LBnfPFo/vJRaSIMj16pdS27ZednFBWs3rEebtm2RxTCmJvypmQEKWliiXjbdcaJ9dRgb93mIR610nUl8ftAb5bt1R9mEdBMecgcubv4QpItFmTLGcbd4OpiZFdTN17zBC/cwuTS+Qu5cxU1/6c6IDMicMY5m3+mKw6yQbr7m9XO8TNhqKJFJ+QGpgcfkaVNx6cplbN2xA527doGxsbGyBCU2JquJ6JciVeKa/91C7tpD+qGZOn263GdjShkEgojoexmKJ6VSlx6Hjx6Rb/UdNvwfebArIvp5SXeCSSfOUt+4jk7nMcZmrNwP9c8u1PcNXjx/HvPD008eHD9B0udEDiOpTqiHdIk8IJ4kxMsbci5ZCEVIyDc2X87WGH0sSyETBPgcX4l11z83KYXmlSPO31NDz6gG+vSo9HnQOU1AIILF1Wm93uBNgncKpXRFixXD9Jkz4Cy1oN60Ce06tIdh1p8tQR2VKrs5erTNr7Qq9selzdvgFqLGg22bcT59Y3RvmzdhLY613vD+IB+c+BT0SU58x0yFbNmzRWoRnbBGTlpvb+hW8wlBwbGvRbqgld0oUrtrtqVKFnnz5cO4CRPkhm1S13ndundH9hw5lLmUlJidIaJfgtTNx5BhQ3H+4kUsXLxYHviAt74T0c+kSNGichdGUoVaqlhLJ69E9HPLlz8/JkyaiAvOl+RbkhN7ELeUTQ/Zq3bDiNGj5dbj0R/DLSog4b2IhCFMbsGoj1x5E78vX4O0aXQtMrVeePbkYxwJsbikQ2nr5Vg4oApyhrlhRf++mLXtBC6d3o5p1otww7gOhq1cgM4FIuq5+pkzIYOelChzgXOU/gQotTJIY4CmzZrJCTTp4nSnLl1gZGSkzP0VpEPZ7l1RUemxUf14NzbsP4iNux6iQPseqBdjp/Fx0MuITNJBIgp99QIekTvBjs5AX5dI08+JPHniaB0dA1WmTEgvryYUr9w9ovS1HZ2+gS6A6efMg9wJWw19BylHIHWhIw0Ue/LMabkBiDSmFf1YTFYT0U9P6pfx3MUL8iCJOX7nlVAi+vlItybaHzsqDw6bIYN8DzsR/eQKFCiAE6dPoUevXj/hbf7xoYJR+bawGjhA7pc7+sOqVSlkVpaML63PM7yUmj6nMUO1Gn8opYknrWlB6HJbobh55gy8vi1bLWWfYZzdELkbDMH4nmWgue+EU1e8YWq1AQ4nN2BQlagDNOrnKoC8mfQAzTMc2nwKPrGtV30XGxYe+Pbtoh9m+syZWLxsqfz7/6vS/6stLJvm1H3XBR84TJ0Iu6Dq6Na1eBzdeMQibRGYFdINMK1+4grXWA8SLfy9fPBJfKbKWRW1isfW63TM0hQxQyH5JWo8db0a+7Go9YeXt7wW/F6tNkokbDX0HaQu86QudGrXqc3uQZMRk9VE9EuQBhmhn4zaB3fsl2PSxG24F9MtrV+bT/QTYYz7Oal97uDIsgmYvPVuDN0ZqOFz2x4rJkzE9rsMcr8iqWuz1HoiHb8OMIRIy31jlxkJosW7M464FaqH3+p3QzvTqHfgCZ83IR7b8nnhyJ9B/JsVqY/a+XRptACnDdjgEiQ/j1VYGL7sqlaNJ1uHYcCazOgz5x907z8KE6ZPxYSxQ9C9eTnkiqn3kgwVUa28lLrXwtNuJqYdehlDTAnF050LcUZrivAxGinl+nV+96MeQ1EZom6Pjiiq7Ap1cAhytOiJ5n/E9AX+ynGryoUGzaogsxRSg67g0EH3WFo9B+H69Yfi8ZMOJTt1Q+Xox1t4SNZqY1yjKldDNK2cRV4s6PIh2LnH0rY66BrcHopHabpSsOhW5XOXPjqR3vkrH4sSjnXqlIE/Q0RElKqovW/h8JJR6FynFloNmoedZx7gY6R63tfmExGlbGr43LLDslEWqF+zBYbM2wHHBx8jTprV3rhttxRjOtZB3RaD8b/tZ/CQQY5SOo0//APCsyoCgvz9vp5jEQLgH6gsJQTD3z+RvueCNubuNwIuY836iwjOUQ/Dx/6N36OcKWsRGPRJt81CEAIC4m56rA3wh7zpwifxdZE+adrS6Nq/Hn6TMlVhD7Fp1AQcehGimxcu5CUePveTt1Hj9Qqvo82G7zEs/p8j3gW/hOuJM7jqdhcPHz7CwwcP8OD+Azx68hJeAdFS0aocMO/aVDfgouYV7Ed3Qt/5+3D58QdInYJoA5/izDJr9F0UgkbtzBLeKpUoCQUEBIrf0QB8DiGRGJh1RrfahrocsZTY7VENmeQ5kWnh5xcUEXNifC8VcrcbBsvi0t1pwXBZOx/2r788zrUedth9+gMylu6H8b2KRjtW9JA5c0Z5W7Tv3fFM7qBemviA2853dM9VJmg7rAd0q7mK9fMO48vVaPHKzhZnPmREqX4T0aNotCNSG4ggqRN6kRAsfpa4wxFRqsRkNRERpSJqPHe9ildhofD/GBzDie7X5hMRpXDq53C94oGwUD/4KiejkamfXcNVjzCE+vvKA6YRpQZq9yu4/io82azBkyvOePOV3HPwvau49T48C/MJd52vwFeZSjh9ZMqeHRnFs1/N0+2YOGEPHkZq1Kz1vYlNw0Zgh19FDF02Dx2U1s8RAnDn9lNda2T1Y9y8HiCXxkyLt1ev4YW0sNYLt1yf614nUyFXm2mY0dEUUoPMsBf7MapVawyYtBg77B1gt3khxna3xrbnulcIH45ipjg9fqYtbkk9Aoi0gR/hGyJA8L2KdSN7oVPLZmjaqBGaNm6CZk2awLx+LVQtWQLVWlhjxYV3ny90ZakzApMtCugGhgt9hXNLR6BLg4ooX6oUSpaqD6v5rjAZNB4d/uKYLpSCBLrhspuvGEOu4opHtIswElVONOvVEnn09fBbvR7oEO2OCJl4HF51ffz5OFS/uApn+QCNJn1ZDFo0FU3zpIXW8wgm958Bh5cRV4u0PlewbNR8uOSywOyl1ij3RVZcBaNiRZFb2oRPF7F02Gxs32+LFaOtseZpRKdE6coNxoKpzZAnrRaeRyZi0AwHRKxGC58rSzBmngv+tJiLxUPKfZl897+NO890269+7AY3f/kp0U+FyepfQhBc99vhUQzxmIgoIYJc9+NwsgYTAxRs3Av9hs/CkMbGn++0i/C1+UREcUkBdSaDgmjUewCGzRqGhsYxRLlCjdBzwD+YOayxrnUmUYqlxmO7BZg8vBdad5yHq8FKMQT4O05F+5ZWGD1xHg7ej3TAad/h7OqpsBnYCS26r0TELA1e7hyMVh0HYdzU1TjrmdCmhPoo1GcLHPbMQa86OfBqz2i0qtkAHa2G4Z9erdGwQX8cyNQNK/ZtwKBK2SKdJGvw/Oh/sOljgQl23krLam8cHmeBAaOnYdnxqF0FqO/swczh3WE55wIC5ZJQ3FrSHRbWC+DwUllSlRONZm7DmtFNUchQH5oP93Bi83+YOKg/bFZfh3GvJZhY+zcYGOZD5dZ9Mch6GMaM7YCSSncDKilRtmYoqv1pjD9z/YbMGdIijX6003ohBO9uHcb/+g7E2vCdqMqB+lM3YZl1bZjoRngTaRDs5w+NYXG0mbEJS3oU1iWziZKVFh8urseMsdbo2rwPNj4Wj51AZ8xu1xJWIyZ9cdxlrGyJThXN0Lp3ExhHOhTUDw7gfxNGoF/Llhh/7H1EI5YgZ8zt8Df6DJ+AOXvuKoU6aU3bY8Hu9Rj9dzEY3N2AgQ3roFX3fujfqSlqNxmNK0VssG3XdJjHMrBi2nLd0bd+TvGMRAOvS2swadQ8OOUahEkWeZUlJGlRoMNC7NgwBs3NDHBvfT+Y1/4bPfv1RdemNdFs1BUUttmB7TOawiTyajTPcWzBGPSzGIfDXrpPI3jZYUKnvrCZuhQOsXUpQpQaCUls6eLFgmnefMKxI0eVEvrRNO92CwOaThIuflIKUjDnS5fk78v0qVOVEqKUT/rONjc3V6Z+Ypp3wt5+TYUpF1JCMAkTbs5tJBQR932h6hNjiG9fm598LNp3kL8z/v7+SglRyrZg/v/k7+ypkyeVkp9XiqozhbkJ8xsWFPd9AaHWhAtC9E0Kc5srNDHNJ5jmry5MThFxWeeCk5P8fZk1Y6ZSQqlZ+zZt5b9nUFCQUvJzCPn4Urh7yUE4uHuvcOTUVeHpR7Uy58fSBL4Urp86JOzbf1y48tBLOc41gveju4JHoDzxJc174eLcbkLflXejxQW1EBIcKPh/9BLePL8jXD6yWhjesKTQdN5NZX6EsA8PhYv2u4Ud2/cKJy7fF94GapQ532fenDny98XxjKNS8msbP9ZG3h9uN24oJanHp0+f5G1v26qVUvLr+eR5W3C0sxW2bd4pHHS4IjzzjedxovYW7p3aL+zZe1RwfuIrHtFx+SR43nIUDu/aKmzdeUA4ceWZ4Jc4h+MP16ZlK/k7ExISopQkP9udu+Rt2rRxo1JCqQVbVv/stD5wnL8Ejr68T5SIvocWPmf+h6WnfVNM1xoG+jG3aAj3tflERFGkuDqTAfTjGuPHwAAcAojo26TNaoJiVRri73ZtYF6vAvJnTZ6uL1QZTVCmXgu0btUIFQtlVwZRU8G4YDHkzihPRBOCu2sHYpi9KXpZFos26Jo+0qbPiMxZs+OPvGaoZN4bIyxKIX0M9SEDo0Ko2rQdLDq1QYNKRZBT6h+FiKJI93tx1G7eHp27dcTfDSsin2E8jxN9YxSt1wpt2zRB5QKGX+nOIB1+L1EbzTp0QZeOLdGgYj5k4eFIxG5Afm5+cFs7HBP2uEfqJ42IKOH8b6zDSJs9cGcwIaKfEutMRJTyqe+vw6QFzvDN9jtyfO1qleYVzjoLqNWwkFJARESUOqT8ZLXWFw+Or8d8m6EY0Kcf/hk7A8v2XsM7adjiOAXB/eJuLJsyEkOs+mCAtQ3mrXfAA99Y+jfT+OLJ+V1YssQOz+SufkLx1sUW/9lYi+vtj9GztuLy27hXGuR+CXuWTMXoQX3Rt581xs9ZD4f7upGcv6SGz217rBxnjUXnpQ7cQvH64gbMGNofQyasg/O7aK/S+uHpeVssnzkeY0cOx5B+fWE9YjIW77gED2WwjchCPM5j9dCO6DHrHN6Jn0cIeITT2zZh86ZN2LLNUfmMMQh5h5v2azFn7DAM7NMXQ0dNw7JdF/A8rjFERGrvOziyfDyG/nce8qd5fRGbponvMWgC1l96F8s+IPrVBcLdeR9WzRyDf/r3xYCh4zF7yXacfeKnzI/FNx2nGvg+Pg/bRUtw+KkuAIS+dcHu/43D0H5WGDhyNrY5v5VHhI8ixANOK4fCovssnJeDSSAen9omx5LNm7fhrPJen6m9ccd+BSYMXggnXTDApQ3TMLz/YExa64zooU0nBO/c7LFulo24nBUGDB6F6UtscfFrgScRJGncJiIEujtj/4qZsBGPk/79hmHCzCXYeeYJ4h4L6BtjwjfW5RJaZ/qmOs831q++XwLrw98Uw4noR/F3u4p74rmf+sYajJ25H7e8Yzo/1cDvkQOWDhwI+2Ij0LsE7zQjIqLUJUUnqzVvT2NOhwbotOgB/mjSA30710a2R3uxcEQ71KteD+aNGsuPpk3aYe6FiFFaEeCGTf1boNOM0/hobIaypfICD+yxelo/tGzUA8uvflROJELw2mU/lk+wQquqldGk21gsPXgXvmFvcXZOV/zdcQyW7TiMEyePY9+qibBsNwaH38ZUSw/AzQ0D0LL9dJz5aIxi5UoiLx7CfuV0DGzeCL2WXsXH8JeFeOL6/oUY1b4O6rQYjPnbHXDnbQie7BqCjt2nYePB4ziydSaspx9BeLpK63kGczrWR4uxp5C52XDMmL8AC/+bgJZG17HWpgtadF6E65FGs5Zu1/d7+RLqguZoXzuX7o+sDUWgvx/8/fzg5x+MsC/ucNXC5/IqDG72N8YceINsJaujdtUiSPf0CJaN6YqmDTphjoNHtNZGIfC8th+Lh3dAvZotMGTudpy47YmQx7swrJ0lpq8/CAf7bZg1cDqOfvvQ3UQ/Jc3bM1jQzRwW088ipGADdLDsgmZmQTi3cgJ6N2mE7ouc4fNFuEn4cRry2gUHlk5Av+bVUK1hd4xbfAh3fdV4e2YOujezgM2SHbA/fhIOe1Zhctd2sLF7GyXRovX1gIe6IMw71MKfumCC0AB/OZb4+/ojWK0LJiGe13Fg4QhY1K6FVoPmYqfDbXiGPIHtkPboOXUDDh2zx/aZAzHzSNREvNbnMtYMaI7WIw/ibbYSqFanKgqlf4ZjS8age6OG6DrLQVy/snCiStq4TfTL07yF4/zuaN5uOs6FFEL9jj3QuVkxBJ9bhYk9zdGkyyI4fxnkviEmfG9dLr51pm+t83xL/SqRxLs+/O0xnIh+rKxN+qF3uaxQCR9wbf1wtK5aEXXF+lyvfoMxbOgQWFt1Q7v6VVCtzRw8rDwNy4aWQ2bltURERKlFyk1Wh97FmkFDsfZGTnSfPxNda5dF2XqdMWH9clgWNsAnr2d4/DY9zOrWQ916NWGWQ+lnTPMStv9YYYmvBdbvXYHx1r3Q03oiVuxbh95F00DteR4LrSfjmNI0JDA0E4pXL4PsCFNGd36PC7PGYHNgE0zdeQaXXR2xZWJjeRRWtYcdFq69Fq3loQYvdw1Hv0W+6LhpL5ZNHIyeva0xftVerLUqijRqTzgtGIKpR73kEwJtwGu80+RGgRxpoeR4EPZkE5ZfLo0xiyahXfEs4h9FH1mMskK+Bq59hwMTh2OteEJRyGIkupQxlstVGf9Cg6FWqG0I+F9bh9XHPkpLK1TIUbUzBloPgkXF3+U/sp5hcbTob41B1uKjvznEXRiJFl4nJ6Nbr2V413wFdq+ZiL5d2qNj7xGYa2uH1VYlkOats/j36IRRBzzET6zQBuCNpwa5THMgbcSHwZalV1Bq7EJM7GAm97ekn8UIWdmpItFnWq8TmNx5gBhn2mKF7SIM6dgQVavWRvN+8zCre0Hoh3ni4kJrTD/io7xC8o3HaWAoMhavgdI5xMNTPky1+OA0C+M2B6HJ9B046eKCU9snopEc5F7h8IK1uB4pyKl+rwKLwdYY0KkSfpeDSRaYteyviyXW/dFEDiZaBLz2hDaXKXKkVSt9WofhyaaluFpqLBZMbg8zqY83/SwwyhoRfLTvTmJq595Y7tkMS/evxvj+XdDOoheGz9+FA+v6oESat3BeNRhdRxzEq2gtG79PEsdtol+d1gsnJ3bBoE2BaLPaFv8N64AG1aqg1t/9MGdONxTUD4PnhUUYNvVIlIty3xoTvq8uF8860zfVeb4xbieGBNWHvy2GE9GPp8paBcN32mPT1J5oWDI3Mgt+eHnnMs4dt8exE5dwx0ON3A2GYc3RI1jcqyyySkGNiIgolUmxP1/+J1dh/bUA6OUsi0qmERVjVdbK6NuzOjKJz4UAb2SsMQyjRg9FcyVh4mM/F/Mds6PLeEsUySC/RCdzefTpWUN+nfbtUazd9Vg8KUiHQtUaobZ5H1jUNIKeOE/zygXu5Wdg1bReMK+YD8bGeVG151T0ryldk9bA45ITnkZq/qL1OYL5cx2Rvdt4dC8aZYUoZ9UD1XUrxLHVu/BYPAtRGZdF43bt0fef1igif6ww3LgsoPP0AWjerCdmHzoPhyPHsW9KTchjaoTewuXr0oBmesiQPoO8jZ+lz43c2aU/YRCePngWLYkef5oXuzBuzDY8+bMTxg4oG/Xqu34O1BizENaVxQ8S5oHDkybA9qVyOqUyRhnzdmjXfxhaF9X9jcJuOEPbbRr6/90MlnMPwfG0PY4emoIaMQ4QQvQL0n6Aw8yJsH2RGx3H9UdpKUZ8ZoBCpcyQRTrQhQ+44/ZcVyz61uM0XaFqaFS3CXp3rgkjOci9hqt7eUxdMxU9mlZEvuzGyFutByYPqiG/p+alM5yeJLSNnwrGZZugTYd+GNKmqC5hG3YdV7RdMWVgCzTtORf7z5+CncNBTKqpBAPNC9iOHYvtj/9Ex/EDUDbqB0KOmmPwv6GVxZgdBo9DkzBx58tES+Qkedwm+qVp8eH4v5i88wVyW9igb5koQQ4GhUujmC7I4cPtm3geHm6+OSZ8f10uXr6hzvPN9avvltD68DfEcCJKPmlzo6rlJKywc4LrzatwPHUcx85fh9vtqzh9dAcW2XRBVZOoQy8SERGlJik0WR2K+y43IQ3GrmeQBgZRMrRihbpSJRSSatLad7h1wz0igaF9gyO7TuFjVhMYel/FxQsXIj0u4W5IZuXqchjuX76K959b8+ghS5bM8s7QN2mETk3yRG0dJ56gmBXLJZdp3r3Bm88nOFq8td+F0x+ywsTQGy5R1ncBzndDkdlIt4vD7l+GS6TmQ3rZftMljpAG5Sx6onz4uZx+VuQzKwCj8AGp05ZE/WZlka9QDdSrlCPqH0yVHukz6HaOOvRbU9V+OLtsKc76qFCgoTlKxFSvMTBFp75NkVNcueDnhLXrXRCp0xXpwyCb7sMgTXkL9Ij4MMiazwz5P38YItI8s8X6o57Q+6sOGpb68oDL2HAUFk3sD8v+EzCtT1ml9PuPU70sWZBZF+TQoHNj5Ika5GBsVgx/6oIc3r751oSJHn7LpksWicEAHXqVlxMiEv2s+VCsgJEYFXT8HJdjmaMPVAUawLxkjB8Ipl2sYK77QLiwegNcowSeb/UD4jbRr0zzDHvWHoWn3l+o3agUvji6MzbAyKUT0Ldnf4yb0Rtl0+qKvz8mfGtdLoHiXedJhPrVt/qO+nB8YzgRpQz6GbPDxLQwCuYxQjpd9YWIiCjVS6E/aQLUYbpbOTVeHvCQBniJRD9HdmRTtjyNQaRqc9A1XLkVDEHzEhd2bMaWzVEfOy6EoHjDRmjYuBHqF8uKUOUuTomenu7EI2Z6yGqotIcJDRWr9uGCcM35JoIFDdydtn+xvi3bnRBSooG8vob1iyFrpBWqDFRQKavUV8VR9Vf9jkZT9uLkifWwKh1xphPscQX7l6/Bme9theN7FgeOv4EWaZGvSCHx35hlqtYQ1X+TNlgDj/NncDdyblxlAFX4hxE/C09kiGKjhed5R9wOEQ8VkwLIHyWTojDIjeq9xmDi2B6oKmUwJIlxnIoxLs4oZ2SILPKzUCnMfSMV9PXD1yPGgliDgR/O7TsOqdvYtAWKoGDsHwgNav4mv5/G4xzO3PnmDYvkB8Rtol+Y1vM8zuqCHPLHHOSQq0YvjJ48BpbVcioV0cSJCd9Wl0ug+NZ5EiNuf6tvrg/HN4YTERERESWdFJqsToeiFUojq1RbDr6OCxejDuai8faGPPCV6g+UKJ3784mC5s0LeASJ1evcTTB22SqsWBX7Y8n45sidkEp4TCdAmjd4IWXS9XOjybhlMa7n82P5ODQz+d5afwjeXt2Fuf1b4O9+a3HPsAzMfv++9wy5cxU3/cWzFL0MyJwxppNKRbriMJObs4sf+/VzvPzmszyiX1kYnj58IQ+kpWdgAIN4RuAfc5zGEOOSSsgduLj567o3ypQxauvHKNLBzKygbr4Ub90TIfD88LhN9GsJe/IIL6RDVU8fBmniHeR+TEyIM5mduJKzfpWk9WEiIiIioiSWQpPVQLbGVuhWKhMgeMNh5TrcCFRmQINXjudwX60Hoxp90b1yRGtjTUAggsXzAq3Xd9zemRCaAAQGySvEm9eJ1c9gzPzv7ces7o3RcswppG0xH3vtVmNc14rIGdNtpQmg9fbGBynxL3xCUPDn+0C/pMqG7EaR2gX9wLwW0c9DC/+AAPFf8dl7b3jFM2z8dMep1hveug+ET0Gf5P0RMxWyZc8WqUViInygHxi3iX5FWn9/BMhB7gO838U7yCVfTEgiyRm3f3h9mIiIiIgoEaXYZDXSl8GgFYvRr2pOhLktwyCrmdhx4iIct0/BsIU38Fvd4Vj2Xxfkj9QaRD9zJkhdOGu9XeR+R5OcfhZkyiivEK7Od795gMO4heLp3n/QpvUoHE7TAxsOrcawZkUgDcqeGFSZMiG9fGIUilfucY9Er680A9XPmQe542gkRESxUSGLGKekI0n9xA03o9408oVAX90CP91xqpcRmZT+9kNfvYBHXB/IQF/3Q6WfE3midrT9bX5I3Cb6damyiMeYLsjh1teDHPzkW02SMSYkkeSM2z+8PkxERERElIh0teMUSj+zMbIbmqDekImwLKvBg/MnccW7IHpvOAmHDYNR2Tjq5uvnKoC8mcTaueYZDm0+hUjjYkWlvosNCw/AK46GLvGi/ycK5MsEPfEU5NmBzTgd+wpxb91CHHyX8BWq763GyPEH8EyvKgZM7w6zKEPJf780RcxQSG7Qo8ZT16ux7zOtP7y8P4lPVPi9Wm2UiNQIiIjiKw0KFM6vu4U94CL2H3oZewLj0xUsm7ZDfvrTHadpi8CsUBr5qfqJK1xj/0Dw9/KB/IlyVkWt4onwgX5A3Cb6laUxLYR88uEdgIt7DyH2oTVCcHXJdOx6Li6QnDEhiSRn3P7h9WEiIiIiokSUcpPV6ifYPrQf1mWywqzhlug7ahKmTJuE0UMs0ax87i9Hl5dkqIhq5aVsrhaedjMx7dBL8RQhulA83bkQZ7SmnwdplAiCEP5M+T82kednQIXqupHStZ52+HeKeFIWw+2WoU92YfFpAaa/RVmh8iSuNWrw4tRJ3BXPYVSGJsgTLTkfL7qGSuIGamNcjypXQzStnEVeLOjyIdi5x3JWGXQNbg/FD5euFCy6VYm2/yO9c+wfhojEkJuzZm2UlA+gQFxeOhW2j2Nq9RaA66uW4lmJJvJUohynYszRHZ7h/8cu5vnhg24J0MbxBhGhLY6FVLnQoFkVZJY/0BUcOugeS9I+CNevPxTjeDqU7NQNldMrxV9IyCdK6rhN9GtT5ayJ2rogh0DnpZi+80mMdzAEXFuJZU+Lo5F0i1wixYRvq8tFogtysdaZdCLNiWM1iVO/ir8om/Jd9WHlSVwfjoiIiIgoCX1D9vPH8D22EP85vkPwSxecOn0FN+8+wMNHD/HwwX08ePAIT196ISB6zVuVA+ZdmyKX1DWI5hXsR3dC3/n7cPnxB/lESRv4FGeWWaPvohA0amcWaQAfAUFBwXIfiUJwAKTuTKMSEBgYpHsWEoygz+cbKuQw74qm8sg0Gry2G4OufeZjv/MTfNCtEM9OL8fQPgvxqXFbFIt0a6c2IFjuT1B67+BAXR+2XxIQFqb7kFofV1y6HSw/11HD8/JxXJX7XBWXU2vEf0UBT/D4VfgG6iFz5ozyiZL2vTueyaNSShMfcNv5ju65ygRth/VA8Qzi8+CrWD/vMF5/sTFavLKzxZkPGVGq30T0KBrtHlXxcwbpPoy8/+S+KokoRvr526FXsz/k4Kv1OoVpXXpg9h5XvJb6NNWG4OPTi9g6vjsG2+VHt7Z5dS9KhONUCAqE3G2q8EnXZ3M0QkAQ5AgjhCA4+Mu0hl4W3W3lYjCB+9OPSszS4sMtZ9wJjy3idGDQJ10sEoIQEGswUCF3u2Gw1H0guKydD/svPxC0HnbYffoDMpbuh/G9ikYbdE1cV2CwvC7hkxiXv/hIsc1P6rhN9IvTz482vZvhDznIeeP0lC7oNXMPXF9J9SwtQj4+xaXN49FzgB3yW7ZFXrk7t8SICd9alwsXjzqTJL51nkSqX+nitYBPwbptj0wrxiHdbDFuR579zfXh+MZwIiIiIqKkk0KT1WJl+YMvQgQBvlfXYnSvjmjTtAmaNmyMpo3N0axxIzSqWQlli1dGq8HLcTHSAD5Z6ozAZIsCusF3Ql/h3NIR6NKgIsqXKoWSperDar4rTAaNR4e/5LMjHfUz3L77Qa6ca73u4Eb01i/iydbNWx66VilhD8XnIXKxzLA2hk/tiAJyU5hQvHJchlEWDVCldGmULVYaDXvNh6vJINhY/IVIa0TA7dt4Jr+hGo9v3ECAXBqdAfJXLo8/pb+S+hE2De6LWZvtcGz/eiwY0Rs2DsYoWUB6Vy3eOW3HunX/wWb0Ftz/fG6hglGxorpR3j9dxNJhs7F9vy1WjLbGmqcR/YmkKzcYC6Y2Q560WngemYhBMxzw8vNH1MLnyhKMmeeCPy3mYvGQcnKLxCj8b+OO7sNA/dgNbv7yUyKKicoYDW1moHNhKYMhhhTPS1g7sh1qFS+GksVKoEK9Lph6UIu2/45ANUN5Edn3HadqPL91Dx90QQ53rkdvtaiF982bSgvjMDx0u4VIUU6mMiqGoiZyMMGlxf9g7tb92L1sNIaueorMWcJ/SgJw5/ZTXaxUP8bN6zFHNln6shi0aCqa5kkLrecRTO4/Aw4RHwhanytYNmo+XHJZYPZSa5SLHng0b3Dzzhv5cwgfH+DuC10M+iyu+Ukat4l+dSoYNx6LaV0KQ45yYZ5wXjMKHauXQIliZihdpj66TT4ETft/8U/1SEHue2PC99TlZPGrMyWkzvO99SvNm5u4+0aOYvC9fwdRw5wGb9zu4K0uyOHhnee6z6b4pvpwQmI4EREREVES0Z8iUp4niatXrsD50iU0a94cBQsVVEq/Rg9ZildFadV9OD9SI0sGPWi0AgRBG/kubLGeHoh3Dy/C4Vp61GtbEdmlfIleJhSoXR9mwlNcv+muG7hHrOSrQ0KhZ1QcrSYsw+zuxZBRKhar4w/2zca/0xfA9tpHXeVc8xbXzzjj4fNQ5Kz8J55umo+li//DprOecmsU6YTgztnzuP/aAE3rmIkFeshYoDbqFQeeut6Eu26FENQhCNUzQvE247FkbncU060QmudHsfjfuZi35jjclZY5QY8u4tydp3jyXED+CqbIGukSgkHuEsj/yQXnr79FoJ+7uG3HcFo8wSrSeSKmDqiNXF5nsf/iW4R+fAS313lgOXcKWvyl6/dRov9HPqS/exRnn/gjwOMazpy6AW29yZjdpwSkMcZ09JGteCM0KZcR7+5fh7PDbuzYcxpXr57BnhVzsNQ+EFVGLMK8wdXxe+RzGs1zHFs4C/PmroHDC10LRvHD4NK523j2+AW0BcrDNPKHiYdXHh7Yt2cvypQti1q1ayulRCnb4oWLkCNHDnTu0kUpiZtepgKo1bg8Mry+hZtPfRAqHTyCBmqNHrKV6oQpq/6H3mUiJXFk33acqu/vw9zp07Fw53V81AU5eF47jcsPXyAsZ2X8+WQz5i9ejEUbz8FTF+Tge/scnO69hkGBGjDLoRzD+n8gb4a7OO74FP4BHrh2+hTctPUxYV4flMikxfOjizBnzlysPe6utD4OwuOLZ3H36RO80OZH+YJZv7g6qv9bcTRsWg4Z393HjYsnsHfbHpy+chWOtiswd/ERBFYdgf/+NwjVogSeENzc+S/mz/oftji/18Vt7TtcP30Zz4OM0ahyrq/Mzy8WJG3c/pq9u/fg9atX6D9wINKmTYQOaomSmFSPk+pzLVr+jfwFCiilcRDrYvnrNEG5DK9x6+ZTvA+Rgxw0ag30spVCx2krMd+qDL6Ict8UExKjLqcTZ51J+y11nm+sX4W4Yde/8zBn/iZcfq+LT9p313Da+TmCjUujtN9hzJ47C/9tugzdbC3eXRfj+rMgGJeuiPxSfyoJqg9rvimGx+bly5fYv28fypUvjxq1aiqllFrttrXFmzdvMHDwIKRJE3GOQRSTixcuwOWqC1q2aoV8+fIppb+u06dO4fbt2+jYyQI5//hDKU0dNBoNli9dij/+/AMdLCyUUqLY2e7cBc+3bzHI2hr6+pErNsnn7p07OHXyJGrXrYPSZcoopZQa6AkRHfwliWVLlognFguwbMUKNDbX9b8aH9oPl/DfkPUwHLcUVsUi9eCnCUWIWNH+FBSAj+9e4J7TTixach8Nt9theMmot0+qPz7C1YtueOGrQnbT4ihZohByZkxARiGh1B/x6MpF3HruC70cpiheqgQK5swY78p97ELh8+AqrtzxguoPM1SqVBjZwj+q9iMeOJ7D/bA8qFinLHLF1Nmhxgf3xZOyOx/Tw6RMNVQsYBjHNoXg3W1nXL3rgY9CZuQsUBqVy+fD54aTSeyyszO6WHRCj149MWHSJKWUKGUrmC8/ipkVg92RI0pJfGkR5HEDF10ewTs0C/KWKINSRXIh01d/25PrONXA5945ON3+gPR5yqBapQKJts6Qd3fgfOUuXn3QIvMfBVCqcnnkM/wBgSfJ4nbsOnXoKCf+bty+hcyZE3nUXKIkINfjxPrc6nVrUa9+faU0frRBHrhxwQWPvcKQJV9xlC5dBLm+HuSSLyYkqM6UEMlXv/rR9WEpWdW9S1f0sbLC2PHjlFJKrTq0bYdrrq64de8uMmTQ3RVGFJv5c+di5fIVWLdxI2rXYcOjCTbjsHPHDuw7eAClSpdWSlOHkJAQFC9SFGXKlsGe/fuVUqLYtW3VGm43buDuwwcppkHO7l22sBkzBpOmTkF3S0ullFKDlJms/nQXa3taYkeRJTgy5SuDzWhfY2O3QfCdsBtDI3cuSqkSk9WUGn17spp+RUxWU2rzPclq+vUwWf1zYbKaEoLJ6qiYrKZfCZPVlJh+QHuOhFLjwbrxWHjpI7L9niPa4Dlf0rw6g8tCbTQoxEQ1ERERERERERERUWqVApPV/nBzuYdPUMNtzRjM2n8TPnIHg9Fo/PDo+GIMHnAYRUf0QXHmqomIiIiIiIiIiIhSrRSYrM6Kxn2tUDarCsIHV2z8pyVqVKiFlh17YMCgIfhnyCD079oajSpXRvu5D1F52kpYl+dt1ERERERERERERESpWQpMVquQteoIbDuyBZN6NkSJ3Fkg+L3EnctnccL+KE5dvA0PjQnq/7Me9vZL0aNc/EcnJyIiIiIiIiIiIqKUKcXmedPmrobuk1fjwIXruOZyHg4OJ+B44zZuuJzF4R1LMKZLVeROryxMRERERERERERERKlaKmiUrI+M2U1QoHBBmBilYytqIiIiIiIiIiIiop8Qc79ERERERERERERElOyYrCYiIiIiIiIiIiKiZMdkNRERERERERERERElOyariYiIiIiIiIiIiCjZMVlNRERERERERERERMmOyWoiIiIiIiIiIiIiSnZMVhMRERERERERERFRsmOymoiIiIiIiIiIiIiSHZPVRERERERERERERJTsmKwmIiIiIiIiIiIiomTHZDURERERUQzev3+PkE8hyhQRERERESU1PUGkPE8Sy5YswX//W4C//voLjZo0UUqJYnbl8mXcdHNDj149MWHSJKWUKGUrmC+//H+fvn3l/4nisnb1avn/G7dvIXPmzPJzopRMqsdJ9TnTgqaoW6++UvprePv2LdKmTYvffvtNKaGvuXThAu7cuYM+VlYYO36cUkqpVYe27XDN1RVdu3VD+gwZlFKimIXXcdZt3IjadWrLz39lE2zGYeeOHdh38ABKlS6tlKYOISEhKF6kqPyc5zgUH+HH/92HD+S6U0qwe5ctbMaMwaSpU9Dd0lIppdTghyWriRKCyWpKTcKT1UQJwWQ1pRbhyWqihGCy+ucQnqwmSggmq3V+lmQ1UUIwWU2JIcmT1R4vPeDu/kKZIoqfXLlyIV9+JgApdbh08SKSOJSmKjZjxiJdunSYMm2qUkIxqVylCvT19ZUpopTL3d1drM+9VKZ+LWvXrEHGDBnRuWsXpYTiK1fu3MiXL58yRanV7Vu34Ofnp0wRxY9Z8eIwMjJSpn5dqTlZLZ3bSOc4RAlVtVo16OnpKVPJi8nq1CvJk9VERPTr8PP1QzmxMm5gYCC3HE6fPr0yh4go9WlYrz4MDQ2x98B+pYSIiCh+UnOymuhnwGR16sUBFomIKNGE3yqsVqvhduOG/JyIKDWSBld89vQp7ty+jU+fPimlRERERESUlJisJiKiROPiclV5Jj6/6qI8IyJKfVxddDGMF9+IiIiIiH4cJquJiCjRuLpEDMLk6spkNRGlXq6RLrjx4hsRERER0Y/BZDURESWK4OBguLlFtD6UEj1hYWHKFBFR6hL5ghsvvhERERER/RhMVhMRUaK4eOECQkNClSkgMDAQLlcjugUhIkotAgICcOvmLWWKF9+IiIiIiH4UJquJiChROJ45ozyLEFMZEVFKd+G8k9xXdThefCMiIiIi+jGYrCYiokTheMZReRbhzOnTyjMiotTjzJkvYxfjGRERERFR0mOymoiIvtvtW7fw5vVrZSrC0ydP8fjRY2WKiCjlEwQBZ2O4+MY7RYiIiIiIkh6T1URE9N2O2B9Rnn3piP1h5RkRUcp3/dp1eHl5KVMRpItvjx49UqaIiIiIiCgpMFlNRETf7ai9vfLsS0cOxz6PiCilOXqE8YyIiIiIKLkwWU1ERN9F6gLk5cuXytSXHj9+jIcPHihTREQpl9QFyLEjR5WpL/FOESIiIiKipMVkNRERfZe4ugAJZ8/WiESUCty4fgNv3rxRpr705PETPLh/X5kiIiIiIqLExmQ1ERF9l7i6AAl3JB7LEBElt7i6AAnHi29EREREREmHyWoiIvpm0kBkcXUBEu7Z06e4d/euMkVElPJIXYAcjaMLkHBHj3z9bhIiIiIiIvo2TFYTEdE32751q/Ls6w4dPKQ8IyJKea5euYI3r18rU7HjxTciIiIioqTDZDUREX2Tjx8/wj4Bg43tsbVFyKcQZYqIKGXZloCLbwcPHFSeERERERFRYmKymoiIvske290IDQlVpr7uw4cPOGxnp0wREaUcPt7ecDh2XJn6Ol58IyIiIiJKGkxWExFRgkl9u+7Ytk2Zir/NGzcqz4iIUg7bXbYICwtTpr5OurPE7hC7NiIiIiIiSmxMVhMRUYK9ffsW1WpUR6cunb94GKRJg0yZMsU4r1SZ0nj//r3yLkREyU+r1WLH9u3KVPxt3sSLb0REREREiU1PkJrHERERJZIyJUvBKGtWODqdV0qIiFKuN2/eYMO6dcpUVJs3bkKGDBnQvmMHpSSqAYMGIVu2bMoUERFRhAk247Bzxw7sO3gApUqXVkqJ6EfZvcsWNmPGYNLUKehuaamUUmrAZDURESUqJquJ6GdRungJGBsb4/S5s0oJERFR/DBZTZS8mKxOvdgNCBERERERERERERElOyariYiIiIiIiIiIiCjZMVlNRERERERERERERMmOyWoiIiIiIiIiIiIiSnZMVhMRERERERERERFRsmOymoiIiIiIiIiIiIiSHZPVRERERERERERERJTsmKwmIiIiIiIiIiIiomTHZDURERERERERERERJTsmq4mIiIiIiIiIiIgo2TFZTURERERERERERETJjslqIiIiIiIiIiIiIkp2TFYTERERERERERERUbJjspqIiIiIiIiIiIiIkh2T1URERERERERERESU7JisJiIiIiIiIiIiIqJkx2Q1ERERERERERERESU7JquJiIiIiIiIiIiIKNkxWU1EREREREREREREyU5PECnPiYiIvluZkqVglDUrHJ3OKyVERKlT6eIlYGxsjNPnziolRJTYHj16BB9vH2WKKH5MTU2R4/ccylTKNMFmHHbu2IF9Bw+gVOnSSikR/Si7d9nCZswYTJo6Bd0tLZVSSg2YrCYiokTFZDUR/SyYrCZKeoMHDMSxo0eVKaL4mTVnDtp37KBMpUxMVhMlLyarUy8mq4mIKFExWU1EPwsmq4mSXniyun6DBvgr719KKVHMtm7egrCwMCarieirmKxOvZisJiKiRMVkNRH9LJisJkp64cnqU2cdkTdvXqWUKGabN23CtMlTmKwmoq9isjr14gCLRERERERERERERJTsmKwmIiIiIiIiIiIiomTHZDURERERERERERERJTsmq4mIiIiIiIiIiIgo2TFZTURERERERERERETJjslqIiIiIiIiIiIiIkp2TFYTERERERERERERUbJjspqIiIiIiIiIiIiIkh2T1URERERERERERESU7JisJiIiIiIiIiIiIqJkx2Q1ERERERERERERESU7JquJiIiIiIiIiIiIKNkxWU1ERERERES/OA2CP7zG07vXceXyddx/4YVAtTIrnMYTjx59hFaZJCIiosTHZDURERERERH9koKen8HGGdboUr8iypWrjTaWQzFp8mj0bVEDZYuWQp2WVpi43A433/nh6Y6JGLLGFWHKa4mIiCjxMVlNREREREREv5aghzgwpRMaN+6FGVvdkLbuCKx0uAKXq+dw7NgJnLt5E1dObcHk9vnwds84tK1cFo0nnMDLj36I3uCaiIiIEg+T1URERERERPTLUHs4YEanDhi10Rk+OZthxv6j2DChC2oXygYDZRkgHYzylkbdruOx5vA+zGtfEOnFUo3/B/iyH5A4Bbnux+FHTOkTEdG3YbKaiIiIiIiIfgnaj5cwv98wbHTzBQyrYOS6hbAolkmZG4uMhdBq1lpMapQd8PNlsjouWi8cW7MWrl4apYCIiChhmKwmIiIiIiKin5/2NQ7ZDMP6O8HiRFqU7jcV3QtFtKWOk34etBnXD+VDfeHLPGwstPA58z8sPe0LQSkhIiJKKCariYiIiIiI6Kfn77gI/zv+DnLD6Cw10KF9wUjdfnyd/l8t0bzYJ/gyExsj/xvrMNJmD9zZAwgREX0HJquJiIiIiIjo5ya1qt5wGG+ULjzSV2iI+r8n8HRYZYw6XVqhgPgyrc91HN68CZs3hT82Y9d5d3xudK15irPbNkeZv+PM04j5n6nhc9seK8dZY9F5qcV3KF5f3IAZQ/tjyIR1cH4Xtc8RtfcdHFk+HkP/Ow956dcXsWnaMAwcNAHrLymJ+EiC3C9hz5KpGD2oL/r2s8b4OevhcN/vi+V0NPB9fB62i5bg8FPdloa+dcHu/43D0H5WGDhyNrY5vxW3MJoQDzitHAqL7rNw/p34OiEQj09t033uzdtwVnkvIiKi+GCymoiIiIiIiH5qWq/TcLgSpEwZIF+JUsiqTMWfCn9UroJCacVnmUxQrExR5PA7jzXTpmDa5CmYu/cePjcq1ssO0zLF8EfgBayT50/GLNs7EYneEE9c378Qo9rXQZ0WgzF/uwPuvA3Bk11D0LH7NGw8eBxHts6E9fQj8EMIPK/tx+LhHVCvZgsMmbsdJ257IuTxLgxrZ4np6w/CwX4bZg2cjqO+yvsjADc3DEDL9tNx5qMxipUribx4CPuV0zGweSP0WnoVH5WMdchrFxxYOgH9mldDtYbdMW7xIdz1VePtmTno3swCNkt2wP74STjsWYXJXdvBxu5tlGS31tcDHuqCMO9QC3/KGQYtQgP84e/nB39ffwSr2RSdiIjij8lqIiIiIiIi+qmFuV3Hvc+ZYgPkKZA3QV2AfCF9DpiWqgzzAaPQoVgM76QyhEnximjUdzjaFP1yvjbgNd5pcqNAjrQIz+WGPdmE5ZdLY8yiSWhXPIt4sq6PLEZZYaANwBtPDXKZ5kDaiIWxZekVlBq7EBM7mCGLeGavn8UIWdNIMzV4uWs4+i3yRcdNe7Fs4mD07G2N8av2Yq1VUaRRe8JpwRBMPeqlSzoHhiJj8RoonUN8W/nttfjgNAvjNgehyfQdOOniglPbJ6KRifg51K9weMFaXI/UvFr1exVYDLbGgE6VIDdW18sCs5b9McjaWnz0R5PC37WniYjoF8NkNREREREREf3EtPB59Rr+4Q189TIhS+ZESqCqfkO2rHrKRAxURjAy/HK+yrgsGrdrj77/tEYReVPCcOOygM7TB6B5s56Yfeg8HI4cx74pNZFRZYwy5u3Qrv8wtFYS32E3nKHtNg39/24Gy7mH4HjaHkcPTUGNjOKn9TmC+XMdkb3beHQvmkFeXiczyln1QPVM4lPtWxxbvQuPNUC6QtXQqG4T9O5cE0bSpmpew9W9PKaumYoeTSsiX3Zj5K3WA5MH1RDfQZz90hlOT9gxNRERJQ0mq4mIiIiIiOgnJiDkU4j4r0IvPTJICdtEohdHrvpr9LL9pksQIw3KWfRE+fDt0s+KfGYFYKSvTEv0siGbbmGkKW+BHhELI2s+M+SXF9birf0unP6QFSaG3nC5cAEXIz2c74Yis5EuDRB2/zJcfCI69NDLkgWZpVn6JmjQuTHyRMnnq2BsVgx/SmWad3j7hv1QExFR0mCymoiIiIiIiH5iejDMkjni5FcIRegn5XkyUxmooFKS3fqqyJnpGKgMoApfWFw25qWDcM35JoIFDdydtmPL5s1RH9udEFKiARo2boSG9Ysha+jnFL6cdY8r765nZIgs8jNx/30xyiIREVHiYLKaiIiIiIiIfmIqZDbNr+tPWSL4wtMzfLDFn4zmDV54BAP6udFk3DKsWLUq9sfycWhm8pUEeRRxpbKJiIgSB5PVRERERERE9FNLV6o6KhqHJ1vVeHDjJkKUqZ+KJgCBQQKg9cKb1+yqg4iIUh8mq4mIiIiIiOjnlqkm2pjnUbrO0MLL0R4XAuSJn4t+FmTKqCd+RG+4Ot8Fe+sgIqLUhslqIiIiIiIi+sllQKW+A1E7m651tdbTHiu3PIBanoq/kNv7sd81WJmKTIBWmwJaMuv/iQL5MkEPGjw7sBmnIw2gGJUa99YtxMF3sc0nIiJKHkxWExERERER0U9P36Q9pkxvhTwG0lQQri0di6WufvK8+NC8PYllewJhViKDUiJSSQMk6hLgnz58QED03K80mGOYbhBDdcgnhMnPIhEiBjiMNNRhLCItEevCGVChenlkEp9pPe3w75RDeBlDRj70yS4sPi3A9LdIKQFxW3RvG/5/7GKeHz5AowDt196AiIgoFkxWExERERER0S9AhVzNZ2LZ+Hr4U0pYB97AcisrzD/96ivdZWjhc3U1hv1zHKZ9OqFIOqVYlhk5/zSUk7RqtzM4HbmlcsBd7LKxwa6nujLtm5fwiJY41gYEI1hO7AoIDgwQ1xQHbSCCdAtDCA74MjEuUyGHeVc0zS11eKLBa7sx6NpnPvY7P8EH6UOK7/Hs9HIM7bMQnxq3RTE5ca8jBAUiWHpP4ZOu3+tohIAgyG3KhRAEB3+ZAdfLkgkZpB2hfQ/3px+Vz6LFh1vOuPMxzk9GRET0GZPVRERERERE9IvIALOeq7Br9UBUzZkW2vdXsNLKHM17TsbG0w/g8ylSUlXjh5cudlg2vD0sF/uj3X+z0dJE1+t1hHSo0LAOcopn1oLfKUzr1BMTZs/F9GGWaNlkKC6Us0anIrrXqO9vxKiBYzFlvh2eKLnegNu38Ux+rsbjGzcQZzfa/rdxR7cw1I/d4OYvP/2SYW0Mn9oRBeSkeiheOS7DKIsGqFK6NMoWK42GvebD1WQQbCz+Uvrwlqjx/NY9fJBy1Fov3LnujqidmmjhffOm0ko7DA/dbn0xQKXKqBiKyvvnEy4t/gdzt+7H7mWjMXTVU2TOwtQDERHFD38xiIiIiIiI6BdigFz1RmHL6aNYNaYDquZPC48zmzGjVxNUNiuGspVro0GtaqhUugYsph9DYIXRWL1uBGr/ET1RrWNYfxRm9C6DrOLZdfCzc9i5cgV2XRVQe/omLOiQT1ybyCArTGs2Q7NmHdF/cAvk8ziKhaOt0HmcHbyVltXeduPQpe8YTF/iAPfImWLNcxxbMAb9LMbhsJfSstrLDhM69YXN1KVwiLKwRIXsDaZiwwpr1DJJr3TNIb5NsB/8NYYo3m46NizrgcJpdeXq+/swe2hX9FtxW+nDOxRuS3ui65DJ2HEtCN5O6zBtZE90//eskkzX4MXWIeg0YCr23lWy7pK05dC1fz3kFD+wxusS1k4Yjf+dz40BUy2QN+ZdR0RE9AU9QaQ8JyIi+m5lSpaCUdascHQ6r5QQEaVOpYuXgLGxMU6fO6uUEFFiGzxgII4dPYpTZx2RN29epfRH08Df/Sbc7nvA08sH/mEGyJTtTxQoXgYlCxpDyel+hQYf7p/H2etvgBxmqFKzNP6QWzYH47FYJ/qYrwYqmGSUl/yh1B/x6MpF3HruC70cpiheqgQK5syYhK3WNPC5dw5Otz8gfZ4yqFapABKzUfXmTZswbfIUzJozB+07dlBKU6YJNuOwc8cO7Dt4AKVKl1ZKiehH2b3LFjZjxmDS1CnobmmplFJqwJbVRERERERE9AvTR5a/yqJGoxZo26UHevToivYt66N8vBPVEn1kK1oHrTp1QqsG4YlqSQYUrNEoeRLVEgMjFKrWFG06d0LrhpVQOEkT1RJ9GBeri5bt26BxlcRNVBMR0a+BPx1ERERERERERERElOyYrCYiIiIiIiKiX5pWq8XpU6fg6+urlBARUXJgspqIiIiIiIiIfkl+vn5Yu3oNGtSpi769+8Dfz1+ZQ0REyYHJaiIiIiIiIiL6ZYSGhuLkiRMYPnQYqlWujNn//gt3d3dlLhERJScmq4mIiIiIiIjopxYWFoYzp09j1PARqFS+Avpb9cWhgwfx6dMnZQkiIkoJmKwmIiIiIiIiop9OSEgIzjqexZhRo1C5fAVY9eqN/fv2IcCfXX0QEaVUTFYTERERERER0U/h5cuX2L51m9z/dIUyZdG7Rw/s3b0Hfn5+yhJERJSSMVlNRERERERERKmORqPB7Vu3sGnDBlgPHIRqlSqjbs1amDRhAk6fOoXg4GBlybZmTXkAAK/tSURBVPh79uwpHj58mCgPIiJKOD1BpDwnIiL6bmVKloJR1qxwdDqvlBARpU6li5eAsbExTp87q5QQUWIbPGAgjh09ilNnHZE3b16llChmG9evx4xp01G7Th15kES3GzcQFBSkzE2Z9h08gFKlSytTRPSj7N5lC5sxYzBp6hR0t7RUSik1YLKaiIgSFZPVRPSzYLKaKOkxWU0JsXnTJkybPAUzZ81C2fLlcM3FBa4urnC5elXu/iMxNGzYEBkzZVKmvt+wEcORJ08eZYqIfhQmq1MvJquJiChRMVlNRD8LJquJkh6T1ZQQ4cnqWXPmoH3HDkqpjtc7L7i6usiJ63Nnz+Lpk6fKnIRxPH8eJnlMlCkiSq2YrE692Gc1EREREREREaVqOX7PgSbm5pgwaRIcTp3CmfPn5CRVzVq1YGBgoCxFREQpHVtWExFRomLLaiL6WUgtqwMDA/G/hf8pJUSU2Pbt2YsLTk5sWU3xElfL6rj4+vrixHEHHDlij4tOF6BWq5U5X2LLaqKfA1tWp15MVhMRUaJispqIfhbhyWoiSjqFChfGo4cPmaymePnWZHVkUuL6pMMJ2NsfhtO589BqtcocHSariX4OTFanXkxWExFRomKymoh+Fls2b0ZoSKgyRURJwfH0aVy6dInJaoqXxEhWR/b69Wvs2rETu3ftwrt37+QyJquJfg5MVqdeTFYTEVGiYrKaiIiI4osDLFJCJHayOpzULcjJEyewfes2zJ47B7ly51bmEFFqxWR16sUBFomIiIiIiIjolyUNwCgNzrh521YmqomIkhmT1URERERERERERESU7JisJiIiIiIiIiIiIqJkx2Q1ERERERER0WfBeOm0A0umj4G1VV8MtZmPTYfOwPHIUbi+0yrLRBXkfgl7lkzF6EF90befNcbPWQ+H+36IeWkNfB+fh+2iJTj8VCOXhL51we7/jcPQflYYOHI2tjm/RazDuwa/xIUdizBz9CD0t7LGhPkbcPj0GRw96gqvmFcoC3nnhiNrZmP80P7o19caY6Yuwe4LzxGgzI+R2ht37FdgwuCFcAoWp0Nf49KGaRjefzAmrXVGLLuDiIjomzFZTURERERERCTR+uDC7E7o/K8LMlfqgIFDe8M8vyf2TuiNPtbz4PBSrSwYLgA3NwxAy/bTceajMYqVK4m8eAj7ldMxsHkj9Fp6FR+VhG7IaxccWDoB/ZpXQ7WG3TFu8SHc9VXj7Zk56N7MAjZLdsD++Ek47FmFyV3bwcbu7RfJbq2PE+ZadMTsq1lQseMgWPdpinyeezCxdy8Mm3sM7tE3TyJ+piurBqJli1E49NYIJarXQZXC6fDsyFLYdGmMJp1m40S0zxXieR0HFo6ARe1aaDVoLnY63IZnyBPYDmmPnlM34NAxe2yfORAzj/gpryAiIkocTFYTERERERERiUKuLMWk9SFoPWcOejYuj2IlKqNJ33nYuqI78hsoC32mwctdw9FvkS86btqLZRMHo2dva4xftRdrrYoijdoTTguGYOpRL13SOTAUGYvXQOkcQJggFWjxwWkWxm0OQpPpO3DSxQWntk9EIxNxRepXOLxgLa5HaV4dgqtLJmBjSBvMmtsLjcqboXhlc/SZtwPLuhfAF5sn0Xrh1OQusFrmiaYr9mHlxP7o1MECPUfOxw67tehdIg3eXlqFIZ1G4JCHrpW3tF0Brz2hzWWKHGnVkDcVYXiyaSmulhqLBZPbw8xQBehngVHWGNdKRET0zZisJiIiIiKi1O3Ta7juXgCbGQfwMjzfRpRgobh75jw8NCEIDo76RTKsbo3BDbJCT5mWaH2OYP5cR2TvNh7di2ZQSiWZUc6qB6pnEp9q3+LY6l14LL5dukLV0KhuE/TuXBNG0htpxO+te3lMXTMVPZpWRL7sxshbrQcmD6ohvoM4+6UznJ5EavEceheOTh7QhAQj6uYZotoQa9SX3zQyDV7sGgubrY/xp8V49CsnvWsE/d9rYtTCoagkbmeYhx2mTNipHD8qGJdtgjYd+mFIm6K6JHjYdVzRdsWUgS3QtOdc7D9/CnYOBzGpZkZpLhERUaJhspqIiIiIfjFa+JxZiMGd/kazxo1h3ij80QQt+m/EowQnO0Nxc3lPNP/8Po3R1Lw1LAeNwrSdt5RlKCmEvLqC3fOs0bpWXXQctQT7Lz1DgK4ZKNE3EBDyKRSC5jl2z5gPx7eRu8bIhhqtWqKw1KJYpsVb+104/SErTAy94XLhAi5GejjfDUVmI92yYfcvw8UnokMPvSxZkFmapW+CBp0bI0+UxskqGJsVw59SmeYd3r6JFJCEEISECNA8341/559B1M2rgb9bFkbWyGf4vo5YucQR71UFUL9pCaRTiiMzKNgZfZrlFNcqwO/8Gmx0CVHmSPTwWzYjXYI+TXl06FUeUv5dop81H4oVMIK+Mk1ERJRYmKwmIiIiol+MCsZ1h2Hp1k2Y3bUgPj19iEcPpccD3HNYi43n4hxu7EsfT2LjhrO4L7+H+Himhyrj12DDsnmYZFFSWYgSndYXbk7X4GugQmhgmFJI9D3Swax6JeRQCQi4uRb9m7XFmNVn4S4NLCjFjYY90KZQeGY5CNecbyJY0MDdaTu2bN4c9bHdCSElGqBh40ZoWL8YsoZGuoqipxelhXZ0ekaGyCI/C0Vo5G5A0pmhaqUcUAn+uLWmL/5uMwprHd2h27zsaNCjHQpGSnz7nd0PhzdaIG1+FC6UVimNLhOqNqyBbHJLbw84nb4baWBHFfT1w7dVX3wuPyEiIkpSTFYTERER0a9JPxtKdpmCftUj3b6vfQX7DQfwKvqoZrHS4JntJjh4RSSi9PPVRcsq2VnRTmqqrKjUsT/6/DMTg+oZxpn8ox8lCK777fAopkH+UgnDBmMww9IMmcUvlNrnJvb+2wPm9Ttj+u478I0cFzRv8MIjWDzgc6PJuGVYsWpV7I/l49DMJCGZ3ti+zYaoP+ZfdCueRVxCjfc392B2j0Zo1Gka9t721fWL/VkI7lx1g78YmvQyZEbGOFafrrgZdDl4Dd68cAcv/RARUXJiHZqIiIiIfl0qQ+T96zcY5PgDOZUWiQEXN2Hrjci3wsch+Cq2bL8Owz9//1yx1jPMpmulSD9IWhgbZ+WJTQqg9TqCdWtd4J3grnRSEFUO1J1siz1L+qG6ia7jjJDXl7BpVFu0GrABt8JvvNAEIDBIkD403rz+cR9Y9Xs9TLTdh4X9aiC3vHkheHNpA8a0bYFBG24i4r4QLXy8P8gJbOFTED7F0T2OKlsOGEVqeM3wRUREyYl1OiIiIiL6helBpVJB9VcrdK6tDJ6mfoK96xwQqYvZWGjhZb8eh96VQ6f2yiBkEmZ6fjg9Pe70ZKf1geP8JXD0jSMrmmpkQsHmY7HpuD2WDa6Lv9JLZSF4eXwmBk48Cm8pNuhnQaaM4vdO6w1X58hdZ/wAmQqimc0WHLFfgYF1/4Ju817ixIz+mHLUS15EOtXPmDmDLhyFvoK7R1wJ9fAuPvTxex6TiFhGRESUDJisJiIiIiLSy4ZGvVvhLzlhI+D9yfWwffyV1pLqB9i58RzSNLJE69zszJV+ZX5wWzscE/a4IxX3ACLS4u2FU3ALVCYzmaLxyPU4uHcGmuWXmh5r8ObINhz10gL6f6JAvkzQk7oCOrAZp2O9uqXGvXULcfDdV69+fZ32LS6euoHPm1ewCYZvsIPtzObIJ7Wy1rzBka1HdTORBkXMCor/itRP4HrVJ1o3IRG0/l7wkTq+VuVE1dolEFvv1kRERD8Ck9VERERERKJ0FbqjU3m5jSIQchM7NjhFuqX+SwHnNsL2YX6061kfhkpZvAS545LtEkwbORj9e/fD0LFzsPH4ffjFmknyw9Pztlg+czzGjhyOIf36wnrEZCzecQken5RlYhSMl047sGT6GFhb9cVQm/nYdOgMHI8chaucONPC57odtm7ahM3hj8074eQekaTXPHXEjs2R52/D2acxJfHV8Lltj5XjrLHovJT1CsXrixswY2h/DJmwDs5fJOqC4H5xN5ZNGYkhVn0wwNoG89Y74EGUToFjEOgO5z1LMWO0NQb0s4bN9KXYf90bidoJg7iOy/tWYNbooRho1Q/Dx/2LZdsd8dRPmZ+Y+03tjTv2KzBh8EI4ybvtNS5tmIbh/Qdj0lpnRN1tSbyPNb54cn4XliyxwzN5U0Px1sUW/9mI+7pPf4yetRWX337ZfjjE4zxWD+2IHrPO4Z34OiHgEU5v033uLdsclfdKLbTwvLQZe69K+zdCluJdMHdpf5SQmhxr3sNbblqdARWql0cm8ZnW0w7/TjmElzFk6kOf7MLi0wJMf4t06i0I0LU/D/8/dlHma9/CefMeuETZPEOYdZmPxf1KyC2ite+9dcXiqf6fDZujchapbXUQrh48hEhf0SiCXG/gobjt6Up1Qtcquq5PwombqvgZWswTEVFqwGQ1EREREZFEvwDa9WiMHPJ981q8PrweBz1iSexpPXBgw1EEVOuGTiXj3w4xwG0DBjXvgH9Pf4RxsXIomQ94aL8KM/q1gLnlMrh8jLo+recZzOlYHy3GnkLmZsMxY/4CLPxvAloaXcdamy5o0XkRrgcpC0em9cGF2Z3Q+V8XZK7UAQOH9oZ5fk/sndAbfaznwUHOqqmQObcZShfNAf9zqzFz8hRMmzwb++9GZNz0jAuidLE/EOS0Rjd/0r/YfTtSwjLEE9f3L8So9nVQp8VgzN/ugDtvQ/Bk1xB07D4NGw8ex5GtM2E9/Qg+53oD3LCpfwt0mnEaH43NULZUXuCBPVZP64eWjXpg+dWPMbQAVeP1qfno0bg1pp4MRv76lhjUrzVK4RIWdGqCoQfeJkLCWoO3p/+HHk3aY+bZEBRs2BHduzZHsaBzWD2+J5o17Ioll6TWqd+/30I8r+PAwhGwqF0LrQbNxU6H2/AMeQLbIe3Rc+oGHDpmj+0zB2LmEXGvJek+DsFrl/1YPsEKrapWRpNuY7H04F34hr3F2Tld8XfHMVi24zBOnDyOfasmwrLdGBx+G/mvo4Xfy5dQFzRH+9q5dCeX2lAE+vvB388Pfv7BCEttOU6NJ07sPBrtQgGQrmAZFPtNBb2MeVEgt5QWViGHeVc0le+q0OC13Rh07TMf+52f4IP0p9YG4tnp5RjaZyE+NW6LYpH61hCCAhEsvb/wSdfvdTRCQBDkfLQQguDgqBlwzVsH7Dr6Ltoxkg6mZczwm0oPGfIWUMrELTRphyE9ikMaQjb46lossHv95bElxrLDtuL3JGNpWE3siSJR+gDRitv3SZemFoIQEPDFq4mIiBIdk9VERERERAqjBj3RtrCSrfG/iC1b3BDTUIuhbtuw7bIhmvVsiVzxrFFrXu7CyD6L4WuxEbYrJ2JQ714YNHEVdq+3QpE0anieX4Bhk49C6mFApn2HAxOHY+3VjyhkMRJdyhjLLSdVGf9Cg6FWqG0obuK1dVh97KNu+UhCrizFpPUhaD1nDno2Lo9iJSqjSd952LqiO/JHSkal+90UJSs3Rb/RHaIk08KpsprArGJj9BnRDkVjmK8NeI13mtwokCMt1ErOLezJJiy/XBpjFk1Cu+JZxBMOfWQxyqrrB1fzErb/WGGJrwXW712B8da90NN6IlbsW4feRdNA7XkeC60n41iUTKEGHgdHo9vAtXjXcBG2Lx+FLo0roES5eug0cRO2Tq+GNL7xHBAzVlp4n5iEbgM2IajdKuxYNAztG1ZDldotYDV/NroW1EeY5wUsHjIVR32037nftAh47QltLlPkSKtW2quG4cmmpbhaaiwWTG4PM0PxS6WfBUZZDZJ8HweGZkLx6mWQXdwGXVLyPS7MGoPNgU0wdecZXHZ1xJaJjWEivrnaww4L116L1D+zCjmqdsZA60GwqKgbZFTPsDha9LfGIGvx0d8c4YdT6qHFe4dZGL7EGV6fr4Bo4eN0HFfep0GRLr3Q0EgpNqyN4VM7ooDcGDkUrxyXYZRFA1QpXRpli5VGw17z4WoyCDYWf4l/oXBqPL91Dx+kna31wp3r7tEutIjfxZs3lVbaYXjoditqDNK+x8l/h2HZJa+I12m9ceH4ZbxPUxSdezdSCiXpUNZ6ISY3y4O0Wk8cnTQA/x5/GfF+Wh9cXTIKC1xyocO8pRhcXmonHlkA7tx+Km6xSP0YN6/Hda8JERFR4mCymoiIiIgoXNqS6Ny9GjLLE2o82bMOJ77oi/YDTqzfg5dmndC9evTkTiy0Pjg6Zx7O5ugGmx5F5ZaO4TKX7wPLGnJnAnh7ZE1EX9mht3D5ui8E6CFDemWgtHDpcyN3dqkqH4SnD55FSh5KQnH3zHl4aKRWmVHTYIbVrTG4gTKQZCSqbL/BMHphJCojI8i9CUSjMi6Lxu3ao+8/rZUWmWG4cVlA5+kD0LxZT8w+dB4OR45j35SayCgl/OznYr5jdnQZb4kiUXcC+vSsoetS4e1RrN31+HMiTv1oE8ZOPICXOdpgzD81kC3KGYwB8rYZha6lvi8jqv1wHLMm7IS7SUeM6VdG3o7PDAqjlFkWeZ8J7+/g1vOIlq7ftt9UMC7bBG069MOQNsrAnGHXcUXbFVMGtkDTnnOx//wp2DkcxKSaGZN4H6dDoWqNUNu8DyxqGsmfUfPKBe7lZ2DVtF4wr5gPxsZ5UbXnVPSvKR0VGnhccsLTqI19fy56BsiaKxOerLIU968lhtpMxoRB7dFq2Bn8brkQK0ZUFPdzOBWyN5iKDSusUcsk/efjShPsB3+NIYq3m44Ny3qgsHLzhfr+Pswe2hX9VtzWJYDFY9VtaU90HTIZO64FwdtpHaaN7Inu/55VuiDS4MXWIeg0YCr2Ki339dIY4c9Mj7GmR1P83d0aEyaNx5B2f2P4mZzotnAV/s/eXcBFkT1wAP/tLqGghNiAnWB3t9jd3X163tkdZ+vfjvPsblGxO1DsBrEwUFRCOhZ2d/4bAywICIiHnr/vffbcfbM78WaWnf3N2/f+qBi7dlpGBdF+2V6sH98CxWVu2DzIAfVb9MKQAV3RokZjjL9RDON27cbMpvoDKyrx+sQSTOjfGZOdfMWLGL44OrEzhoydiVWn4gfsREREaYdhNRERERFRDClyt+6L5ta602TB7ww2734ZJ5hRvtiLrWdVqN27EwolMyNVfTiGvef8YWZjBt9bV3Htqt7NxQ2RmS10J+ZRT3Dz5mftazTBef1mZZGvcA3Uq5Qt7om7NAMyZNRFY4rIuFG1eq0hj4iEoHyNfbMW4eJH/WTREjVat0IRTctdfRLJFwF2Skgss8BCOwNDlOvcBzENNGXmyGdXABaaZqWqDzi+5xwCzG1g5nsrbh1cdYGbPBPMdZUA9xu38FlzjUDljzMr/8bNICnyN+2Aqgl1Di6zgV0xq2/4YqPE670bcPKTBLZ1HFBS7LY8lgnqj12BSYP7YOCUWehTVq/bl2+qNwmyWOoCYhiWR8e+uv6PNWTm+VC8gIVea9zvWMdaEmTOnElbhzIbB3RpbKsXXKpJrWBXPLe2TOn9AR/+s2G1AUqPPY6bzhfhcs8Z26Z2Rq0SRVG+1VisP3cRu6Y0hu0X73kDWNf7ExsvuuD4zlVYMGcOFq7bg+NXneG4qBvs9Y5Zg2JtMX7Zblx0f4UXr8WbuzN2LZ+BLuVMkLVGP0xdtAWnH3nETn9xEwfXTEM7O/WCDcpg9PHbuHTpJm45b8fkLrVhX6w8WozbiNOX9mBSk3j7LZpBTlQbvBxHrl/F4c0LMbJTQ9Rt1gfTdp7DmZ3qeZcwj/f+kSFfkz8wd/1x3HoZu65P7x3HmgVTMayRfktxIiKitJX6czoiIiIiov8i0+ro2aUUdJFkJB7u3ATnUO0DtXDc3LoLD3O2Rp/GWZN9Mh125wYehQtQvb2C3Vu3Yluc205cldujfiMHNGzUAMUtxB/pS7PDYfoBnD2zEQNKxw56Fv7uJhxXr8MFz8TaNhrDrnolZJMKCHm4HoObtcO4fy7hrbYTXCmsGvZG28IJRlqpJjWQQiqmtjJpIjFW2F3cfBQOQemJq7vi18FW7Loqh31DTR04oH5xc0RqmnMGnseR8z5QSTKjRLli4j6JT9Py3Dj1obHqE65c1HS1IIVN/vwJhn0G1jXQe/xUjO1dFTnS7BuUFDJZdNgtU9/X3knUd6tjkUSSVA1KYG6m+70BIiMRpbv332acDUWqNUG7bl3RxqEyimbXb6aeAAMLFK7WFG27dkGbhpVQJIfJd/2ybZytKKo2aY8uXduiYeVi+NrqaRlnh32d5mjfvTs6tm6ICvnMvus6EhERpQY/m4iIiIiI4jBAoc69UM9SF96p3h/F5oPvoG3o662+f9gX5Xv0RNkvWuAmRokPb94hHDJYN5mIFWvXYk2it1UY39xGfJ0+OT7e2oMFg1ug5aD1eGJWBnbZE083zRqMw6xedsik3gSF30McmNMbTep3xV/7XBEYv1eTf4nywxu8CwNk1o0xflVC2x57WzGpOTTj1snv38QDzYUCqSWssiaR5iYZtH5F1Es813btIYHM0PCn/oKUmjpOtm+pYyIiIqJkYlhNRERERBSPNGsT9G6XX/ypezBctu7AA7kCT3dsxZUMjdCzXd4U/AxeidDQMAhQwcfrQ4r7eg1+4oi5PRuh1bhzMGqxCAec/sHE7hWRI7ax9Zek2VB32l7sXzEI1W10T5R7uWDLmHZoPWQTHqXDOGnKkFCEC4DKJ/ndSMh9fBGgCdeFSMjles2A05IqGCGh2ksR8PfRG7TuJ5SaOiYiIiL6kTCsJiIiIiL6gjHK9uyO6LHKFC/2YZPjYWze8wwFOvRGPXNdefLIkMnUBBKo4HvnOtzidzGdqEh4HPgDbduMwVHD3th05B+MbFYU8bubTpwpCjUfjy2njmHVb3WRR9sSXA7PU7MxdMoJ+P7LLaxlmUyh6WZb5Xsb15NZCQZGhrpuOVQ+ePUyQNu6Pc1JMyOTiaZSFfB4+ABButJEhCIw8MdNgVNTx0REREQ/EobVREREREQJkOVph15Nc+hOmAU/nJ4xBU5h1dGju33Cg5glSoZcBfPCVAIoPQ5h+zm/RENXhdtGLD/ko7v/5B+MnnQIryRVMeSvnrATuwz+OhU+Xj2n6z5Dw7QgGo3eiMMHZqFZfk2vz0p8OL4DJ3wSWAtBBeV3CrFluQsgr7YSXuHI1nPwS7wSsGnpIWhWz6hgIXFAu0g8vHBBW5bmDAuicH7dHg25ehBOifYFDshvrsSs3W/ER3q+Y72lRGrqmIiIiOhHwrCaiIiIiH5hgvq/xJihbu9OKGaoe6QIlyNbiz5onjOhU+iku6jIWKE6ymnCZtUnHJ01HU6eCbTOjXyJvUvPQ1XQUv1AiTfnzsItQn3CbmYDW6uUnLar8MllKw7c0o6oGCOzfTcsWDkYJTS5rPIzfPWaVkulErFL4ggEfA7+IkwXNIPqaTdRAXlEAsPrCbHbn2hNZKyIauW1lYBPTrMx84inem7xRcJj91JcUBWEpXqTDYrWR+18YpDsvAmbbodp7ycqKirlg/9Jc6BmnVLQdpYSeh2rp+/Gy4QaJYfcwz8rXqJE43xiwbfXW2y1JVprsb5THUcTYub/tXVJZLq2HtRUquRsDREREVGCGFYTERER0S8tJCQUqtAQhCSQsBnYdUWP2ma6HM64FDr3rgZT7RR9KgQFafqkFiUwL2n2JujW1Frbz7Xy/VFM6NIfiw9ex0t/TSqqQqjHeawZPgDLIxqhrZ0mnBUQFaWLGVV+d+DyWD94VuDTjVO45aVpAax+nkKpW3bIS7x4L7YKVn7Cmd0n4B0vPTUuVAbFs0ghMcmLAta6EFjLNCdymmu2UoGHF87HeV2I225MHr8br7RlKnzwfPdFAKoKCdf2laxZn3D19scPbbWk2dCke1Pk1lUCjo3tgoGLDuLGC39oayHUAxdWDcfAZXI4tLfTtV43Ko3ug+shi2bVop5hy5jJOPJGrpkSS+6JZ6+DtMtU+ryHV7zJXydDvvb90FR7EUIF33Mz0LPXHBy88x7h6pmq5AF4dW0bpvQcgqP5e6FtXr3eyr+p3tT7PSxCt++EMPVxmGCtxfhudawlICwsXDtPITwEYfGOX810Tb/r2nvycIR90fhcgkyZNF3dqJfx+S1eaTsa1zzwx+Prrrr7RERERMnAsJqIiIiIfl2hD3DjQSAUb2/h5rsv26BqWt0269sKtjIJstTrjY4FExhWUeWDW3dexASRije3cP1N/HmZodbo6erXa7rhACLfXcLqP7ugUYUyKFfKDuXq9cPi2zYYMrkT8mgXYYD8lcsjl+ZsXfEcW34biLlbnXDScSMWj+qHCaetULKA5okqeDvvxIYNSzBh7Da4xySYKnw+PRd/rrgOn5hgUQU/51O4+dkQRbv1RUMLsVgjQ0U0qKPp8kRA0Lnp6N5nIhYsmIlRPZuj2QhnlBnRFUW066XA0y2jMHzcVCw+8jJmm0MeP8Yr7QMFXty/j8TGb8xcZxSmdS4AbS1EvsfllaPQrUFFlC9VCiVL1ceARXdgM2wSOuoqQU2K3G1nYlangtB0uR31xhFjWrfBkKnLsevYaThtXYrxPYdjx2vdmgj+JzBb/XjS7L14FKEtShaplQPGze6Gwhk1j6LwyWUdxrargdLF7FDSviwadp0GJ2V7zBpVHZm1rxB9U72FwPWxh+6+4gUe3kt61MvvV8dqild47Oav3grN4eyK+2/jpdEqXzx8JIbtUc/U9+NfEZDCongxWGtmGXENK0fOw07HvVgzdjjWeSS7/xoiIiIiyKarifeJiIi+2d9r1iBDhgzo3bevWEJE9KNRwf/aJvxv1Ub8s3AFjnlEAFHvcO3oOTx4+hSeKIjyhcxjWnUY5s6DyOt3kPe3SXDQa42seHoIS5auw5alC7Dpmi9i4j31vFyOncX9p0/wJDgnathl0xZLTAugVn17CB538ehNkC74ExSQyyWwsG+Diavmo3txcURHNQPrEsgfcRtX7n1EaNBb3LtwEucfyVG06xTMGFIbuX0uwfHaR0QGPMcDL1v0WjAdLfJo+ixR4dO1PTjtJUGA8zbsOHYbj13v46rjKsxf+xC5us3HsrG1kTVOsxVj5CtTEKG3LuLBxxD4v3mMO7fcEZynHf5aPR1NLB/DcdMlfMxcENWbtkLLTr3QpU4eyF6fwPI5C7Bw3Sm81TX7Rdjza7js6oGXrwXkr1AQ5vrLkZiiQO36sBM8cO/hWwTpKgEKeSQkFvZoPXkV5vUsjthaUJNkQsG6jVA2gxceP/KAb6A3PB5cx4Xjx3DpuRGqjlTXm+wMjnpYomLTLujesw/6dKuJPLrrAskkgUmB2mhUPiM+PHoID79IbXArKBVQSixRsstMrFncH6W/GFgzNfVmDa8TyzB//gKsP/VWbC0dhhfXLsHN4yXeqPLHOf6U37WOFXh6cB7m/LUYe+8G6I5J5Uf1sXYdz15HIkflXPDYsggrly/BlkuftK2zIQTA9dIVuHsZoGkdO02JlixnPmRwO4FLL4MR8u4uLpy7D1W9aZjXvwRMtD9NSNjxY8fw4sUL9OrTGxYW+ldQiL704MEDXLp4EQ0aNoR9CXuxlIjoS26urjh39ixq162D0mXKiKX0M5AIsZ2TERERfbMyJUvBwtwcF52viCVERBSXAgHPb8LlwWsESrOhoH0p2BfOAZM44XG0SPg9vYWbrj6Q5rRDpUpFYBmdl6sC8PTiZbhH2aJinbLIre10OR65D57duY1Hr/whzVYQdmVKoWh2bfPhhCn98fTyRdz7CGSzq4oapXPq+nIOf4Grl/2Rr2ZFWMdJklNPEfAct649wJtAKbIWtEfJEoWRI+FKiKEKe4eH1+/hVZAxbOzLoVThrOr1U8HvxVNE5C6eNuumCsP7e1dx+4UPojLng32Z0iiS21TbhUui/sV6S4nU1PE3UfrB/dIVuAZkgE2ZaqhYwCwmdE/Mb0OG4uSJEzh36SLy5s0rlhIlbOuWLZg5bTrmzp+PDp06iqVERF/at2cvJowbh6kzpqNnr15iKf0MGFYTEVGaYlhNREREycWwmlKCYTURJRfD6p/Xd7ysTkRERERERERERESUPAyriYiIiIiIiIiIiCjdMawmIiIiIiIiIiIionTHsJqIiIiIiIiIiIiI0h3DaiIiIiIiIiIiIiJKdwyriYiIiIiIiIiIiCjdMawmIiIiIiIiIiIionTHsJqIiIiIiIiIiIiI0h3DaiIiIiIiIiIiIiJKdxJBTbxPRET0zcqULAULc3NcdL4ilhAREREl7LchQ3HyxAk4NG6EPHnyiqVECdu+dSsiIiIwd/58dOjUUSwlIvrSvj17MWHcOEydMR09e/USS+lnwLCaiIjSFMNqIiIiSq7osJooJRhWE9HXMKz+eTGsJiKiNMWwmoiIiJLr2dOn8PX1FR8RJU+hwoWRPXt28RER0ZcYVv+8GFYTEVGaYlhNRERERERE6Ylh9c+LAywSERERERERERERUbpjWE1ERERERERERERE6Y5hNRERERERERERERGlO4bVRERERERERERERJTuGFYTERERERERERERUbpjWE1ERERERERERERE6Y5hNRERERERERERERGlO4bVRERERERERERERJTuGFYTERERERERERERUbpjWE1ERERERERERERE6Y5hNRERERERERERERGlO4bVRERERERERERERJTuGFYTERERERERERERUbpjWE1ERERERERERERE6Y5hNRERERERERERERGlO4bVRERERERERERERJTuGFYTERERERERERERUbpjWE1ERERERERERERE6Y5hNRERERERERERERGlO4bVRERERERERERERJTuGFYTERERERERERERUbpjWE1ERERERERERERE6Y5hNRERERERERERERGlO4bVRERERERERERERJTuGFYTERERERERERERUbpjWE1ERERERERERERE6Y5hNRERERERERERERGlO4bVRERERERERERERJTuGFYTERERERERERERUbpjWE1ERERERERERERE6Y5hNRERERERERERERGlO4bVRERERERERERERJTuJIKaeJ+IiOiblSlZChbm5rjofEUsISIiIiKin4VSqcTfq1eLj4iSb/DQoZDJZOKj9LVvz15MGDcOU2dMR89evcRS+hkwrCYiojTFsJqIiIiI6Ocll8thX7SY+Igo+VyfusPY2Fh8lL4YVv+8GFYTEVGaYlhNRERERPTz0g+rV61Zo/2XKCnDhgzR/suwmtICw2oiIkpTDKuJiIiIiH5e0WF1mbJlsN/RUSwlSlz7Nm1w/959htWUJjjAIhERERERERERERGlO4bVRERERERERERERJTuGFYTERERERERERERUbpjWE1ERERERERERERE6Y5hNRERERERERERERGlO4bVRERERERERERERJTuGFYTERERERERERERUbpjWE1ERERERERERERE6Y5hNRERERERERERERGlO4bVRERERGklwgt39i3GhFmH4KkUy/7DVN7OWDWiJ/qO3og7gSqxNIVUPri6YgR69x6NTXcCkcq5UHpT+MH12GpMnbIDTxRiWTpKk2OTiIiIiP51DKuJiIjSi8oXl5YORfcWTdDUoRGaRN8aNcXQzc+R4qwz8gH+7tM0dj4OjdG8dQ+MGDMDex5Fik+i70H+/ib2LRyONrXqotOYFXB0eYUQQZz4n6XEyz0LseLIFVzePx9LD/ukKmhWvtyNRcuc4HzxABb+7zB8mCv+VBS+j3B0xRh0rVMLrYctxO4LTxGQ7hdq0ubYJCIiIqJ/H8NqIiKi9CLNitojV2PL1vnoVigcr549w3PN7ekTnF23Ec4h4vOSKeDsJmy++EQ3D/XttaQqJqzfguULp6FTSSPxWZTmVIF44HwXgQZSRIZGiYW/Ahly2JeAtebQylgQpYpbpOrEUpa9BErYaGeCAqWLw4Jnpz8RBV7fuYX3UZEIDgjHj3N9Jm2OTSIiIiL69/G8jYiIKJ3JLEuhy/TBqJZRLFBTvT+GzY7vkt8aUOmB/ZtPwTcmLZIhX71WqJyVH/XfndQclToNRv8/ZmNYPTNIxOJfgVm9v3D4wimcvHgAYyoai6VfCrvjiKPPE+kbwrwuZhw9j+NnLmDfuIpIfC704zFAoUZ9MejPuRjRyOqHOvaTd2yG4Y6jExI7NImIiIjo38dvsERERD8AqXk+2FoZIFvOHDDQlgTDZct2PJBrH3xV+M1t2HXPDLmyR3+0S5DZMssvFZymPyNYWZn/YidXUmSyLoJCOfSutMSn8sHJdetxxyfxviGkmaxRpHAOJDEX+qEZIWfOLJCJj34MXz82VT7HsWH9bfj+Av3LExEREf0sGFYTERH9CCRSyNQ32zbdUMtcFzErXu7HplN+X29drfLBiU2H4FOuK9oV10XdGgyq/30SCWs9LhX8LvwPK88H/kBdRND3YCCL/dvzU1D54eKiFbgYyCOTiIjSUbgPvHyS2TqF6BfBsJqIiOgHIrFsjD6t8+haKAp+OLtpD158pdWf4ulObL1kiIa92yE3P9npBxJ8fwNGT9iPt+xmgX4oQXiw/k9M3v8WPDSJiL4f5bvbOOHkhKNHUnE7dh1v/7Pjg6sQ8voSts8aiObVa2LQtpf8PCLSIxHUxPtERETfrEzJUrAwN8dF5ytiCSVL5HXMrN8Lrj3OYFuDU+jVdA5uRajLpdbovPEkZtXJpHveF0JwYawDhj1sg91HBuHpoIqYcEFzZm+A8hPPYedAMfhOSNhbuBw9jDM3n8LLPwrG2QqgbN1WaNuwGMwSCr1VQfC4ehInLz/AW/9whAWHQMiUC4UrNEbbNlVhk0F8Xnzhnrh66CAu3nsGT38pshYthyrl8kEmN0OFRuWRDX64f/Q4HvrHtiGXGBdA7Q41kUe78kq8urAbzm8VMa1zJQZ5UaNzHeSPv3EKX7ie2oddJ+RovHAkasi84LJjPfbd8EamCt3xW98qiOkpRSsMb68dg9PpG3j6PgBRGbKhQNm6aNmuAYqaJ5H8h77F9RNHcFZdd+8DAQuboqjUvC1yHumK3pveQGI/Ao6H/4BeQ/cUUCLI4zpOH7sJmcNwtClqAKWvG86fOguXW274JMkJu9qt0LF5WWT7yvzl3g9w7vAJXH38Gr7hhrCwLoIKDVqgSfV8SOyIUu8weDofwqEL9/HsrT+kWYugXNXyyGsQgcwVGqF8nApUIvC5M04efwjTFkPRvIC4Q+Tv4LxpIeaudsLTIPVek1igSt/hcNDsUIkB8tbojNrRz1VTBr7A1RPH8Mi0BQa3KJD4MSv3xsOzR3DiymO88Q2DoaUNilSoj2bNqiNf4huknv9LuJw8igcm4vwjP+KO4044Oj+FT1RmFKjeHr06VUHONBmHVA7vB2fhdNwZrm98EW5ggdxFK6J+i6aoltRKpvjYTZjS8yoOXniB8Hhn+LIcldC6cXGYah8p8f7aQZx/Hia+p2TIXr4lGpcw0z7SScl7Q4Eni1uhzXI3qGx6YMu5maiaWDfRqdyHWur33Y1Tx3D+urv6b0kEMmTLi4IlqqFJ8zoooL/qWgkfm/J3V7Bl4RysOeKOYO2hWQW9RzSGrfbQ1P1dyet/F8eOP4J/vDqUZimtXs8ysNRuvgp+d4/ixCN/3a9fJIbIW6sTaudL9OglIvppyOVy2BcthjJly2C/o6NYmnIqH3fcePAUT5134Z9tN+AtNsAwssqLvFYJfFAICoR8eosPQQrAsAqmXNqBXv+1lhiRbtgzfT42H7uG54GaiNoAxUcchuOfdmJXgD+n9m3a4P69+3B96g5j4x9jBJJ9e/ZiwrhxmDpjOnr26iWW0s/gP/auJyIi+vnJCnRAz0bZdN14qN7j6MZDeJ9IXyAqT0dsORGCKj27oUQKgraQB5swrHlHzDkfAKvi5VAyH/Ds2FrMGtQCTXqtwu2AuAtUfbqA+Z3qo8X4c8jU7E/MWrQYS5dMRiuLe1g/oRtadF2Ge2Hik/Wo/JyxoHMnzLuVGRU7DcPw/k2R79N+TOnXFyMXnNS1uJVmgrVdaRTLFgzntX9h5rTpmDn3INyjdPOAuiasCpVF8RxhuLZON33G7L1w1WttI/90D4eWjkLn2rXQetgC7D79GJ/kL7F3RAf0mbEJR04ew87ZQzH7eJD4CrWQB9gyuAW6zDqPACs7lC2VF3h6DP/MHIRWDr2x+lZAAl2wKOB1bhF6N2qDGWfDkb9+Lwwb1Aal4ILFXRrj90Mfkdrub+Xvb8Fx5WQMal4d1ep3x/glB/DALwreF+ejW+NWGDJpCbYeOoVTjluwZGRHNO/6P1z1TezA8MPNtUPRqsUYHPlogRLV66BKEWO8Or4SE7o1QuMu83DGM4E2POrXXZ3XBV3n3EamSh0x9Pd+aJL/Ew5M7of+wxfitPgale8DHF45CQObVUM1dV1NWn4EboGxW64KfId3ikJo0rEWconBXmRIMIKDghAcGIxwhaCZCR4eWqU+FpqjZiUH9B2/Ak6ugYnUnwp+N9bit2YtMe7QB1iWrI7aVYvC2OM4Vo3rjqYNumD+6XdxWyXJvXDHcRWm9m+hnn9D9B6nm7/i40Us7NYcXdWPdzudxrmTB7BuSg90GuuEj4lUZ3Kp/G5g3ZDmaDP6MD5alkC1OlVROMMrnFwxDj0dGqL73NPqehGfLErVsZsEiVkOZFc8wK556veR5r00bSb+Vr/Ps9pYwVB8juY9ZWZTCDn8TmH5jDnYfg/ImkXvi2Wq3htfk4p9GEOJj+f/h96NO2D2JTkKNeyEnt2bo3jYZfwzqQ+aNeyOFS66LpOSPjZVCPL0hKJQE3SonVv3RUgVidBg9XGpPjaDgsMRpT40paZZYBpyCzvnR9fhHOx9ZgG7UvlgGvPtSYpMtsVg63cCS6bPwpbrUTDLzG6AiIj0SbMVQ9UGrdB76goMrx7dqkEG23ZLcPj0KZyIfztzDlfuXsW2kVWQRRKGkNB4Vw3/C4zs0GnOFhw9OhU1M4tlRBQHw2oiIqIfjgXq922PwmLzipBrW7D9fkJ92UXi4Y5tuGneAr1bicFLMig992B0/+UI7LwZe/+egmH9+mLYlLXYt3EAihoq8OnKYoycdgI+0WmUyhuHpvyJ9bcCULjzaHQrY6Vt+SE1yYMGvw9AbTMg+O4G/HMyQPf8GHLcWjEZm+VtMXdBXziUt4N95Sbov3AXVvUsoNd6xBjZCpVCpaaDMbpT8QRalUhhZmuHCo0H4I92xRKYrkKI1yeochdENqPo1tdReLllJW6VGo/F0zrATtNUXJYZFubiq5We2PvHAKwI7IyNB9Zg0vC+6DN8CtYc3IB+xQyh+HQFS4dPw0lv/UhOiXeHx6LH0PXwbrgMO1ePQbdGFVCiXD10maLeR39Vg2HgN/Q5GBYF06JVUCaXFJHid7OIh8swcMxRqCp0wvCJ4zG0iwNKZNdEjgr43VyF4SM240X8dE/lg3PTumHAqk9ouuYg/p4yGF06dkaf0Yuwy2k9+pUwxEeXtRjRZRSOvIsbDctvrsTUjXK0mT8ffRqVR/ESldF44EJsX9MT+fUrXjBEdvuaqGRrBE3uHJ80exV0/m04hnSppGsNLMkMu1aDMWz4cPVtMBoX0cxMgGF2e9SobAujhGYSQwWfs9PQo+8qeDdfg33rpmBgtw7o1G8UFux1wj8DSsDw43WsG9YFYw69iw27hVBEmtijepls6sNBN3/V56uYP24LwprMxI6Lt3Dj0k5MamyjPqYUeO+0BBvvpv73xirvs5jRtR9Wf2qGlY7/YNLgbmjfuS/+XLQHhzb0RwnDj7i+9jd0H3UY72NWMhXH7ldIzQuhdt95+N/gUup3loYB7Jv1QaMS2RF7PUuKzHnKonaVgsicuzUmzuqOCrnFsDpV742vSeU+1FLB98xU9Bii3m/t12LXspHo0LAaqtRugQGL5qF7IRmiPl3F8hEzcMJPvU5JHptSZKvaFUOHD0Pnitm1fzMlZvZoMVhzXKpvg5tAe2hmzId6Q5dixe8VYaJ5mcQMdnUbo1xeC706VP/lylYEVUrbImOO5hjzVw+UtUruX2Eiol+M1Ax58mRJ3rmqQXZUHb4QI2sYICwk7ifCf4ksVxmUtE7eZzvRr4ZnVERERD8go5Ld0KO62NxC8RIHNpyGJoeJw/80Nu33RPHOvVBN99v+r1P54cT8hbiUrQcm9C6GjGKxRqby/dGrhmZGKnw8vg57ozvLjnyEG/c0A+RJkDFDxrgDN2awhnVWzelEGDyevkKcqC/SDRed30EpD0d4nO8aZqg2YjjqW8RvhSiFpaV53PnHIYW5ZeYEpkthVbYx2nYchBFtxTA76h5uqrpj+tAWaNpnARyvnIPT6cOYWlMTPangd2wBFl3Mim6TeqFo3EpA/z41tF0lqD6ewPo9L2KCM8XzLRg/5RA8s7XFuD9qiF0BRDNA3rZj0L1U6r90GBeuBoeGzdFvYBNd9ycqX5zZ74Fmfx/F7r9n4feBg/Dn3LU4cHQtehbTtE4SEOSyAkucfNVbFE2JN3vGY8L2F8jVeRIGlYvbr4Ise02MWfo7Kqk3MOqdE6ZP3g3PmH0TCbcLV/BOKUd43B0Gs+rD8VuD2H0jzWaHqnUbo/eQFiiQ2k2WZkPxanXQqO9gNC+Y+EyUb/Zg4rgdeJmrC8YPKRu3+xJZNtQYtxTDK2s3CEenTsbe6A3KUBhVG6nn378LqmuPNSW87rxBuVnrMK1vU1TIlxVWeaui14yhqK6ZqdITN66kss9I5RvsHT8eO1/kQqdJQ1A27koiW81x+N/vldXHVRTeHZmKKbs9xeMqpcduchnBrvdgNMqm2W4F3O/dQ7hugp4w3Dh6GSYtuqBazPqm7r3xNaneh2oq/1OYqz5O39p0wrhBZcRuTEQGRVDKTvc3QfjsikevFWlzbGoZoHC3YWhprX6jC59x8+ItdY3FF4brp11g3rIH6jGoJiJKggSGhoZJnOPFI8uNRs3LQCZP6mL2z84QMvYcRZQgnlURERH9iKTWaNmnuThgooDPZzdi70v9aEiJl3u34LyqDnp2LqQLuZJB9eEY9p7zh5mNGXxvXcW1q3o3FzdEZrbQnRxEPcHNm5+1r4FRSdRvVhb5CtdAvUrZ4p48SDMgQ0bdVw9FZLxWqYIccvWXDOXrfZiz6AI+6qeAljXQslURxO/6ViJJ9teYBEiQxdJC90XIsDw69i0fE2zJzPOheAELXV/Iqg84vuccAsxtYOZ7K24dXHWBmzyTuF5RcL9xC581SbDKH2dW/o2bQVLkb9oBVb/oH1dNZgO7YlbffHIls8wCM81GSC3gMHEpBpQ3jzNPWfa6GDO7p67lvRCAS/tPIKaRa+BF/L3iIj5LC6B+0xJiy9q4DAp1Rf9mOdTzFBB0ZR02345uDS5AHhEJQfka+2YtwsW4Oww1WrdCkXidmUuyWMJcvJ9qkiywSHQmQbi0aiUu+UlRoGETlEhwgwqiy8CmyKFeNSHIGes33kac9u3SzMicSbPeMtg07AoH27jvFqmVHYrn1pQp4f3hQ7IDWH1BF1dj1UU/SAs0QJOSCa4kCnYbgCa6lcTVfzbhTpyVTOaxmxLm9dCtVX7161T4eOYgLgaK5dH8z+HA+exo2a5kbGvh1Lw3vupb9qESr/duwMlPEtjWcUDJL/rFN0H9sSswaXAfDJwyC33KxrZ7TpNjM1N19Ohkr64fFd4f2YoT8VuTB13GkYuWaNymVJwW10RE9K2ksGo7BX9WSehDg4j+67Snm0RERPTjMa3RG51LiRGI/CF2bXRGqO4REH4T23c+QI42fdFY27I5ecLu3MCjcAGqt1ewe+tWbItz24mrcnvUb+SAho0aoLiFmKZJs8Nh+gGcPbMRA0rHfmkIf3cTjqvX4YJeK8g4jO1QVRNuC8F4tG4gWrYdg/UX3+paeEqzokHv9ij0TS0f45NCJpOIrXZkibdWCbuLm4/CISg9cXVX/DrYil1X5bBvqKkDB9Qvbq7rkiPwPI6c94FKkhklyhVLJJjStDw3Fpf/DSTR22AA4wwJb0TGMp3QupSuB2L549uI7iUm6JIjTn9QAUb5UaRwYvGZKao2rAFLzUKU7+B83k1sEW8Mu+qVkE0qIOThegxu1g7j/rmEt7odBquGvdE2um8akUQi1azut1HPQJrYTAIv4dCpD1Cpazxf0cKJBoKm1RqiehbtBuHdlQtwi3PdRF2fSa2jxAJmYlPfyMiYjtJTIAiXD57S9ndtVKAoCiW+kmhQM4t23yrfXcYF/U7Xk3vspogxynRqj5Lq9RF8z2Pf0Y96LfBV8Dq6H7eLt0VrvYEuU/Xe+Jpv2YeqT7hy8RHk6vqxyZ8/wYtyBtY10Hv8VIztXVUbdkdLk2NT07q6cw/UNJNACLqE7Xuex2l573/+MK7ZNkNLbd8hRESUJiIf4cy5t0lePJZ7u+GJZ/TnqAohb27j7BFHOJ29h/cJjKHypUj4Pb+JC8cP48iJK7j33CeBXyB9SRHwEnfOH8eRQ0dx/sZz+MU530ia3Nsd18864cjR87j1zCfuhfUkyeHzxAVnjhzEoWMXcPdtUJJ1owxwx6XT98Tu/BTwdbuE40cv4Vm88WiIfmQMq4mIiH5UBoXQqXd9XaioDZc24tA7zYmmCt5OG3HEtzy69yyXYOvZhCnx4c079cm4DNZNJmLF2rVYk+htFcY3txFfp0+Oj7f2YMHgFmg5aD2emJWBXfbEkjUz1B83Bz3sNT/TV+Dzw/2Y19sBDl1m4sDjQPVWpA/lhzd4p/4iI7NujPGrEtr22NuKSc1hrd48+f2beKC5UiC1hFXWJJLEb0/Hkkdmg7Klc2tb2wph3vgUpKlNOVxvPUCwoF6NjJlgksRqGtvbiX2ia46Jt4iOaM0ajMOsXnbIpN4Mhd9DHJjTG03qd8Vf+1wRmA47TO56Cw91G4RMJkkEgsb2sBODdKXXa3imMHP+pt0md8XtB8G6bnJMTZL4lYMx7OzEX0EoP+DN29QE4ykjK9gG7bXdCYXg+r6DiPlxhvIFHA8+R+WOutbM0VLz3viab9qHUS/x/LUmHpZAZmiYLl9cpNmboUcLzZgAkXDdsxXXoq8Yqrxx+vBtFG7RHHmTUQ9ERJQ8Ss9rOH3r0xeBrMLvKS5sX4QxXeqjWrU2WOgcBlX4czhOaI069Ttg8Ig/8Uf/tmjoMAjb3ROLgiPx7sJK/N6sHjr+uQqHL9/Eld0z0a9xNdRoPAxrr/kkGAQrvG9g05i2aNBoAOZu3I1tSyZiaCcH1KjaAiNXX4FXEn2IyT3PY+WQpmjcZRp2XHbHi9sHMbd7fTTsvhguiQ2UraWC3+1NGN2iPjqMWoZtOzbgf2P7o2Pt6mg0YAWuxfm1jwJ+j49i9dguaFC9KQbOdsKrSG9cmNUOjZr3xojfeqN121mxn2FEPziG1URERD8sKawa90Gb/GISEnwN27c/gFzhjl1bLyNDI/W0FKUkSoSGhkFQn/z6eKW8u4PgJ46Y27MRWo07B6MWi3DA6R9M7F4ROZJIy6XZ62HK3oNYOqgGrLXPk+ODyyaMa9cCwzY9RIj2Wf8uZUgowgX1VwCfD/iQxJcLfXIfX2gbpAiR2q5N0p8M2bLrWulq+jw0lGlO6dRfanz9tRcBhIgwRCSxmlLLbLDQa+Iak9VKs6HutL3Yv2IQqtvodqzcywVbxrRD6yGb8Ohf3mEqX1/46zYIYeFJfKGTWiJrghv0L1D5wle3kogIi0jiIowUllkt9VoW/wsrKc2Jph0bIKt6UZGPDuDAfV0TsMj7++EU0BAd6sbtKCM1742v+aZ9qApGSKjmNSr4+yQcIHx/JqjSsxPs1aumeu+EbUc/afex6v1xOD0ujeZNkj+4LRERfYXiE86v3YuH8T+DAq9i8/KdOHn0IJxcPBComR7+GBt+G4W9IRXQd/o8TB3eHIUzSRD57jQWTNuGV198aMjhvnUougw7CKMB23HcaQuWzpuNhVsO4Z+++RHqfhwL+/XF8rtxg+5w9x0Y0XYAdkv6YPOl89i/fSv2XbqNK7vHoqrBExxd0BedhmzH0wjxBXqC7/6NQW2HYI/QC+uO7sGKmWPw5/SV2H/ib7QMv447nxL/XAy6thD9Bu9FhiE7cOr4bmzdcwxnjy1B67wReH1mMQb1XYw72vBZCa+zq/G/v7dj7+Hr8AxVf5ALCrzeOg3r3xVF9RJW2sYNke9d8cQvfT5JiVKK51ZEREQ/sgzl0L1HJeiGVlPgxb4NOHR4E/Y9L4h2feqlsE9WGTKZmkACFXzvXI/XVUJSIuFx4A+0bTMGRw17Y9ORfzCyWVHE6744caaF0GzCNhw/tgZD6+aBtttZuSfOzBqM6Sd8tE/5N8kymULTzbbK9zauJ7MSDIwMdS1iVT549TIgiUDy3yOodGm0xCIncmm7sZDCJJM4AGbke7x9l9QXkuiuJmTIbmsTrzWwKQo1H48tp45h1W91kUe3w+B5ajaGTjmBJBsBpTGpqSky6DYI79++SzKslBnoDkhZDlv8q4PrS0xgKvbbHvn+DZKsdgOZ7uRblgO28frO/l7M6nZCM81FLeVrOO25ghD1f857jsO4eUdUjNcHdGreG1/zTftQmhmZTDRlCng8fIAg7dTEhCJQm16kPYPCndG9jhkkQjCct+3CU4USr48ehUfFlmiYPbl/CImISEcJL6dJ6N6uPTrq39q2RONqdTFs7xso419wN6+O/jNmYO7yoaisvZYehUe790H62zbsWDEVQ7t3Qs9RS/HP6Crac+awu6dw9n3cT5zw20sxevZFGLadiWmt8+n9MtEUJWtrukFT3w13w5HD99SfWDoqv/OYM2QGzmfoiNkzWiBfzOemEbJVGYJly3qjsKECH878hZH/ux7bXZ+a6tNxzBixCNcMW2LavE4opDdosdSqGkbM6oViiZ0KhLlg6aRNCG89ExOb5o1ZV+N8zTFOfW6mGdsk/PEmLNmjriv1uVzuBiMwZ+UWzGiTU3ueofI/D6egnljz9wIs33cIm+eOxaTls9FFO4I30Y+PZ1dEREQ/NBnytO2NxuJv9QW/U5g1+QhCq/VEV/uUhl0y5CqYF6bqE1ylxyFsP+eXaOiqcNuI5Yd0QbLiyT8YPekQXkmqYshfPWEn9u/7VaqPuHbufsyJu2mhxvhzkxP2zm6OfJqzbuUHHN9+QjcxHkFQJhlqfQtZ7gLIq62EVziy9Rz8Eq8EbFp6SNvnn1HBQtBli5F4eOGC2A/g96aCMtHlKPDpo492/5mWq4Ky2i9PhihqV0j9f83kl7hzK/H9qwr2gZ+mc0ZpDlStXUJs7avCx6vndN2daJgWRKPRG3H4wCw0y695hhIfju/AiX9n47UMi9pB1/W2Ah53biW+r1TB8PHVNGmSInu12iih10D3uzMqCrvCuv7DFS/v4E7iK4lgHz9o1zJHVdTSNNX9N2Qoj45t7dTHhQreJ/fi1LOT2HfJFq3aF/uiy5LUvDe+5pv2oWFBFM6vW8uQqwfhlFj/+Grymysxa/cb8VEak2ZDk14tYaP+MxzlthdbL9yH0zEvVG9VD5biU4iIKLmkyFy0Llq2aYPWerdWrVuhRfOaKKgdZTphUrPsyGaimW6A4t0no09Z/UGoZchdvRoKaj42lJ547aF3AVPlhcOrduCpIh8atauE+KeyxhW6Ylj7qihV3gEdmxYXz4vkuPf3HOx7JaBYiw4ooxc2R8tcaQiGOmh+6RaJ5zuWYs/r6M+pUFxfOR9O7yQorD6Pr2MhFusxKloDlRLsT0sFvxObccjTBvWalhYbrESTwqpyJRTVfjSG4e65y3qNCAxgba0ZQBuQZKiCngOrQjseuLENqnYZgj6NCsWbF9GPi2E1ERHRjyCJLhtgXg+9OhXThZBQIFyeDc37tkDOBD7Fk5qNRsYK1VFOc4au+oSjs6bDyTOBloiRL7F36XmoCmpiGCXenDsLtwjNFwQb2Fql4NRB9RHXt+7H7Tgj1pjBrtsiLB9UQhuUqT776oq1pJBIxUHmwgPgHxI/1RIQGanQbaNSjogEGn4KMRWQRE1krIhq5bWVgE9OszHziKe6VuOLhMfupbigKghL9SYbFK2P2vnE0Mx5Ezbd/sroPVFRMf1Ap5oQiuDgRJI9xSvcuvcJKmkuNOnYALrvQFLkatgclTNrajAMtw4fwdtEsr2wO/fxTL3RxqW6oHvMSPvq+nDZigO34g4xlNm+GxasHIwS2i9/n+Gr37Q6psKFRGo8etBAAWJD8ATFzCXec6S5G6JpZU2f5+p1vnEETolu0F080G0QOveoEq8fd/W6ifONP/8vfG16QqS50aBZFW0/3wi7iSOHExsUKgz37j1TH2vGKNmlByrHa9WcrGM3VQxQuF1HVDZVzznoItb/uQ4PyrRDS9sEviCn4r3xpbjr/037UJoDNeuU0t0PvY7V03fjZUINvkPu4Z8VL1GicT6xQO1rx6buwFRvqipZNW5SpQc6aAa8VX3AsTnjcDCgLlrUSu6VOyIiiiVB5iIN0LF7N3TVu3Xr2Q/Dpq7B9jnNda2cEySBVDtNAoMExjKQZc0CC02hEIFwvdMZld8lnL4eDMG4EIoXTeBicQY7dF6wEwcPrMGQyuLvFkMvYudBDygklihWMt8XF3i1pFao27yWbnyZsHs4ffq9rjzwHHYe9oRS/TlWoao4XkV8UjNk1p48xBeB25dvIljxDvuG1EHNqtXi3Gp33Ih3WXMhV65cyK4KivOLN0Mj3ZIkJmYwj3eeQfQzSfRPABEREf2LhGAEh6oQGhySQHBigOLdeqGW2NLEqHRX9Kxmqr0fh/qENVjTT50ooXlJszdBt6bW0MRUyvdHMaFLfyw+eB0v/TUJkHr5HuexZvgALI9ohLZ2mhNeAVFRurhK5XcHLo/1g0wFPt04hVtemvBJ/TyFUre8kJd4If70UvnxNPac8FbPWZ8xCpaxQxapBBnzFhDLdDLlzKn9aSMUD3DxnP7rQvBk90RM2uWhK1N+gOe7+DGaev3DInTrIIQh5IuwW6RpJdm9KXLrKgHHxnbBwEUHceOFv/Znn6pQD1xYNRwDl8nh0N5O9wXDqDS6D66HLJp1i3qGLWMm48ibeIP3yD3x7HWQdv2UPu/hlfxh3hMmhML1risSmk2Q8zY4PlEha/2RGFpH225GS2rTHiN620PT+Cf81nosdvKKV/dqqnc4uvc8AkxKY8CUPmLrHJHyE87sPoE4Y/aoGRcqg+JZpOovP3lRQK+PDVVIMLSHnPpLYWhY/KNN/WUps65bCag+461HdPcpKvg/ug7X6FHpVZpjXzsThGv7VNcjtUG7kb1hr9sgbFx4FF5fbhDeO+3FBX8TlBo0Bb3j/6ZWFSb2lZzA/DXU9RyqPawFyCPCEghnv0YK6/Yj0Uu3kri9fhGOfbmS6mp3wr7z/jApPQiT+sZv1ZzMYzeVpNbN0aGelfqrfSSeuwWiZofGyJrQt4DUvDe01OuvrkTtXowIR5xD4Zv2oQz52vdDU+2VORV8z81Az15zcPDOe2h2qUoegFfXtmFKzyE4mr8X2ur14Z/0sSlBpkyaLpHUz/v8Fq9ijkV/PL7uqrsfn6wQOvaoA3P1i8JevYZho1aonEArOyIi+hZSWFaqgCLxPsqTTao+V9HeiXuhMsr9MZ6rT6gkxurzkmSmYPIHV3HbXz0XaWZYWOjmmhCTsqXF9Y3Cq+fPtWXyO1dxN0Tz2mzIlSuxjYm+oB+P+vP3hYf6HN6wPH53csYVl2uJ3i7uGoYU/9CS6CfAsJqIiOgHEPrwOh4GKuB5+zq+yGDVpDmao3crW8gkWVCvV0cUTKBRpMrnJu68iH6xAm9vu+DtF/MyQ63R09GxoK5VSeS7S1j9Zxc0qlAG5UrZoVy9flh82wZDJneCrls7A+SvXB65NGcMiufY8ttAzN3qhJOOG7F4VD9MOG2FkgU0T1TB23knNmxYggljt8E9OoxSfcbZOSOxykVvcDSVL66euoHPhsXQtZ+DWKhjXKEhamu6PBGCcH56V/SfMB+LZvyBPs0a448rZfFb1yLaoB0Kd2wdNRQTpyzC0ZhtDoHrYw9d2Kh4gYf3Eh8NMHOdUZjWuYDuZ56R73F55Sh0a1AR5UuVQslS9TFg0R3YDJuEjjF9+0mRu+1MzOpUUNvndtQbR4xp3QZDpi7HrmOn4bR1Kcb3HI4dr3XrIvifwGz140mz9+KRpmeDVFHi9Z55WHMzbh/ZIW7bMW7iPgSUHIhFc9sjbgNZY5QdvhTTmtnCSPUJJ6YOwZxTnrGBt8oPt1aMUe/j3Oi4cCV+Kx//oocKn0/PxZ8rrsMndofBz/kUbn42RNFufdEw5qesKny8dRdvNJus8sGjO6+/CHqlFsVRzEazghFwWf4HFmx3xL5VY/H7Wg9kyqw7DVV9uIV72npTwffhHd389BiX+w2LZzSDrZEKn45PwbBZp+EZu0Hwu7kC4xbeRq7OC7B8RDnE3yLF60dw13zZ1Mz/8f0vWpurfB/gkfgLg6inD/E4NfsrQ1kMWzYDTW2NtH1UThs8C6djV1Jd7Texaswi3M7dGfNWDke5L641Jf/YTR0L1OvcBNbqKpflbY4ONRNvEZzy94aa8gMeuuoGbRUCnsIt3k78ln0otXLAuNndUFgbDEfhk8s6jG1XA6WL2aGkfVk07DoNTsr2mDWqOjJrX6HxtWNTCovixaD99XXENawcOQ87HfdizdjhWOeRWN1IkbVpb12LdIOCaNKqnK7FNxERpSlpVgf06VQ03kXdb6MKCECQ+mRKCAtEUEK/0ElA1MePuq6rhChEJjG4ttQiF7JruyYR1M/TfbiFqF+ruw4qQBXvvOOrlEEI0lxtFfzhG7/1ANEvgmE1ERFRelH5w2XjTEwa3hWt+m3CS/XJbKjLXHRq1Q9jpqzA6Tipmgkq9eqKCnZt0adJVr0PcAWeHVqIqX8OQNuWE3D6c+zJdJjLPHRu0RdjJs/DQdfYqEaarQGmbVmDYXVsxIHP1JThCApSwsy+HWZuWYleRWJ/Imlc5TdMH1gWljL1ifsHZ2yY+jtGLzyDsJoTsXxGV7SuW0Lbklfx6hj+3uWFquMmormYoEoMLZDL9AXW9W6Klj2HY/LUSRjRviX+vJADPZauxR8V4/WeZ14fo+b0RWlz9RaGv8LlXX+r53kLQt1Z2LisI/Jq+0IxgHmhmmjavDk6DBuO5oUkeH1iCSb074zJTr66ljSCL45O7IwhY2di1akEumWQZkP9GVuwanht2MRWAsKDgqE0s0fbWVuwoncRsc9CkTQHHGbvwLqxTVHYTAal/xOc2boEU4YNxoR/7sGq7wpMqZ0FBmb5ULnNQAwbPhLjxndEydT+DFOaFVUdcuH0YAe07jsa02dMx4RBbdCk21qENJ6HXVvHoUZCzWONCqL9sr1YP74FisvcsHmQA+q36IUhA7qiRY3GGH+jGMbt2o2ZTeMPrKgmUddtblO8XNsLzZv1wu8TpmHysA5oPfICsvdaijWjKmr7O1S47sfsP3ui1/yrYp/kkXi0oic6D1+M0/r9ChuV07ZIz6FekNLHBesnj8X/rlhjyIzOyCu44cBfo9C7xwJcE/vJjny4Er07DMeSk+90BVpGKNBxKXZtGofmdgZ4snEQmtRuiT6DBqJ705poNuYmikzYhZ2zmsJGf4MU7nCcPRK9+v+Nx+LhH3l/Jfp3GYEZO+4hzMcZG6ePRv9uc3E5WDdd+Xo7RnYaipn73HQFKWBUsAMW79uIsS2Lw8BtE4Y2rIPWPQdhcJemqN14LG4WnYAde/5CkzgDKypTfuymUsbKXdC6uAns2nZAmaRS1hS9N+R4uHsmxnTvgcXXxZRf8Rhr+nTDmBXndY+1UrkPtaTIWn86tm4ch6ZFMusuVqmpIsMhFyxRsusC7No2GhXFX20n99g0KtcTA+vnUL8HlPBxWYepYxbCOfcwTO2cV3xGAjJWRKc2xZCheDO00P7yhIiI0pz6cyhfPrM0DaukGTPqznkVz+H6lQGEVSpdQCwzjB5c+zM+fIi9AP0lQxhrPxRlyJ4rl7ZEJhE/P5Ve8Eyoy72kSDMio2ZlFR64eyf+rxN/bQ/u30dERKpbgdBPRCKoifeJiIi+WZmSpWBhbo6LzlfEEvpxKRDw/CZcHrxGoPqLQUH7UrAvnAMmCX47iITf01u46eoDaU47VKpUBJbRWY0qAE8vXoZ7lC0q1imL3AkEYXKfp7h7+xFe+0uRtaAdSpcqhuxJ/IRe6e8O54v38AHZYFe1Jkrl1M00/LkzrgTkQ42KNmk2SIwi4DluXXuAN4GadbNHyRKFkSPhSoihCnuHh9fv4VWQMWzsy6FU4aww1rQQffEUEbmLw/obVk75cjU6NlqIByprdN9+DlPsveH68CGeeYbAMGt+lKpcHvnNoyO7r5CrX+tyE0/eBUCVKQcKlKmMcsn5Aij3wbM7t/Holb/6O2NB2JUphaJJ7bAkKeH35DKcH/sjg20ZVKtUAGKj6lSQw/vxddxye4cAIRNyFCiNyuXzfcP8vg+5tyuu33TDe38VMuUsoN1n+czSeyVV8Ll7Be9ta6JM4p2BxpGa98bXfcM+VIXh/b2ruP3CB1GZ88G+TGkUyW0aE2CnmNIP7peuwDUgA2zKVEPFAl97b/jjyJDG2FFmD3YOypf65RIR/eDkcjnsixZDmbJlsN/RUSz9FpG4OcMBPTa9UZ8VyFBw4D44TSwbt1FAQkKcsfyfUIz4s5HuccQZjK0+CAf9DFFr7g1s7BJv5MLA3ehbcQIuR5mhxeqbWNJEd/6ofKE+t2qsPrdSSGHddSOOz6n9xS+xtJTPsW7yCVT9awSKvViKds2XwVX9mtzdt+LMrOoJ/6Im6CCGVBmFMxG50HnTBcyqbQz5talw6L4N71Uy5O29Hcenxx9PQ03hjmWtWmCFK1B8xGE4/hndvVYADg6ojrFnwmBU4nfsPzgSdglVlMoLx7beRukeLaH9EZu6Zt+s7YRGc+9AyNsH285MRaWvVnDaad+mDe7fuw/Xp+4wNk6wplJFcyweP3YMWzdvwSP1+fAN9fmplZWVODVp+/bsxYRx4zB1xnT07NVLLKWfAcNqIiJKUwyrib5N/LB6erW0O+EnotRTvtmIXu0voYnjJnSzSe+LD0RE38+PEVbL4ba8F5aYL8K6Xja6oogzGFN9EBy1YfV1bOyiGQxcTyJhNRQPsbh5O6x2VwDGdui/ZSfGVxF/khNDgTf7/sBMz4FY+2dJGCieYGWb1lj6KBLSXB3x96n5qBc7TEgMuct0NO62BZ/sRmDfwT9gr9mosAuYUK8/9n1UQWJZH7Od1qKjLlGOpRdWFx66H05jS4thtRJv13dDk1k3IJdkQrmRW7Hx97KI20mVCn4XpmLk+YZY/1dtMQjXC6vz9Ma2s9N+6rD63t17OHH8GA45HsJnPz+xFAyrfxE8yyIiIiL6keg1I2CLAqIfRSCurNkGz7q90IpBNRFRCgkIDQ2N6dJCoYgS7yUmHB5HpmLUBglq1M8tlqkJEQiP0JwdaQZNjp1fNFVIGLTdSwuRiIjQ637DwB6detWCdpxEuRs2DOqBydtvwEscN1wR+Aynlw9D/xVAm+72utDYoCi6jWwDTe9dqg9HsHz9A/VaxReAS/tPwcuwOHpO6qcLqjVMaqJPH90YDIL/eSwcsxb3g3SToqn83+J9oGYLlPD78AmxnZPIYNOqC+pZqVdWCMHdZf3Rd9oe3PAI0I2/oAqAm+NfGDz+Acp31G/tra6TMF0XGarwMIQl2n+ICoF3NmNi7y7oO3IpznomsxPvf8HDBw8wb/Yc1KpeAx3atsXG9RviBNX06+CZFhEREdEPRAgLRZj2TjjC0nqcPSJKlrBHOzChe3t06T8RK3cdwp55QzHpdB4MHFY7Xus2IiL6qgh33H0UIF6EV+LDjZO47O4JLy+vuLd3Hnhy/SjWjmqPdiP34q1dQ9TPHRtbRbq74YU2j1Xg1aNHEIeciBHy2BWvtMMTROG5q1vsANOQwbrjdExqZq0NooXAR9g9uTPqlC6FSuVKoWSZRhi68jkqTpqMptmjlyeFZf3JWPxHFWSRRuDxmuEYs90NsadmoXi2cwJmncqI5nNW4M+q+s2uDVCk3zxMcMipvifA32URerbqjalLd+DEhXM4vHEuhvZdhNvawRUEfD4+G4NGTcXiQ0+1r5Zma46xExsjl2ZlVZ9xd8t4dKtXERUqVkXlkhXR8o99iOowFf1L6tpia2lCbHWdajZfCHiCx/FHrI6mcMemqbOx9+J1XD60DCN/34BnKexWOy09fvwYC+bNR92atdC2VWusX7cOXu/fi1PpV8VuQIiIKE2xGxCib6HCp9390Xj8BfUXMAOUGnUC+4YXYt+4RP8qOS6OrYUBe73FYEVNYoka0/difa9CuhZ3RET/YWnVDYji8X78b/c1PL15HlefBWqD1OQzQqXJZ7Gtvy1kCjccnPcP9p04iVvvxQhaZoni9Ruhccff0D+7M/634zxunj2Hx37iUgyyolSjtug9cgxaFhb/csvf4PTSqZi7+Qo8w6P/wktgWrAphs+Zhj6VsyVwzhWOl8eWYfaC7XB+EwnLYpVRPr8RfJ+6wceyNvpOHI2u5bMmfK4W4YGTi6dh7tareK9tEa5hiKzl2mPU9PZ4P6EzNgWWRp1mLdCqbUvULmqhN59wPD80D5Nn78Idn9iW6BLT/Kg/eBb+GlYNuiEolPBQr9+6A6dx+uJTaBtrq2XMUwUOtUuhcrs/0VF/ZGXlO+zq1xRTLwbrPuMMymLM6X0YVODbzjaT2w2IpoX91SvOuHjhgvbm7e0tTkkedgPya2BYTUREaYphNVFqqPDJeQu2nLiOy0fPwj36m0YGW1Rp1gDlq7fD0Lb2CQ/sQ0RpTAW/szPQ/fdteB4qQybrkmg4cAom9ygLc/4ulYh+AWnfZ/WPRRn4EneuP8KbQBlyFC2D0va2MP/alUhVCDzvXcf9lz6IMLZCXvtKKF9IP1xOnGZ5d2+64YPCCoXVdVo0pwmkqiC8fuYPqyJ5kx5kWO4Dt+s38OSjHJlsi6GEfVFYf3VlvyLoBZyveMCkuAwH+6xEznX78VuR7xNWf/z4EXdu31bf7uDOrVt48uQJVKpE+yj5qrMXzsMySxbxUdI0YfW8OXMYVv+EGFYTEVGaYlhNlDqKUH8EhCpiW3LqkRibIas5o2qif5Mi0Avvgk1hY2PO1tRE9Ev5r4fVpKPy3oVBXR+j19HZqJFBLEyl6LB6w+bNeOr+BO5P3HH79u0foksPhtU/H4bVRESUphhWExERERH9vBhW/wJU/nCeOQTbC87Bqh4FvrnLOf2W1YGBgXB/8gS3b93G3Tu3teUREbrBH79VhYoVYWhoKD5Knp69e6Ghg4P4iH4GDKuJiChNMawmIiIiIvp5Maz+b4v0voMDqzfjYZ6+mNC7LMzSoIurpPqsVigUeOLmpu0O5NbNW7h27SqCg+IPj5k8Kemzmn5e7HWNiIiIiIiIiIjov07xDKcPusG27wLM7Zs2QfXXGBgYoGSpUujdty9W/b0Gt+7exc49uzFg0CAUKlRIfBZRLIbVRERERERERERE/3UGRdB8cA/UyJNRLPj3acLrSpUrY9yE8Th59gxOnjmD3/8YicKFC4vPoF8duwEhIqI0pekGJCQ4GP9sWC+WEBERERHRzyIqKgrDBg9BcbvicDp+XCwlSlxS3YCkxIvnL3DyxHEcO3oMz589E0tjsRuQXwPDaiIiSlPRYTUREREREf28rG2sccnZWXxElLi0Cqv13bt7Dzt37MCxo06IlEdqyxhW/xoYVhMRUZr6e/WaNBvtmYiIiIiI/l1KpQJrVq1G4SKFceL0abGUKHHfI6yOFhAQgAP79mPXzp3Ys38fw+pfAMNqIiIiIiIiIiLSksvlsC9aDGXKlsF+R0exlChx3zOsjhYdX0okEu2/9N/FARaJiIiIiIiIiIjoh6UJqRlU/xoYVhMRERERERERERFRumNYTURERERERERERETpjmE1ERERERERERH9nOThkKvE+0T002NYTUREREREREREP5FweN12xKpxPdGoxnA4BonFRPTTY1hNREREREREREQ/hZBbGzG+RzM07fgnluy5gpeBUeIUIvovYFhNRERERERERETJo/SHt49cfPDvy1SxL+Ztc8L6voUgE8tIQwl/bx+k354hShsMq4mIiIiIiIiIKFmCz87DDMePUIqP04cp7MsWg4n4iNSCzmHB1EP4mL47huibMawmIiIiIiIiIqKvi3yG3RtOw1cQH6cjqZExDCXig19eJJ7t2oAzvhxpkn5+DKuJiIiIiIiIiOgrgnBn5XisuhWCHyCrJj1Bt1dh0opbCOGOof8AhtVERERERERERJS4oKdwmtYT/Vfc0waiqsgwhAQFITgoBGGRCbXmlcPv+W1cPH4IB/cdwNFT1/DkUzJ7U470w4ub53Hi0GGcvHIPL7zDxQnJIYf3k2s4feQYLj36mPz+mxUB8Lh9Qb3MQzh27gae+0WKE5KiRNDr+3jqHbv9kX7P4XLiKM5cfwH/+N1xqILw9t4lnDzshLN3PBEqFidODp8nLjhz5CAOHbuAu2+DEuh6JQjPDk9H774rcE+3YxAeotkvQQgJi0SC7azlPnC/dhpHDzri+Pm7eBuUVL8hSgS4X8SZuz66eSl88OTiMRy7+BQBbMRN34lEUBPvExERERERERHRL0wul8O+aDGUKVsG+x0dAeUbHJwwDjuf+uOD+zN8kkuQycYOBbMaqp9tgCLdl2BWextxsMNIvDu7CrMXHsSH4h3RvZE9LBXvcWvv39jiop5vjzlYPtkBuRMaGTHyHS6tnY/Fex5BUqAU7G0N8eHGWVx9LUEhh0GYPH0gqmaPfaH8zGjUHHgAnw1rYdbNTWjlexSLJs/D7usfxJA6I/K2mII1C7ugSAZtwZcU3ri5ZSEWbroC/2yFYSPxxIOHbxAssUKJJv0wetwA1LA2EJ+sIYf3o0s4feoMzp27iBtPJWi5/grmlLqPDVOnYvWpZwjWZr8yWJYbhGUbR6GaBRB4fztmTVoGJ9fPUGjnY4DsNf7AitVDUd5MW6BHBb/bWzB3xgbcVtogT+ZgvHrsjg9hJsjXYCBmzh6Gatk1bU+VeLN/IibueIrPXu54/kkOSSZr2BXKpp67eglFumHx3Pawjq4ylR/ubJmNvzbcgtI6LzKHeMD1yQeEmeRH/UF/4a9h1ZEtukmrwheuJ/dg+449OH7dC1l778DxIaH4X/8/sflhoHoNjZC/z0YcmlYdpuqnt2/TBvfv3YfrU3cYGxvr5kGUSgyriYiIiIiIiIhI64uwOlrkHcxt1AkbXklQbsJZ7BqUVwyoYwVfmYY2fbfifcmxOL5vCPKLT1D5O2Fk/d9x3N8KrVafw/+axEtoI55g27B+WOhRDbM2zUbLfGLgGXoLc1t3xYbnCmQsMRxb9/+JsmLwrB9WT9lQGRdmnUfWeg1RMqsCb5z3Y9+F1wiHCSpNcsK2AQW+WFeEu2PnHwOw4EVVzFr/F5qLy4z0vo5NY0di8cVPkORuiCkbV6BbMd208Pu7seqYG15cOIhzL0IhSLKi7dwpMNq7Dl6FaqBqSRuonjhiw+47+KySIW+fbdhU5Tj+/N9TWFethrIFM8HnxgHsPO6OYMEQhQftxqEJ5aAf7wZdm4+eIy6ixMy/MaVpXu00+esjmNR7FA691tTDMGzeMxrlNSmxViTuzG6MruteQVJ+PE7tHYS8X2xsEFzmdcPIiyUxfe00NMmrnSteH56AfqMc8UaRESV+24odoyvAVOmFc6uW48jVqzh74536WTLk6TEbXXwccd8sK7zOncQjPyWMKk3CyV39kUe9LIbVlJbYDQgREREREREREX0jOa7tP4w3UYBxblvk1AtMpWalUVKTXAv+uH/THXE72QjHnWWjMO+iIVr/NT02qNYwLYValbNrw6twt0Nwup9A9xyKJ3B0lGHojr1YNG4QevUbhqnrt2F8rcyQIAz3zpzHh/hdVqj8cGHWUPx11hgd586ICao1jLJXwaDlS9GriCEUXmcwe8Qi3BD77MhYpjNGT5qJ5bM7wFazfUIgrjo+Rq1lB7BxwTgM6NENg+ZsxNz2OdTrrMRbx8mYcqU05hzai2UzRqJ3z/4Ys2IbZrfUTI+Cx5kTeKy/SWEuWDppE8Jbz8REMajWMM7XHON+qwsziboeHm/Ckj1vEugSJHFh15ZgyqZwtPprshhUaxgjX4sJGFbPTF1P4Xi88X/Y90Y9V1lu1B8xD8u2zELrnJqaV+Hz+SMI7vkPVi1Yid2HtmHWuClYOrurNqgmSmsMq4mIiIiIiIiI6BvJkLtAHmSUGMM2n3XclswyM5hl1gWfYaFxB2hUeR3C6h3uUORvgraVMoml0YxRoetvaFe1NMo5dEbj4kZiuR6D4ug8aRAqZdWLuGS5UL1aYe06KN+8wMsoXXE0+d21mLfnFYRiLdC+bEaxVI9ZJQwa5oAsEiDy2U4s3/VanKBjYGuLXJrFScxRY+AoONjqr5cZqtWtjMzq1wqh2VB3aFsUMREnaUizombt0tA0EFd+fI8PMamzCn4nNuOQpw3qNS0N/Zdo4jurypVQVNsjSRjunrsM3+T2Ga3yxcktB/HOtgGalI47V0itUKliMW23IQi7i/OXfNVrITK0Ru4c2o1Exiq9MKCarjW8sW1VdB7SFw6F482LKI0wrCYiIiIiIiIiom9kgJK/78fVuzexf3RZxMa34fC6fQZ33iWUrqrw+dIp3AwSYFyoOIokkEUb23XB3F2HsPfvoahkLhbG90ULXwlMMhqr/w8IcjnkcTrADcWl7QfhoZDA0q4k8up3SR1DCqv6zVFTk1ZrWmefOqMrFkmNjKHpsVuzHInmKfHIrKxgoUnchFAEB3+53UampjDWvE4hR0RMkB6B25dvIljxDvuG1EHNqtXi3Gp33Ih3WXMhV65cyK4KSn5YHXEbzjeCofDcg99qx51nzao10GWjJ7Kq55krV3aogvTCavUWGmnrRl2XZuZxuioh+p4YVhMRERERERERURowQmZLM12wGfYWV7fOxKAWbTByizvkunQ3nii4P3oGOSQwNsn4ZeacFlSqOC25IX+Aa7f91WVSZLaw1AbaCTIpg1JFdEl21Ktn2n+TSxNm63J3JZS6ERUTISBmJDnle7zwCIFgWB6/Oznjisu1RG8Xdw2DfYIh+5eU75/DI0SAYfk/4Hg14fnpblew/Td7XStronTEsJqIiIiIiIiIiNJGpBdc1o9Fh4bdsMI9D3qtdsTeFSNQTdulRHwqBAQEqf8vICwwKF5f1t9J1Ed81DZLFhAll8cNsvVJLZEru4mudXakXFf2PSmDEBSqXhvBH77eyW02/XXKoCDoZusLn7SbLdF3w7CaiIiIiIiIiIi+mVIzIGGnZuiz9iPqLT2EnXN6o5ptAn1Cx5Aio0lGbSCseO4KtyTTapWmkfS3kxnCUNt8WIXPH72QVAxtaKxrHy3Lnlv773clzYiMGdQ1ofDA3Tveet1xfBtpRhPoZnsHd9IwBCf6XhhWExERERERERHRt1E8w8bf/8Sm+0rUHvM/DKpolYzQyQD58tvoBkJ8dwZOLqG64gQon6/D1JWPxEffwLAwCosdVYc/vovHEdq7CZAjICBU211I9opVxbLvyCA38lhrwnE57uzbC/fEgnuVF45tPoJ3MQMzJs0gty10s72Ng3vcE229rvI6ii2H3yGZsyX6bhhWExERERERERHRV+gNJphA3xmKlydw7F4IIMuNIsUskxk4yZC3ZnUU1GTHqvdwXLAcNwJ1U+JQvMGhZdeRtW5xsSCeBNZHvyjOZINCcGhUXNuntOrDeThdDdKVxyd3w6MnEYCRHdp1ixtWx7ZPTmDBavrtlxN+RnS5oDc9MypULqnt7zvSdQOmr7kHdW3Go4LfpdXY/dIc2fQ6+FbvGd2dmA6w9WSuhEoltXOF64YpWKvZR/Gp/HBl9S68ssiWYL/hCc2W6HthWE1EREREREREREmTWcDCXBOKqvDp3TtEjxso97wPV28VVKHhCNeEmop3uHfnfZwWuuEel3H7ja5EqRSnhL/DO28lDOw7o0ctC23cKnddh6HdJ2LnjfcI1z5JgcBnp7FyWF+skrRFV71RBVXhYZBrlifIER4av3sLAWFhEdogWIgMR0Sc5sIGKNLjd7S2Vc9L9QFOSzfgoW5hcQRc3I/TXoYo1msS+pbQdQcSTQgL1W2rZtnhX3atIajXTTc9IsHpyvBQcd3V02PWXQabVl1Qz0pdE0II7i7rj77T9uCGR4CurlUBcHP8C4PHP0D5jtV1g1hqyWBpaaatP5X3O7yP0pWqdwwePPZWT7ZByy71kUU727tY0a8XZu65jlcBuj2oCnDDoZkDMPF+BbSvHjtX9UZCXYVqKoSHhemF6kTfF8NqIiIiIiIiIiJKmiwHCuTVhKIqeDnOxpT1Tji+ZxH+mHEeEZmkMCpSHqWtNDFTKG4sHoLxa51w4ewhbJr/O4Yv80SufCbqaQICbx/G5u1rMH38BtzVdBgts0GHGVPQ1EYTRKunP9qFqZ1qoXzJ8qhU0g4VHAZh9bOKGD+5GbLHpFiReOr2AtosVekBN7f4rYVD8OTJW11gHvVSfT9uz9RSy/qYuOwPVFGvb8SjNfj9zx3Qn0Xo052YNPMUMrSYjeVjqsBMLI8W6uqG19qZh+P5k+fxutZQ4pPbU91ghsqP6vX0idPSGpDjiesL3WuUr+DmGqYt1ZBma46xExsjl7al+Wfc3TIe3epVRIWKVVG5ZEW0/GMfojpMRf+SsaG9JqzOXiAfzCTql7w/hDmTN+DosT1Y/PtMnI/IpJ4uRdYW4zG+cS7oZnsXW8d1QcMKZVG1SkWUrdAMo/dFod20ASihN1tNiO3uqdlIAQFPHuFN9NUJou9MNl1NvE9ERERERERERL8wTcvn1StXImeunOjYubNYqmEEm9xK3DjmAq8QHzy5fBJX3uRBv0UTUE/TJ4VRPtjb+OHGlUfwCfaBu/MJnLj4GqY1hmLahDawV9yH41kPhAc8x91X2dB59nS0zmeonbPUvDjq1S8GpccDuL0NggIClJHhCI/KiALNxmD5qtGolV3XQYXiyQEsmP0Xlu59hGBtlhqG587OcPd8h6jcFZDFbSMWzJ2Nf06+RYS29bI/Hl9ywcv3cmQtVxq5xcbDRrkqokn9QlC8fYSb5x2xa88p3Lp7Dcc3LsaS3a9RdOD/sHh0fVjrVlFL8eIYlv/vf1i05iTeameugt/9S7j58j2Uuaog3/s9WLR0MZZuuQY/bQtnBd7dvIiHbz8BthVg+XgjFi9ZiJX73BCsSbCFUDxzvgL390EwLVYO+TLLYG5XDzXzBMP9jhs+hGmepEJkWAgijPKiwYglWPJ7FVhqmlHrMbLJDcWN47j+PgS+bpdx6vIb5BmwEOPqi916SM1RvH4t5Al+grtuXtDNNhJhIeEwytsQvy1djuFVLHWdiShf4viS+Vi4cCMueOlap6u8H+DKrRfweBaILBVLIKd+Vq62d88efPz4EcOG/wYDg3gTiVJIIqiJ94mIiIiIiIiI6Bcml8thX7QYypQtg/2OjmJpLPnH+7hy/RUiLYuiYlU7ZIvbQwbk3m64ffsFAjPYonSVsrDWNKjWCsWb65fxKCgnytUqi9wZxOI4lAh8eRs3Hr1BkDQHiqjXwc7WXNsi+PtRIcTzPm7cfQmfCGNY5bNHxQoFYZFQ583/JrkP3K7fwJOPcmSyLYYS9kVhbZ5ETcg/4sHlG3gVaYGiFauiePZ4O0ak2T83brrhozwTbIuWgH0xG5h9YwW3b9MG9+/dh+tTdxgb63UlQpQKDKuJiIiIiIiIiEjra2E1UXwMqyktsc9qIiIiIiIiIiIiIkp3DKuJiIiIiIiIiIiIKN0xrCYiIiIiIiIiIiKidMewmoiIiIiIiIiIiIjSHcNqIiIiIiIiIiIiIkp3DKuJiIiIiIiIiIiIKN0xrCYiIiIiIiIiIiKidMewmoiIiIiIiIiIiIjSHcNqIiIiIiIiIiIiIkp3DKuJiIiIiIiIiIiIKN0xrCYiIiIiIiIiIiKidMewmoiIiIiIiIiIiIjSHcNqIiIiIiIiIiIiIkp3DKuJiIiIiIiIiIiIKN0xrCYiIiIiIiIiIiKidMewmoiIiIiIiIiIiIjSHcNqIiIiIiIiIiIiIkp3DKuJiIiIiIiIiIiIKN1JBDXxPhERERERERER/cLkcjnsixbT3i9Ttoz2X6Kk3L93X/uv61N3GBsba+8TpRbDaiIiIiIiIiIi0tIPq4lSgmE1pQWG1UREREREREREFEMTWBOlFINqSgsMq4mIiIiIiIiIiIgo3XGARSIiIiIiIiIiIiJKdwyriYiIiIiIiIiIiCjdMawmIiIiIiIiIiIionTHsJqIiIiIiIiIiIiI0h3DaiIiIiIiIiIiIiJKdwyriYiIiIiIiIiIiCjdMawmIiIiIiIiIiIionTHsJqIiIiIiIiIiIiI0h3DaiIiIiIiIiIiIiJKdwyriYiIiIiIiIiIiCjdMawmIiIiIiIiIiIionTHsJqIiIiIiIiIiIiI0h3DaiIiIiIiIiIiIiJKdwyriYiIiIiIiIiIiCjdMawmIiIiIiIiIiIionTHsJqIiIiIiIiIiIiI0h3DaiIiIiIiIiIiIiJKdwyriYiIiIiIiIiIiCjdMawmIiIiIiIiIiIionTHsJqIiIiIiIiIiIiI0h3DaiIiIiIiIiIiIiJKdwyriYiIiIiIiIiIiCjdMawmIiIiIiIiIiIionTHsJqIiIiIiIiIiIiI0h3DaiIiIiIiIiIiIiJKdwyriYiIiIiIiIiIiCjdMawmIiIiIiIiIiIionTHsJqIiIiIiIiIiIiI0h3DaiIiIiIiIiIiIiJKdwyriYiIiIiIiIiIiCjdMawmIiIiIiIiIiIionTHsJqIiIiIiIiIiIiI0h3DaiIiIiIiIiIiIiJKdwyriYiIiIiIiIiIiCjdMawmIiIiIiIiIiIionTHsJqIiIiIUkiOkBC5eJ+IiIiIiChtMKwmIiIiomRS4vXBkahpbQ5zcwtY1/wdB14pxWlERERERETfRiKoifeJiIiIiBKl+rAF7Uv2haOfSiyRIkvLdXjo2BfWbALxnagQ4vUU7h7v8dEvDDKznChgVwpFc2QQpxMRERER/XcwrCYiIiL6T1PiydLWaLXcFQqxJOVkyNd3J07U2Aa7BivgodeYWpZnME4+W4MGxmIBpY2QpziyaiFWbj+KK67eiNA7ZZfITGFdoQX6j5+OMa2LwkQsjyPyOmY49MCWt6lr+S7N0hZ/X12U8v2aXsslIiIiov8EhtVERERE/2kKPJhWCRVn3kOUWJJyBijyxwU8GfMS7Ur2xSG9ltWWLf7Bo0P92LI6zSjx4fxcDOg3G8dfRyCpE3WJNAtqTDuCI1Orw0IsixF5CSOK18cK/SsLKSDN1hMH325Bq5Q24E6v5RIRERHRfwK/VhARERFRskhzdcfyjaNRL58pDAxMka/eKGxa2ZtBdZpRwfPgEDRoMRXHvhJUawiqz3D+qzvGHPMXS9KKBLLceWBjID7816TXcomIiIjoR8GW1URERET/aQm1rJbBpus/2P9naSQvF5QiQ84isLc2FR8rIZcDxsYy8TGlBcWTpXCoNgoXAlTqKs+EIs2HY8zQjnCoVATZDQLw3HkvFo2bhu2PghDdtl0T8GassxiuZ0civ/7u+JYWztJsaLflIfZ2z5nyli3ptVwiIiIi+k9gWE1ERET0n5ZwWF1g+Dk8WV4bRmIJpbdIuIwphVqLnkIhtUCNqcfgNK3aF917KD1WonHZETgbFHsKL8nYBP+8OY7+2cQCDdUn3DpyFk9DknGqr3qPw9Mn48ArBQRIYFx+KlyuTUfZ1Bwc6bVcIiIiIvpPYFhNRERE9J/GsPrnoILnigYo/PtFGNZaiNvnRqFoQg3XVZ+wtkk+DDmt102IYQlMuHoPcyqmpv8MFbz390K5ztvxXtMYWmaN7nseYEs7q+/cujm9lktEREREPzKeCxIRERERpTspctWsieIG5mjYr3fCQbWG1By5cmWGRHyoYwTj1A5IGHoFc6fsgZe21w4JTCoPx4TW/0JgnF7LJSIiIqIfGltWExEREf2npWHLapU3XK+5w1cZe/oozVoM1e1zJBoyyj89wuWz53Ht0St88g2CXGqKrDYFYVemAsrZ5YaJev0UShVUSiWUmptKQCabEihoJcHnlw/w0i8SKpVKO02FLChS1Q7Z4y9M5YMnLk/grdBbL6uiqFYip3pLRV9b92B3HN+2C6cfeEFuXgBVmndFp1p5ETcDViHgxWWcPOmM+8884RuihEHmHMhfojIcWjZG2Rzf2E5dFYw3bu9hVKgYciUaPodid4fc6Lo/KKZltSRzS2x8fRi9s4gFyabAozk1UXXydYRqZibLi/5HHmBdU3Pd5O8mvZZLRERERD86htVERERE/2lpGFaH7US77N1xUJsw6hi33AK/wz0RPfRiNJWfC/6eMA7ztjvDMzwlp5vGaLTWEycHGmFTixzoe1QulmtC2Q7Y9XEvOpmIBdHC9qGLdSfsDtBbrybr8OF4f1iKj79cdwnMOu7Chz0dEOGyAkP6TMa+pyGxAbBRZcy6fxUTi+vi7kjPM1g08ncsOOyOQL3AO5rEtCCajl6Ff6Y0Qu7EWkWnhcirGFWyDhY/U4gFEpjUX44np39DnhQ2S1a9WY9W5QfhqJ9muEZ1fdRbirunR6Dg91x/tfRaLhERERH9+PhLOyIiIqJfUJT/azx6+BAPk7w9guubAGgixZRQeOxAr6r18du6KzFBtcQwM3LYWMMygwxxu7BILxKYmJoi8uFydG71J/bqBdUakixFUFxMnUPvLUHLSk0x+eATMaiWQGpkAhNDScy2CKEvcWxmWzQefQafU1phKRBybjP2vYwOqtVkudF+WNcUB9VQfYbTjL9wQhsYq7fIoDB6T+n3/QPj9FouEREREf0UGFYTERER/XKU8NzeGxVKl0bpr9yqjz2NCPFVyRJ5H/O6DsKO5+Fi+CtF1tqTcPSZNz56voOv1x2s61YExvqJtSw3avX5HSNHjlTfhqNNyfhNp78HCTJK3TCj+3ic9YmfLhsgf/s+aGIOqHwOYXjbcTj9UaHbHmlW1Jx0FC/9gxHsfRcr29hAFpNYh+HxqhGYcy1FNZZ8ClesmbcX77T9PGtIYdVwEqa0THH/HwhzmY/JOzzVR4KGFBaNRmNUrfjt49Neei2XiIiIiH4ODKuJiIiIKM34HZiDpbdCY7vTMGuAmVtmomk+XSfMUsvS6LdmGXrl1WtKq/LBR4t2mLtkCZYsWYhBVf+N8FKA78G5WPVYDkEig1XplhgwdhqmjmgF+xxl0b1fTWRAGK7MHoftb6LE7ZHAtMZ4rJvRFPlMpJBalMGgBSNQxTA2eReinmPX+lMIFh+nnUi4rhiBuc7RfVVLYJi3M1b+MwiFUtoqWeGGVRNWwzVSnJOhHQZO7pny1tkplV7LJSIiIqKfBk8NiYiIiH45Ehia5YCtre1Xb9ZZTVJwwhiKi0fPwT+mobJ6ORVborVtvDlkrovWDfQGPxSi4HHsMO5Gio//FSoE+wcgCiYoOXAvbt04jH/mT8eMZYfw+ONNTC9jAPgfw9qdLxAVk7xnRM1u3VFYLxyW2VZAmdz626fEpwsncSO2q+00EXBlGnpNuRBTt9IstTB9z1p0jl+3X6XC+x2TsfBqdLcnUmRrOR4jKxlrH30/6bVcIiIiIvqZMKwmIiIi+uVIYdtrD168fYu3Sd7ewHVVc+jaRCeD0huvPYPj9HGdwSobzL8445QhT56ccU5EVT4f8CF+bxzfnRRZ6s3GruVtkT+BzDTs8lGcE/tW1pLlRqE8Srx/6Yp7Lhdx6sh+7Nh2Ea9jR67UUn50w8M03BjFs43o22UR7oqDQ0otqmLCgQMYXzmT9nGKBJzEjBlO8BVXT2JcFkMmd0DO7/2tIL2WS0REREQ/FZ4eEhEREVHakGRExjidUQuI8Pmk19I6VlSU3iCBapLMZjDXf+m/QGJSEX8sHgp7I7EgDgVe3Hscd90VL7CyiTXyFCqBctXqonGrDug+YCaOvY/pRFpH9QleXnG3L7VUfmcxtuNwHHqv6TNbAqlVTUw+5ISZdaxScSIfgRsLJ2Hra7H/bciQu+NEDC+TYAWkofRaLhERERH9bBhWExEREVHakFrCrph1bPcealG3j+DQ2/hhrh/u3PVAbJwrReYKNVDuX+4Rwqh2fwwtlVhgqoSPt2+cVuJJkUgNkdE8K3LlKYTiJQshm6E44VuE3sGSTl2x7EGYNqg2yN0I8487YUbt1ATV6i16thYTVj6AXJcYQ2JSBcPHt4KV7uF3k17LJSIiIqKfD8NqIiIiIkojxqjWsxtK6rWuFoIv4K/BS3E7UCyACt7HJmPe6ei+iwFJhhIYPKoNsoiPdRI4TRVUyQ6Pk8XQSL3GiZNK441cKLVAjWFL8PfG7djreAxnL1/HvcfP8eajP0IiIxEW4AOvN8/hdvcoxlX8xlbDkU+xoWcbTDjvo95mCTIU6YJ1Zx0xupK5+IQUUn3AnsnzcCkoutZlyNttEgbbpXR0xhRKr+USERER0U+JYTURERERpRmjiuOxdmZdZJdFB9ZKfDo1BrVK10bPcX9h2sAGqNhxA16IoxZKMhZGp1W7Mb2aifZxLAmk8c9Uo+SIiNc/9PdjgFy5s8c9WRbCISvYGgP6dEOH1k1Rv2ZllLEvhDw5LGCSltmr8g32DW6JYY6eiBKksKj4B/af34rexZPde/gXAs/PwjTHTzFhv8SsDv4c54AUR9+qEHg+uIqrDzwRHK/BfELSbLlERERE9EtgWE1EREREacgUlcYew81Ti9G/hg0ySjWhtYDwN5exbcFUzFx3AW8jBEgMLVG82Z/YeOU6dvQtnkALZwNkymQS52RVUD6Hq2uk+CiaCv5PnuBd/OJvJkP+SmWRUz+EFiJxfdsG3IkQHydA5f8ENx5pWkOnktILR4Y3R+/NzyCHIaybzsfJ0/9DM+tvSMPld7Bk/Ea8VET3w2GAwr0no2/BlM1T5XUUY2sVQsGyNVCjbAEUrPEnDnsmkVin0XKJiIiI6NfBsJqIiIiI0lgG5K0/HPNWLcPEdsVhpgmsJVJkyF4ctdoNwbTVB+HywhNuR/+H3uWzJHJCKoW1Tc640xTPsXXyDBy46Q63myewc+UMDGtVBoWrTodzWHQ3E2nHuGpLNM4dJ62G/P4CdGo/HQfdAsVAWgW5/xs8dj6IpcObwq5AKdTq/w/ck9Hq+AuqDzj6R1N0+/sxdJsjQcidJWhrbw1r66/c8jbF0qcJLVSJl+snYtm9iJhuV6QWjTFmVC2Yio+TJxQnpg7G4qufoG0ULyjgc30ZBk84hADdE+JJq+USERER0a+EYTURERERpa1IN2zoXgoFy7XHlH1uCC/eHzuuv4LPBzdc2r8a04e0QeU8X4ssjVCiemVki3O2qoLPhTloX7k47Cs3Rbfh07H6yCP4iV2KpDlTB4z8vTrMYrvg1raufnVsBtqVsIKpZS7kzmaGTFb5ULJmO/yx8gSeBigQdf80TnmmsG210gtOvzdBl5UPEBK9OeplBX7ygpfX128fo3KhcN4vWyyrPh3A1LnnEBDTD4ch7AZOQo88KfwaoPDArXveiBuHq+B75zqeJNCqPc2WS0RERES/FJ4tEhEREVGaUtzfhiV73BCo1KWuSk9n7N6yDqvXbMa+Y5dwy+0N/MK+HuZmajwSI6tbfOWEVYpMhWuhos336FpCBrvh/2Bx2zww0g+sNQQlIgI+4oNvKKJ7udC0hM5oWxe//bMMffOl7DRb8XANJq/VC6pTRAKjEhVQ/osxHUNwee5U7POKjZil2Vph/MhKSQ4smSBpTuTPY6Jekj4JMuQpgDwG4sMYabhcIiIiIvqlMKwmIiIiojQlMTVBRr1UUxX0BE6rZ2Hcb33QsXkdVLLPh2yZM8Isex4ULV8XbYfMxg6X9/iiK2ij0hi9/yBmtSkOi5gBG3UkUhPkKtcaf6w8jYd3V6JZju90WmtUFP32XMORvzqiXA6jeGGtjsTQAoVrd8WEf87Dzf08lvcqk4qBC4WY7jJSzgCFKlRA1nhVEPlwGcave6brtkNDkgFlh05Ch5ypqCtpNnSaNh2NrKPrQALD3A0wZVZPWH/P5RIRERHRL0UiqIn3iYiIiIi+neo9Dg5phF7r3RCiSuappiQjCraag51bR6JSZrEshgohnvfgcuspPoRIkMnKGoXKVUCpXCbi9H9JxCe43nTBHbe38A0FMmXPDRvb/ChWpjQKWHzRvDjdRX56jCuXruL2vXu4d+8+HnmXxqyza9Emi/iEVFD5u+K00yV4CPlQq0VjlMjyZQD9PZZLRERERL8GhtVERERE9B1E4MX+qRgyZhXOvQ5LXqthiQHyDziCB2ub4Iu8moiIiIiI/vMYVhMRERFR2lF+xsNDa7FsxT/Yc+UNQgUZLArXQtvOndCybnFkDvXGx08f8e7VUzy6cw0XLt2DV5gqJsyWZu8Fxzeb0TKDWEBERERERL8MhtVERERElCaUnk6Y0G0gljp/RJQggcyqMoYu/RszupaGZSLdFUe83IUBDj2xw0OhDawlGVti04fD6JXiTp+JiIiIiOhnx1FOiIiIiOjbye9gVrvOWHRFE1SrH8tyouOaI1jaPfGgWiNDwZZoWSlz7KB9JSuhQibtAyIiIiIi+sUwrCYiIiKibxZ5Yxu239Pvm9oYZmYZv3KyqcSHk1Mx/2gAVOpHEsN86D5xIIrLdFOJiIiIiOjXwrCaiIiIiL6Z1MwMprrm0TrKN9jYrzXGbb2Kt6GaKDqWIuAVbhxahXHtK6BkiyW4EyJAYmiNxvP3YlmrbDxBJSIiIiL6RbHPaiIiIiL6dsrX2NKhOvod8oIyztmlBBLDTMieKzvMDCMR6OsNvyB57HMkUmQu3BJjV63ChAa5wUbVRERERES/LobVRERERJQ2wtyxZ+JgjFp7Ge8jkj7FlBhaoECVxujQazhG9KiGXEbiBCIiIiIi+mUxrCYiIiKiNBX56R5OHDmDWw/d4fExACFhcsDYFJnNLZDNtghKlCqHStWroVSuDOIriIiIiIiIGFYTERERERERERER0Q+A49cQERERERERERERUbpjWE1ERERERERERERE6Y5hNRERERERERERERGlO4bVRERERERERERERJTuGFYTERERERERERERUbpjWE1ERERERERERERE6Y5hNRERERFRolSIDIuAUnxERERERETfD8NqIiKidBcBxz62sLSwgEWOLtgVKhanVoQj+thawkI9vxxdduFbZ/dviHDsA1tL9fZb5ECXb66ANBJxFIMKiPXYdbdYGJ8CPm5XcdXNR32P/jPCPHBqxWh0qWuH3OYZkTGTCTJmzomiNbti2j43hIhPox8J34v0b0rjz20iIiKKwbCaiIgo3akQFRaMwMBA9S0MUWJpqqmiEBasmZf6FvbNc/tXqKLCEKzd/kD8OKusQHhwUBL1qILn9q4oW7omapYug67b34vl9PNS4eO5mWheqhSajPgfdl98gg9BkVAJAqJCPuGZ8y781cUBf56Ui8+nHwPfi/RvS+PPbSIiIorBsJqIiOirVHi7qSvsCxZAgcL18NetSLGcfm1RcLtyDR8VAgTFJ9y4+kQsp5+TEh47+6B2i+k4/sYI9i0GY9L8v7HT8RD2rJ+HkW1Kw8pAAoP8jdG0jKH4Gvox8L1IRERE9F/BsJqIiOhrIm9hzeL9eOLxCq9eXMamzVcQIU6iX5kxag6chG5VCqNw1W4YP7CaWE4/o8h789F9yHY8j8qHLltu486RNZg1dhC6tG6Fjv3GYcnB27h3ejN27V+G1jl5Cv1j4XuRiIiI6L+CZ9pERERJUsHv0FJscouCoH2sxBvHrTgRqH1AvziT8kOwxeUZnl3bgiFlTcRS+umoPmHv7KW4ESTAtP5YLOhcAEbipFgGsK3bE+1Km4qP6UfC9yIRERHRfwPDaiIioqQon2L9ssPwltigUbMyMJJoci0nbDviDZX4FCL6yQWdwcGzvur3tAHsa9cBG04TEREREaUPnooTERElIfTCCqy9EQGDEn0wa3FvVM+oSasDcGbrPrxjWk30nyC/dx33QwRAkgE2+WwhE8spnan88drDGxwl4Fehgv9rD3hzhxMREf3SGFYTERElRuWJnUt24Y3KFDX79UHZQh3QpXZmSCAg9Mp27HymFJ9IRD8zpbc3fDUXn6RmsLQw0BVS+lJ9wLGRdVFu8AH488LgL0CFD8dGom65wTjAHU5ERPRLY1hNRESUiMg7f2PlmUAgazMM6JofMmlOtO7aABbqT08h8g52brsHhfhcIvp5hQYEIVLbKb0Mhl92Vk3/NpU3zo5rga6rHiAsQ0aY8BvLf5wK3mfHoUXXVXgQlgEZucOJiIh+aRJBTbxPREREMT5jfzd7dNrpi3zDTuHRynrQDtkVeBA9inbA9k8qGBQcjjOPl6NOBu0LvkEY9nbKjc57AyEYt8QWv8PoaaqA/4ubuHTpGu6/eA8f3yDIDcyQs2BZ1GvRErWLWiTeVUHYXnTK3Rl7AwUYt9wCv8M98dUh4eSf8OjiSZy9/hSe3j4IUpkiaw5bFK3igGb1SiJ7igO8SPi5u+DcOWfcf6le/1ADZMtTAAXtqsChSRXYxquzsL2dkLvzXgQKxmi5xQ+HeyayxqFvcOfOa2h6bNBcczcvUBFl4s8shSJ93HDtkjNuPHiG9z4BCFHIkCmrLYoUjcDhP+fibIAKxq22IuJQD/EVsVTq17o88YFCkCJrseqwz5F4yKIM9MD1c2dxTb2c1+/9EKqSwcTSGkUrNECrljWRL7nj9im88fCEIw5duIuXH4OBTDlRsHwt1ClnC9P4i5dZIF/JgrDSHiwheHX7Lt6GCpCa5Uf5snl0xzSC4XZ4PbaddoOfQW6UduiMns2KI7N2WqxvXf9E60oVjGcXDuPUdTc8f+MDpWVBVG7eFZ1q5oGx7hk6EV64ccwJVx6+gMeHEGTIWQxVm7VHi8rW+KYjINIPN2c3RY2ZNxEly4V2S7ZheCn91tVSWBWthhI5E3rHyfHp0UWcPHsdTz294ROkgmnWHLAtqj7Om9VDya+8cUJe3cbdt6EQpGbIX74s8ojjAga7Hcb6bafh5meA3KUd0LlnMxSPv0MSo/KBm8sT+CjU+zlrMVS3zyG2TlEh+NkFHD51HW7P38BHaYmClZuja6eayBO3ouF14xicrjzEC48PCMmQE8WqNkP7FpVhnYKKln96hIsnz+L6U094+wRBZZoVOWyLoopDM9QrmT2BASxFqs+4PL0FWs2+hgCVBCZ1p+PwtNowFCdHk1oUQqXS1jHHSErei9FSvY5aKvi4ueCJj0K9/7KiWHV7RC9SGfgMl44cg7Pra3gFSJCjUAmUrdsCzcvnQJq221cfu+4u53DO+T5evvdBqEE25ClQEHbqv9tNqth+9X3xY2y/Cp8vT0eLVrNxTf23VmJSF9MPT0PtL3c4ClUqDWtxh6fFe+fbtj+hz21xEhEREX0bTVhNREREcSncFwo1TSSCxKi8MP1BlFiqESIcH2AryNQfoZDlFnofDhLLv0WosKejuSDRzNOwqjB04UihdbmcQgZNfyOasng3iTSTUKTNbOHMO4X4+nhC9wgdzSXa5xq33KJe4ySEvxCcZncTymcz1C3/i5tEMMpVVRiw0ln4qBRfk6Rw4cXRuUKfmraCSYLrLxGMbRoJc539xefrhO7pKJhrn28stNyS8Bor/S4LM+tmE2Sa50lMhCKd/xbufUP1BzzYIUxsX0HInUFXV0ndjFttFV8V19fXWyl8frhP+KtHFcFavZzE6ti0SCdh7aMI8TWJ87+5UuhWylJbBxKpsZDZ3EQwlCSx/saNhLXe4oujbgjj7Q205YYVZgqPNYdPhKuwqae9kFmq9xpZPmHY+eh1Sbv1/6KulP7C/a2jhCZFLAQDbXnsTSK1ECpPPC/4aY65EHfBcVp7oUx2oy+WL5GaCyV7bRJcv151X1J6C3sHlhRymsgS2a7om7HQZN1n8UXR1Me502yhW/ls6vpP6DXqdTPKJVQdsFJwTvSNEyXcGG8vGGieb1hBmKnbIYLrpp6CfWap3rxkQr5h59VTkumL979S8L+/VRjVpIhgYRDvWJFIBYvKE4XzuooW3B2nCe3LZBeM4m+T+nnmJXsJm5JR0eEvnITZ3coL2QwTOS4lRkKuqgOElc4f1WsWX4DgMruOYKV/PCZyM6qzRHijN4Pk/A2J9m3rGE3v77ZxS0F7SPvdFjb/6SAUyCT98lg1sBKqTTwreCc+w+RT/90+OrePUNPWJOFjV2Is2DSaK8T7MxvjR9r+AJfZQh0r/eM9kZtRHWFJzA7/tvfO99p+IiIiShsMq4mIiL4QIpwbVlD9RVgimDVaEycQ0Yi49LtQyEDzpVYqZGm3XfAVy1NP70uveJMYZhEKVagjNGnbXRgwdJDQo1VdoXw+/VBPIpiUGCo4fUjgq3Qyw2ql1wlhQg1d+KsJEsp2GicsWrdHOH7urOC0e40wrU8tIU9G8cu8JKNQpMdW4alcfHFCQh8Lm/uVFSxkEkFinEso16KfMHbmQmHp0oXCX+P6CU1LWOmCPfW8qs9/Ir5I52tBk9LruDC6ooUg1daNjdB49qXUhz5KP+HynKZCXm1ILREMLQoKVZt1FvoMHi78PnyQ0KttPaFUrgyCNKauvyGs9t0stDLTLSdD7vJCq35jhBkLlwkrViwR5kwcKDSzs9CF7+rpGavNE9wSuf6gEXpztlDTQipIpFmESoPWCBdeh2rLw99eFlb1KS2YaQM+9XwK1hE6dOkidNHces4VzkUH+vHDarmvcHqE/RcXRaQ5Ogu7oys3Lddfr66azj8gTHWwFYzVjyXSjEJO+xqCQ7PGQi37HNoyzXpIDIsKfRfOEFoX0gVyEpmpkLNIeaGOQ0OhZpk8gnl08CrJIJQc7yyEi8tJvs/CuYWDhf79+wvda9roLkBJzYSSLftpy2JvQ4RlV3R1raX0Ek5MqCFkUx/nkBgIVmU7CeMWrRP2HD8nnHXaLayZ1keolSej+H5W10uRHsLWBN848QM3ueB7eoRgH//iiTSH0Hm3dxKhWTz67/+m84UDUx0EW2PNukqFjDnthRoOzYTGteyFHJoyzfwlhkLRvguFGa0L6S4wSWSCac4iQvk6DkLDmmWEPOYGMduSoeR4wTnRilYKXicmCDWyacJ/iWBgVVboNG6RsG7PceHcWSdh95ppQp9aeYSM0fs3YxGhx9anQpyaUTwVdqmPq/596wsFtPtXIhgVdhD6xtkfutvghWd1FzNEyQur02AdY+iHlU2F+QenCg42ugsqEkMLIX/5ekLLNs2EWsWzxl7QkFkLvRzjX/hImdDHm4V+ZTXvO4lgnKuc0KLfWGHmwqXC0oV/CeP6NRVKWOkuPEoyVhfmP4n/hvzRtl8hPN01URjYv69Qv4DuOJMYFRYc+n65v/sPXiicjdnhqX3vfK/tZ1hNRESUlhhWExERxaN8t15oYSFVf9HNKXTbn0CwEHVTmFDCUPdlNnMjYc3bZMdIidD70mtQVOi0+KBw+0MCLRiVfsLddX2EEjEtx2RC3n5HBD9xcozkhNWhd4W5tTThr0QwzNtGWOrySfgyZ1QKn10WCU2txbBKYipUmOqS8PwiXIW1rW21rXwzlewnbHmcQJNnhbdwbe1EYdzKy8LHeAtLKmiKerVPGFDCVBsuyKyqCqMOvxb027qnjL9wcVIlwUKqCVRshcZTjwjP9XLIGFGfhBv/9BDsxPAj1WF10GahRUZjoXDXDcLDhFqBy92FZQ3EEN6olvC/V4kcS/LbwtRyxuo6kAl5ejt+GdQr3wu7u+gCV4lJeWHK9QQ2Kk5YPUO4vK+XkEcmE6wqDRHWnnskvHrnIdw+tFyYt8s1tn7Tav3VYutKvR/Vy5UYZhPKd58tHHz0OfbYUx/jF0eXiROgSzLmFeoNWy4cd/PXO0YVwsfTfwhlTXT7R2Y9QDiRmtbVWkrBa0U9wUizPE2r8nNJzShUuDu3lnj85BXaLHURPn35xhGUn12ERU2txYtLEsG0wlTB5YvDI27gNuPyPqFXHpn6GK8kDFl7Tnj06p3gcfuQsHzeLsE1JQe83vtfoq5nmcRQyFa+uzD74CPhc2xFC34XRwtl9MM9SUYhb71hwvLjboK/3jYpPp4W/igrtuCVWQsDEqno0LtzhVqav5vq5eVts1RwSbhiBJdFTQVr8UKDxLSCMPXLilHPbJvQRnuhTCJYdN6rrvWvS05YnabrqP93W6KuZ5n6uLYsKbSduFlwfqeX6Cu8hBO/lxEDUKmQvdehVFxY0YlwXSu0tjUUJJJMQsl+W4SE/8xeE9ZOHCesvPzxi7/pP+72hwrb2ugu8EgsOgt7v7rDU/fe+W7bz7CaiIgoTTGsJiIiiiNKuD2ljLYlmEGRkcLlBFOFKOHRzAq6n8pLMgjVFzxNIOhNiZR86VUIrza1EXLJNF/81V+kMzkIq+OH5V8NqxWC6/zq2laUEqOSwljnpJOBz+dGCMXFn0tLMtUTlr2Mv7URwr2/qgim6vlJs7cQ1n0x/esSC5rC3TYKnQtpQlqpkLlEH2GLa3Jiq8T5n/lNKKrZFqmV0GiFW9JdK4Q7Cj2y6i4MpDqsVn4Wnl67K7xJdEFK4e2yurqg1KCYMMYlkTZ8R/sJuTX73KCIMOpqws9RuM8XqmvDR6lg1X7Hly3+9cPqIvWF+vkMBZNSf+i1VkxAGq2/hn5YbZy/pTDv4ocE3zfKt8uEuka6482gYDdh25PE3hD+wrY2Zrr3jVEDYXXy+qlJQPLDaoWruo41AbnESCg51ln9zk3C53PCiOJi9zqSTEK9ZS/jba9+4FZEqF8/n2BoUkr446yfeo2+gX5YbZxfaDnvovAh4YoWltXVtYSFQUGh27Ynif4Kw39bG8FMu++MhAarE+gaQeEqzK+uCbQlglHJsULSf1I+C+dGFBdb20qETPWWCV/8yfgeYXVar6P+322JsZCv+Wzh7LtErip4bxSaZ9LtE6O6y4V3qdnBEfeEv6poLtpJhewt1iWwPl/xQ2//t4TVyXzvfM/tZ1hNRESUpsRhMIiIiEjL/wiWbXiEKBijfK8BqJbgCFUGKN6lMyoba76mynFz53Y8UoiTvjsZ8nWfgUFlDKFeOoRQF5y+EKSblFxhZ7Bs5XWEqb9mm9Qdit+riiNTJcKyzkRMbJFFO0ibEHoFW7a66iaIlK83YOzCGwiFIUoMmIqeBRIaiC7lgu8sQ4eGg7DnpQT52/wPZy6vR0+7pNc1SQpXrJq0Ds+iAKPyI7FocPG4A/h9D1JLFKlaNt4AdvqksDDLpN2XECIQFq7Jc+KLxMPL1+CtVN+VFUDRogkP+yUr1ArNShuo76ngf+UMrkXoyhMS9ewcLnyugqnb5qJ+liROB9Nk/eMzgsO0HRhXO2eCg4RKs+WBjZl2jpDmqYy6RRIbtSwjbKytdIMHqt+HYWHJWfa3CMOZZStxXb0czSBwQ3+vKg5QmQjLOpg4sQW01SuE4sqWrXBN7O9E1DOcu/AZVaZuw9z6uvdaWjBymIYd42ojwbEhpdmQx8ZMt++keVC5bpFEB2LNaGMNK11FQx4Wpknw4gg7swwrr6vLJSaoO/R3JP0nxRJ1Jk5EC13FIPTKFmxNtGLSznddRyMHTN81EfWtNe+/BJjlR/7sur0qhIeIA8SmhBKvN4zFwhuhgGEJDJjaEyn9M/tzb38Skvne+RmOUSIiItJJ7POciIjoF6TEs03LcPCDEhKjUqhdMgi3b9zAjQRut30Lo6K9JjAWEPV4N7a4yMV5/AsMiqNZo2LQxgJCBF4+faEtTi75zeM466VJPg1QvHpN5Pja2YA0B1p1baQLqwQF3Jyv6Mq1lHi+aysuBQuALD8aNi2FhKPUlFDh8//buw/4KMqEj+P/3WwKEAhFEoqAoQSQUAIaTSgiYjtRpJxyKCci4imI7V49saFYEA7BjqLegYIioogg3vvCgVKO5kkHKZGOgIloCCRks887W2ghZUMCk8Dv+/msrDO7s888M8+zM/95Mjt/mLpe/4hm7q2mjk9O14IpD+qyKsU7bHGvm6LPf8iytphLCd16qmk+ucrZ5nD4g1nvYZnz6NOTeLR/X5r1Xy+HHPlVQ0g9NWlU0XdwZ35LU1pB2YojUkmPv6mHWhQ/ri+8/Kc6/p48OMIUFhbMghwKDfNftLH2amUWEM6XiKyl+nr2bmuP9zbBtmpfeMNRTNfeutbfcKz9b4Hm7/NvxVM5FJn0uN58qEXJXkCx6jn/mnRY9RxWwPzjHKFhCg28MOuUis7S0q9ny9+lNFXb9jGFnmA4Y7qq97X+Cw3GvU4L5u/zzzhjznQZrXouqCIdEYo4uk/neAJtuQhyNunjCd/K381erT+0KGovW8bXv0DBtJ2ysI8CAICjCvueBgDg/HFovt54e5EyjHVymrVMI25K0uWXX573I6mrXvn+iHwDxNwp+mz8bB30LeRscKlhw3oK8Z37Gx06eMg3NTgepa1Zq53ek3brJL9q9epBhVUVEhMV70/H5d693TfN74AWLlylbG9FOOupQYPiJ8CHlg/T9TcN1dz9HkW2fURvPHm1apbAYO3fli3Tem+A66ysxhdflOeo3jPOc0g/r52v6RNe07D/+Ytuv/kqdXr2W2V75zlCFOLfqLk4VbVqlP+gLSdFG9Yf8U0tiKNSVVUpYFO4GvTVsMHNi35h4bTKX1SFBF958t7aLvD0DPGkrdFaf8ORo2p1VQ+u4SjR33Bk3Lu1fUc+VxBcDdR32GA1L/6VniIp8KJBPkzuivakac3anb4Q36oYVQ+uYpSYGB+44ObW7u07fFPPGNvLeOI+be2rgWdBO7BQC1dl+97nrNdARe5my/r6FySYtlMW9lEAAHAMYTUAAD4e7Zk8Rh+luOUIqa3kW/qoT59CHrd3UYvK3q/SHO3+coJmpPmXdDaERYT7T6LlUFSVKr5nwfHol9QDgbDAKCM9PajgwFktRtXyGu3q3qFtO93+ZThCFRZe/EOLcnFX6dqmlayDFKP0755UtwGTtbXYf4Ht1p5de+X2FtQRroiIYMKKkuH5bYNmvf2U+ndNUlx0VdVu3kFd73hAz7w6UbPXpMppbUt/aRwKyTNBD1PL9pf5R7a7t2jG1KXK8/KEe7NWr0+3trBTVTteq7Z53sLGz1E5WtFBDuEtfvnPnNPIWk+b55dUHQg0FpOR7hvlWihnNcVUO2H0cn7vcVRWdLAbxA4FVbTnF6UerxilB1cxqhZTTce7lGDeUwyloIzF2VfdO7Zpp6/zspYTGqYid7NlfP0LFEzbKQv7KAAAOIawGgAAL/cqjX19lg54HIpIekD/mDRBEyYU8vjwE73Us5ZvhK4n9Rt9OHV3Cf95c348OvBLmo54z52dF6jVJfX9k4PiVKWj9xhWjjatWaOgbmCSma6DvuHT1hJiavr+9TthlJwnTfv2+sauFYujUjsN/eJjDU6wymmytHHCnfrDfV9oR7EW7R3ZF0gdPAf0S+rZuf9o5srXdXPzlrrhvuf1wcy1ym54nfoNeVUfz1mhHWkH9PPmFZrzt8sDFx5ccuUT9kZeP1B3NfeGwm5tHPewXph/IDDnKI92fzFc76/IlqPipbr/rzerWmBOcZRU+c8FzkqVFBnYhXI2rdGa4BqO0g/6R8RaDUc1a/lr6pzirKRKxytGa4KrGKtLOej/iwyrT4qpWcs37YwpC2UsyAmj2T1p+1Tkbrasr39xne/rDwBAGUNYDQCA5cCMMXp/1REZZ5Su7tdHDYMK3SqoU++bVc/7WpOuuR99op+Kn9UG4bCWfb9OvjtaVO+sLlfk97NoebFOuhs1DPxYmkep82ZpfhB3EclasVIbfPluqOKS2vqm+ThjFFMtEAK412vZ0t/8z4vJGXOd/v7lePVrEiGHOaz17/VRlwdnaM9pXw1wqHp0Nf+tU6zlrVi8LLiQvjg8e/TRE09qxo4jcta4Qa8s264ti6dp3POD1atTS9WOzLWTOVxyufI5NAu/TE/8c7iurRkqpS/T8BuS1H3IOM1cvFo/rp2vCY93Ubs7JmlnZIL+8sHHGnJpAcOqg1WS5T8HOGMaqaG/4ciTOk+zgms4WulvOAqNS1LbWudg/Vh9QKOGgR+69KRq3qz5eY/8P0mWVqzc4OvDrIpRUtvcQaDVUAPdisdzPKg9bWekjGePMyZGx7vZZSpyN1sG1t9xfIOX/BjmMr79AQA435yDR8wAABRRzhb987XPfD++FFKzu/r3rBH0F2RE2z+pe0PvaEmjzP9M0odr/cHUmeTZM1XjZ+yXxxGh1vc+rBsqBmYEKaLdNeoQ+LHCnJ1TNfbTXYWMCM/QvMkzfCObHWHN1L1HQmC6xRmtxMRG/pG15nfNHj9RKSUU2IfU6a6xM97VrbGhcpgMrXrrNt346L+U72/UFcipqm0uUSNfQXO0bep7+mr/GR4H796o1RsOWXuGQxWv7KsBCZUL2a9CFFLAwNvyrR7Ul4um66V+ndSk3FZ9OXyAuiS1UJP4Duo7apkq3fCMpi6dr7d6xgZGOhdTCZe/zItop2s6VPHXQc5OTR37qXYVsgtlzJusGf6Go2bdeyjhnKyfCLW7poP8XUqOdk4dq08LrxhNnrHDerVDYc26q8cpFROu8MA9iI9kHrZeV1xnooxnjzM6UYn+zsvqZmdr/MSUItZJ6V//8OMbXIdL6DvkuLK9/QEAON/4vrIBADifZS58XW/Pz5CRS41699e1RQl/wxLV+4/NFOqQTPZKfTJhyZkdsZu5Qe/fN0TT04wiWz+oUQ+2KvqP5FXuqkF3xPnK7B1lNmPoo5qyI/8T90NLR+ipidutk/YQ1ew5RANPOml3qXXPHor33djTKH3uC3pg3I8q8CcA07cqJci/Y3c16KN/TH9VXWq75PD8ru9H91LXp+YptZCcIS+uVj3ULd5//+CcPZ/qkYEfanNBBc3KUlZxQhOTqcxM/xjBrN9/V6bvWUGcchZyZBZWq5Wu7NxJbVvVVSVXpOok3qz7Xhivf2/4SSumPKOb44oyyr4QZ6D8ZVtldR10h+L8DUepM4bq0Sk78r/Qc2ipRjw1UdutfSikZk8NGZhQMhcRSqHKXQfpjrhQX9vypM7Q0EenKP8u5ZCWjnhKE/0Vo55DBp4a4oeUV4Xy/j4lJ+XHwF91FE+Jl/FscrVWzx7x/vsne/+K54UHNO7Hgn9oNX1rykm3Cynd6x+i8hXK+8pmclL0Y0ls8FzsW/8j2r9hiRav21fw9yIAADiGsBoAcH7z/KzJYz7UZuvc2BGRqL79EosY/rrUoldPtfIFWG5tnjJBczP8c06LZ7dWfbdW+3Mn3ln7tGr6K+p/RXvd++VuhTW6XWM/HaYOUYH5RRKh5CGjNaCJ9x7IRu5tn+iebvfrsy25P9Sj/YtGqVePl7TcWqfwJgM0bkwPRec6enAlDNazfS4KhN97NXNwZ9349DRtSD85CXD/ul6z3rhfnZsnaPDM9MDUwkXE36tJ015Up+ohcngOaPHwHur2/ELlvmtzoVwtde8TvVTXZRXUZGv7Z3erfedBemfuFv12LBvx6OC2/+jTEfeoU8JdmvJrvmlG4Vyxql/XW1lGmd+9pzEL0k4ONj0Z2rXiG338bYp/ujmsw4f9r8jcsUTLc99T5rd/67GkJkq6/e9a3fgJTf9xj7Yu+UJvDvmzOtaPDLyoBJV0+c8BEclDNHpAE4V7dyH3Nn1yTzfd/9mWUy5QefYv0qhePfSSv+FowLgx6pG74ZxLIpI1ZPQANfFXjLZ9co+63f+ZTu1S9mvRqF7q8dJyZShcTQaM05ge0aeekLji1DjW5QsWs9dP0Msfbjxex56DSpnzjp54cVrRbgtU0mU8q1xKGPys+lwUCFv3ztTgzjfq6WkbdHI369av62fpjfs7q7nVL5/UzZbq9XcprnGsvF2ztcE14eUPtfH4BtfBlDl654kXNe307wNl0/of0pJhV6pxfJKSmzfWFUMXWcsEAACFMgAAnMeyVw41bcIdRnKayl3eM7tzAjOKwr3JjGwfYbynwHJGmz99mhaYEawMM/mWKP/7fQ+HcYZWMjViG5v4Fs1N00Z1zQXlQnzzHc6KJq77CDN/XwEFzZhsbonyrpNM+E3jzcHA5NwOr/3A9I4rF/hc6zMrXGQ69nnYDB0x2ox64XFzd5cWpnpooG7aDDaf/5QdeGce0peYEZ1rmlBv+n10eeFVTWyrK8w1nZNNfL2qJsJpLcvhMtXaDDCTNrkDb/TLmHyLifK9N9zcND6vEueYtO+eNsmVnb7lO0Kqm07Dl5jfA3ODl2bmD+tookP89XOsrBFVTN24OFO/ZpQJ85UzzNRKTDaNywfqseuEwPtPVnC53Wbza1eZKKf/cxyhlU39NleYTld2MJcnNDa1o0KN41h9eR9OUym2tWnTtLapFBphbp6QEViOX/bSx018qPU6RwXT+i/jzaKt6VatFEH2EvO3Zi7fZ4Ve8pxZc/ImyEPJlr/wbRyQ+bXpXzvEt8ywK18zO/NdySyz8JE44/J+duilZtjaQlcoHzlm9+udTJh3OSEXmYFzMgPT83F4rfmgd5wpF1h3h7OCuahjH/Pw0BFm9KgXzON3dzEtqlt1Y81zVm5jBn/+k8m75WSbJX9rFij/Jea5wjdIcIJs/1ZFm6/71zYh3s8Pu9K8ln9Fm6yFj5g4l3d9Q82lw9Zae0ZeDpu1H/Q2ceUCbcvhNBUu6mj6PDzUjBg9yrzw+N2mS4vq/j7CWdm0Gfy5yb9LcZv1I9ubyGN1XN7Uap5sOiQ1N/WqhBunteyoDiPNmhPeH9z+VZJlPKHfDr/JFLRLm6zF5rGLA23v0mHmdHfV9CUjTOea/n3raPnDq8aaVldcYzonx5t6VSOsurHqy1XNtBkwyeTqZi2ld/3d60ea9pHHy1W+VnOT3CHJNK9XxYRbfbIzqoMZeWyDn27bOcvrn/Uf8z9N/OvtfbgaDDbzsgLzAABAvgirAQDnsQNm+p0X+sOakFrmjmkHAtOLKsdse/0qU8EXlDhM5RvfN3uKliKaNR8MMJ2b1zIVTgpRAw/rhDoi+mLTsddj5r2Fu02h57pBh1VWyfctNuMGdTKxkf4w/OTPDTGRdZJN35HfmJTDgTcUJCvFfPVsT9Oy2glhSuDhcFU0se1uM09/tMzsyyNXCC5oyjF7Zz1kEgKBhiOkhrlu9H8D84risNn81fOmd2LtXPXtMCEVapvWXQaa0TM2mN8zvjB9LvCH46cXVluyU8yUQZeZaF/of/RzrLKHRpl6bW4wdz31tvlq2XTz8MXhgTpzmLDqLcxND7xtFuzNtRP9OtMMqH9iUBVqKtaMM607/MH88c5B5rHnRpl3Js0w89fsMgfz2v+KHFZbSrD850xY7ZWzzyweN8h0io00Ib51OvFh7UeRdUxy35HmmwIbzrkWVnvlmH2Lx5lBnWJNZB59mSMk0tRJ7mtGfpNitcJCHF5t3r01zlTwXjw6ugyHy0Q16Gj6vTzTbD75Wkjw+1eJlfHsh9VeWSlfmWd7tjTVcrVJ737nqhhr2t32tPlo2b6zsI1Kev0Pm9Xv3mriKjiP93HedYpqYDr2e9nMPGmDF6ftnMX1t/qJaXfF+sNvq7+ud8dU83P+zQwAAAQ4vP+xvpgBAEAp4D6wTevWbdbOfb8qPcupChdEK6ZWfV3cuJYqnMm/w87YrsVzvtWqrXuUeihUUdE1VC++nTom1lGR74Kck65d637Q8h/WaFtGpGrF1leTlpcovmZE4AWlR8au1Vr54w79Yq1z5ZgLFdesqWqUD8wsMd5biyzTt4s3Ks0TqQtq11ezhHjVrRgSmG9V2d7vNWP2BuXUbKHk5OaqkU9VZW2brXdffVdT/3eBlq//WRmePA7jHE6Vi2mp6/o+qmFP9FKzYt8hpOTKf+7J0PbFc/Ttqq3ak3pIoVHRqlEvXu06JqpOCd4+vCzK2L5Yc75dpa17UnUoNErRNeopvl1HJRapYtzav3qOZi/dqozwaMU2baPLEuoqsoT6wpIpoz1y0ndp3Q/L9cOabcqIrKXY+k3U8pJ4FaWbLY3r796/WnNmL9XWjHBFxzZVm8sSVLekNnguZ2X9vbetWfCNFqXF6uoubRTjCkwHAAD5IqwGAAAoKw5t1dyP3tIbY8fr//bWV7f+t6p1uTRt27JJmzau1+pV67X9tyPyH905VbXjS5o961ElnDfhMQAAAICyjLAaAACg1EvX6onP6KEnxmpuah3d9MhwvfTXbmqSe9S0J0M7lk7Tm0Me1SvzdivbUVW3TNqiybdWDrwAAAAAAEqvM/vDzgAAACienO364r72avfnMVoQ0kVvLViuL4bmEVR7OSuozuW36cWJT6pjuEPypCtl467ATAAAAAAo3QirAQAASq0cbRnbX/3eWal0V0s98vE/dU/LioF5BXCGKMRh/esorzqxtfzTAAAAAKCUI6wGAAAorXK26vOP5+mAxzpoq91OV7cM4tcfPb/q25ff0NxMKaRuT93VpUpgBgAAAACUboTVAAAApdYRHcn2P/PsnKNP/71XHv//5sm9b7HevedqdX91tbIrtdYj77+s67ldNQAAAIAygh9YBAAAKLXcWj38CiUPWaSD1hGbI6ymLul6i7pemaQ2LRqqVqRHv+7eru0/bdB/v/uXvvx6obYedKhK6zs1/J0RuqtNFUYmAAAAACgzCKsBAABKs5xd+tdz92jg6FlKSfcovwM3R2gVNWp7o3oPGKz7/thG1V2BGQAAAABQRhBWAwAAlAE5qes095vZWrRqk3bs/VWZjoqqXvtC1bmwjurUra9mlyWqabWwwKsBAAAAoOwhrAYAAAAAAAAA2I7bGAIAAAAAAAAAbEdYDQAAAAAAAACwHWE1AAAAAAAAAMB2hNUAAAAAAAAAANsRVgMAAAAAAAAAbEdYDQAAAAAAAACwHWE1AAAAAAAAAMB2hNUAAAAAAAAAANsRVgMAAAAAAAAAbEdYDQAAAAAAAACwHWE1AAAAAAAAAMB2hNUAAAAAAAAAANsRVgMAAAAAAAAAbEdYDQAAAAAAAACwHWE1AAAAAAAAAMB2hNUAAAAAAAAAANsRVgMAAAAAAAAAbEdYDQAAAAAAAACwHWE1AAAAAAAAAMB2hNUAAAAAAAAAANsRVgMAAAAAAAAAbEdYDQAAAAAAAACwHWE1AAAAAAAAAMB2hNUAAAAAAAAAANsRVgMAAAAAAAAAbEdYDQAAAAAAAACwHWE1AAAAAAAAAMB2hNUAAAAAAAAAANsRVgMAAAAAAAAAbEdYDQAAAAAAAACwHWE1AAAAAAAAAMB2hNUAAAAAAAAAANsRVgMAAAAAAAAAbEdYDQAAAAAAAACwHWE1AAAAAAAAAMB2hNUAAAAAAAAAANsRVgMAAAAAAAAAbEdYDQAAAAAAAACwHWE1AAAAAAAAAMB2hNUAAAAAAAAAANsRVgMAAAAAAAAAbEdYDQAAAAAAAACwHWE1AAAAAAAAAMB2hNUAAAAAAAAAANsRVgMAAAAAAAAAbEdYDQAAAAAAAACwHWE1AAAAAAAAAMB2hNUAAAAAAAAAANsRVgMAAAAAAAAAbEdYDQAAAAAAAACwHWE1AAAAAAAAAMB2hNUAAAAAAAAAANsRVgMAAAAAAAAAbEdYDQAAAAAAAACwHWE1AAAAAAAAAMB2hNUAAAAAAAAAANsRVgMAAAAAAAAAbEdYDQAAAAAAAACwHWE1AAAAAAAAAMB2hNUAAAAAAAAAANsRVgMAAAAAAAAAbEdYDQAAAAAAAACwHWE1AAAAAAAAAMB2hNUAAAAAAAAAANsRVgMAAAAAAAAAbCb9P6DYx8XxpKW/AAAAAElFTkSuQmCC;" parent="1" vertex="1">
                    <mxGeometry width="1451" height="667" as="geometry"/>
                </mxCell>
                <mxCell id="5" value="&lt;b&gt;Matlab/Client Computer&lt;/b&gt;" style="text;html=1;strokeColor=none;fillColor=none;align=center;verticalAlign=middle;whiteSpace=wrap;rounded=0;fontColor=#000000;" parent="1" vertex="1">
                    <mxGeometry x="30" y="220" width="120" height="30" as="geometry"/>
                </mxCell>
                <mxCell id="6" value="&lt;b&gt;UART (USB connection between NU32 and Client Computer)&lt;/b&gt;" style="text;html=1;strokeColor=none;fillColor=none;align=center;verticalAlign=middle;whiteSpace=wrap;rounded=0;fontColor=#000000;" parent="1" vertex="1">
                    <mxGeometry x="180" y="190" width="120" height="30" as="geometry"/>
                </mxCell>
                <mxCell id="8" value="&lt;b&gt;PIC32&lt;/b&gt;" style="text;html=1;strokeColor=none;fillColor=none;align=center;verticalAlign=middle;whiteSpace=wrap;rounded=0;fontColor=#000000;" parent="1" vertex="1">
                    <mxGeometry x="350" y="100" width="120" height="30" as="geometry"/>
                </mxCell>
                <mxCell id="9" value="&lt;b&gt;PIC32&lt;/b&gt;" style="text;html=1;strokeColor=none;fillColor=none;align=center;verticalAlign=middle;whiteSpace=wrap;rounded=0;fontColor=#000000;" parent="1" vertex="1">
                    <mxGeometry x="665.5" y="100" width="120" height="30" as="geometry"/>
                </mxCell>
                <mxCell id="10" value="&lt;b&gt;Analog signal, read on the PIC32 using ADC&lt;/b&gt;" style="text;html=1;strokeColor=none;fillColor=none;align=center;verticalAlign=middle;whiteSpace=wrap;rounded=0;fontColor=#000000;" parent="1" vertex="1">
                    <mxGeometry x="750" y="280" width="140" height="30" as="geometry"/>
                </mxCell>
                <mxCell id="11" value="&lt;b&gt;DC Motor&lt;/b&gt;" style="text;html=1;strokeColor=none;fillColor=none;align=center;verticalAlign=middle;whiteSpace=wrap;rounded=0;fontColor=#000000;" parent="1" vertex="1">
                    <mxGeometry x="1170" y="100" width="120" height="30" as="geometry"/>
                </mxCell>
                <mxCell id="12" value="&lt;b&gt;Using output compare and a timer can produce a PWM signal from the PIC32&lt;/b&gt;" style="text;html=1;strokeColor=none;fillColor=none;align=center;verticalAlign=middle;whiteSpace=wrap;rounded=0;fontColor=#000000;" parent="1" vertex="1">
                    <mxGeometry x="794.5" y="200" width="95.5" height="30" as="geometry"/>
                </mxCell>
                <mxCell id="13" value="&lt;b&gt;DRV8835 H-bridge&lt;/b&gt;" style="text;html=1;strokeColor=none;fillColor=none;align=center;verticalAlign=middle;whiteSpace=wrap;rounded=0;fontColor=#000000;" parent="1" vertex="1">
                    <mxGeometry x="920" y="100" width="120" height="30" as="geometry"/>
                </mxCell>
                <mxCell id="14" value="&lt;b&gt;Send the command programmatically on the PIC32&lt;/b&gt;" style="text;html=1;strokeColor=none;fillColor=none;align=center;verticalAlign=middle;whiteSpace=wrap;rounded=0;fontColor=#000000;" parent="1" vertex="1">
                    <mxGeometry x="500" y="170" width="120" height="40" as="geometry"/>
                </mxCell>
                <mxCell id="15" value="&lt;b&gt;A current sense resistor allows determination of the current accross it&lt;/b&gt;" style="text;html=1;strokeColor=none;fillColor=none;align=center;verticalAlign=middle;whiteSpace=wrap;rounded=0;fontColor=#000000;" parent="1" vertex="1">
                    <mxGeometry x="1060" y="210" width="100" height="30" as="geometry"/>
                </mxCell>
                <mxCell id="16" value="&lt;b&gt;A pulse train is created by the encoder as the motor spins&lt;/b&gt;" style="text;html=1;strokeColor=none;fillColor=none;align=center;verticalAlign=middle;whiteSpace=wrap;rounded=0;fontColor=#000000;" parent="1" vertex="1">
                    <mxGeometry x="1230" y="300" width="120" height="30" as="geometry"/>
                </mxCell>
                <mxCell id="17" value="&lt;b&gt;The encoder pulse train is counted and the subsequent information is sent to the PIC32 using SPI&lt;/b&gt;" style="text;html=1;strokeColor=none;fillColor=none;align=center;verticalAlign=middle;whiteSpace=wrap;rounded=0;fontColor=#000000;" parent="1" vertex="1">
                    <mxGeometry x="530" y="440" width="280" height="30" as="geometry"/>
                </mxCell>
                <mxCell id="18" value="&lt;b&gt;Encoder counter circut&lt;/b&gt;" style="text;html=1;strokeColor=none;fillColor=none;align=center;verticalAlign=middle;whiteSpace=wrap;rounded=0;fontColor=#000000;" parent="1" vertex="1">
                    <mxGeometry x="1170" y="490" width="120" height="30" as="geometry"/>
                </mxCell>
                <mxCell id="19" value="&lt;span style=&quot;font-size: 11px&quot;&gt;&lt;b&gt;MAX9918 current-sense amplifier&amp;nbsp;&amp;nbsp;&lt;/b&gt;&lt;/span&gt;" style="text;html=1;strokeColor=none;fillColor=none;align=center;verticalAlign=middle;whiteSpace=wrap;rounded=0;fontColor=#000000;" parent="1" vertex="1">
                    <mxGeometry x="943" y="354" width="120" height="30" as="geometry"/>
                </mxCell>
            </root>
        </mxGraphModel>
    </diagram>
</mxfile>